Grandstander-BoldItalic.ufo
<glyph name="exclam" format="2">
  <advance width="708.0"/>
  <unicode hex="0021"/>
  <outline>
    <contour>
      <point x="444.0" y="437.0" type="curve"/>
      <point x="520.25" y="688.0"/>
      <point x="736.75" y="1321.75"/>
      <point x="789.5" y="1457.25" type="curve"/>
      <point x="425.75" y="1472.75" type="line"/>
      <point x="340.0" y="1175.5"/>
      <point x="241.75" y="766.5"/>
      <point x="177.5" y="450.75" type="curve"/>
      <point x="240.5" y="442.75"/>
      <point x="384.75" y="437.0"/>
    </contour>
    <contour>
      <point x="216.0" y="-27.0" type="curve" smooth="yes"/>
      <point x="343.0" y="-27.0"/>
      <point x="464.75" y="69.0"/>
      <point x="464.75" y="193.0" type="curve" smooth="yes"/>
      <point x="464.75" y="285.0"/>
      <point x="392.25" y="357.0"/>
      <point x="288.25" y="357.0" type="curve" smooth="yes"/>
      <point x="152.75" y="357.0"/>
      <point x="36.0" y="259.75"/>
      <point x="36.0" y="127.75" type="curve" smooth="yes"/>
      <point x="36.0" y="40.0"/>
      <point x="105.25" y="-27.0"/>
    </contour>
  </outline>
</glyph>
<glyph name="quotedbl" format="2">
  <advance width="764.0"/>
  <unicode hex="0022"/>
  <outline>
    <contour>
      <point x="445.5" y="1031.25" type="curve"/>
      <point x="492.75" y="1127.0"/>
      <point x="548.0" y="1289.75"/>
      <point x="576.0" y="1391.0" type="curve" smooth="yes"/>
      <point x="583.5" y="1417.5"/>
      <point x="586.75" y="1438.75"/>
      <point x="587.0" y="1453.0" type="curve"/>
      <point x="559.75" y="1457.0"/>
      <point x="528.0" y="1458.5"/>
      <point x="495.5" y="1458.5" type="curve" smooth="yes"/>
      <point x="437.0" y="1458.5"/>
      <point x="388.5" y="1452.5"/>
      <point x="330.75" y="1442.0" type="curve"/>
      <point x="310.75" y="1363.75"/>
      <point x="276.25" y="1187.0"/>
      <point x="272.75" y="1037.75" type="curve"/>
      <point x="299.25" y="1033.0"/>
      <point x="392.5" y="1031.25"/>
    </contour>
    <contour>
      <point x="568.25" y="1027.25" type="curve"/>
      <point x="598.0" y="1027.0"/>
      <point x="653.75" y="1030.5"/>
      <point x="747.25" y="1041.75" type="curve"/>
      <point x="794.25" y="1130.5"/>
      <point x="895.5" y="1337.75"/>
      <point x="916.5" y="1420.5" type="curve" smooth="yes"/>
      <point x="918.75" y="1429.5"/>
      <point x="920.25" y="1437.0"/>
      <point x="921.25" y="1443.75" type="curve"/>
      <point x="860.75" y="1452.75"/>
      <point x="750.5" y="1456.25"/>
      <point x="667.5" y="1456.0" type="curve"/>
      <point x="660.75" y="1436.0"/>
      <point x="647.25" y="1391.0"/>
      <point x="637.25" y="1352.75" type="curve" smooth="yes"/>
      <point x="615.25" y="1271.25"/>
      <point x="577.5" y="1090.0"/>
    </contour>
  </outline>
</glyph>
<glyph name="numbersign" format="2">
  <advance width="1511.0"/>
  <unicode hex="0023"/>
  <outline>
    <contour>
      <point x="120.75" y="817.5" type="curve"/>
      <point x="331.75" y="822.0"/>
      <point x="641.75" y="833.25"/>
      <point x="950.0" y="845.75" type="curve" smooth="yes"/>
      <point x="1167.0" y="854.75"/>
      <point x="1389.0" y="865.5"/>
      <point x="1571.0" y="873.0" type="curve"/>
      <point x="1591.25" y="914.75"/>
      <point x="1651.0" y="1098.75"/>
      <point x="1663.0" y="1141.5" type="curve"/>
      <point x="1451.0" y="1137.75"/>
      <point x="1180.5" y="1124.25"/>
      <point x="902.75" y="1108.5" type="curve" smooth="yes"/>
      <point x="663.25" y="1095.0"/>
      <point x="374.75" y="1078.5"/>
      <point x="200.5" y="1071.75" type="curve"/>
      <point x="192.25" y="1050.25"/>
      <point x="137.75" y="880.25"/>
    </contour>
    <contour>
      <point x="1357.5" y="377.75" type="curve"/>
      <point x="1376.75" y="416.75"/>
      <point x="1450.75" y="599.25"/>
      <point x="1463.5" y="645.25" type="curve"/>
      <point x="1291.75" y="656.5"/>
      <point x="1109.25" y="661.5"/>
      <point x="927.0" y="662.25" type="curve" smooth="yes"/>
      <point x="783.0" y="663.0"/>
      <point x="639.75" y="662.0"/>
      <point x="498.0" y="658.25" type="curve" smooth="yes"/>
      <point x="346.25" y="653.75"/>
      <point x="199.0" y="648.25"/>
      <point x="62.0" y="641.75" type="curve"/>
      <point x="49.0" y="612.0"/>
      <point x="-9.0" y="445.75"/>
      <point x="-19.25" y="407.5" type="curve"/>
      <point x="75.75" y="414.0"/>
      <point x="183.75" y="416.5"/>
      <point x="299.0" y="416.5" type="curve" smooth="yes"/>
      <point x="439.75" y="416.5"/>
      <point x="593.75" y="414.25"/>
      <point x="746.5" y="407.75" type="curve" smooth="yes"/>
      <point x="957.5" y="399.0"/>
      <point x="1170.0" y="387.5"/>
    </contour>
    <contour>
      <point x="196.75" y="14.5" type="curve"/>
      <point x="251.0" y="14.5"/>
      <point x="452.75" y="28.5"/>
      <point x="495.5" y="36.5" type="curve"/>
      <point x="621.25" y="503.25"/>
      <point x="834.0" y="1179.75"/>
      <point x="934.25" y="1475.5" type="curve"/>
      <point x="839.0" y="1475.5"/>
      <point x="694.75" y="1473.0"/>
      <point x="660.25" y="1466.25" type="curve"/>
      <point x="527.0" y="1113.5"/>
      <point x="349.5" y="583.25"/>
    </contour>
    <contour>
      <point x="758.75" y="59.25" type="curve"/>
      <point x="802.0" y="59.25"/>
      <point x="1017.0" y="90.25"/>
      <point x="1061.0" y="98.75" type="curve"/>
      <point x="1110.25" y="406.75"/>
      <point x="1190.5" y="773.25"/>
      <point x="1277.0" y="1095.5" type="curve" smooth="yes"/>
      <point x="1314.75" y="1236.0"/>
      <point x="1352.5" y="1367.75"/>
      <point x="1390.0" y="1482.5" type="curve"/>
      <point x="1349.0" y="1482.5"/>
      <point x="1166.75" y="1470.75"/>
      <point x="1136.0" y="1465.75" type="curve"/>
      <point x="1061.25" y="1248.75"/>
      <point x="992.25" y="1020.0"/>
      <point x="929.75" y="787.75" type="curve" smooth="yes"/>
      <point x="864.75" y="545.75"/>
      <point x="806.75" y="298.0"/>
    </contour>
  </outline>
</glyph>
<glyph name="dollar" format="2">
  <advance width="1027.0"/>
  <unicode hex="0024"/>
  <anchor x="392.75" y="68.0" name="bottom"/>
  <anchor x="700.0" y="1253.0" name="top"/>
  <outline>
    <contour>
      <point x="482.0" y="-82.0" type="line"/>
      <point x="500.25" y="-15.75"/>
      <point x="533.75" y="109.25"/>
      <point x="545.75" y="153.25" type="curve"/>
      <point x="278.25" y="168.75" type="line"/>
      <point x="262.5" y="134.75"/>
      <point x="194.5" y="-55.75"/>
      <point x="186.0" y="-86.25" type="curve"/>
    </contour>
    <contour>
      <point x="573.0" y="1204.0" type="curve"/>
      <point x="817.5" y="1205.5" type="line"/>
      <point x="832.25" y="1258.5"/>
      <point x="863.5" y="1375.0"/>
      <point x="874.5" y="1419.0" type="curve"/>
      <point x="637.5" y="1408.75" type="line"/>
      <point x="625.5" y="1374.0"/>
      <point x="585.75" y="1245.0"/>
    </contour>
    <component base="s" xOffset="55.0" yOffset="135.5"/>
  </outline>
</glyph>
<glyph name="percent" format="2">
  <advance width="1385.0"/>
  <unicode hex="0025"/>
  <outline>
    <contour>
      <point x="67.75" y="-37.25" type="curve"/>
      <point x="399.75" y="227.5"/>
      <point x="1107.75" y="867.75"/>
      <point x="1497.5" y="1286.0" type="curve"/>
      <point x="1476.75" y="1333.25"/>
      <point x="1421.75" y="1410.75"/>
      <point x="1361.5" y="1441.25" type="curve"/>
      <point x="1011.75" y="1053.75"/>
      <point x="304.0" y="394.0"/>
      <point x="-73.5" y="88.25" type="curve"/>
      <point x="-45.5" y="55.25"/>
      <point x="36.5" y="-13.0"/>
    </contour>
    <contour>
      <point x="982.5" y="274.75" type="curve" smooth="yes"/>
      <point x="930.0" y="274.75"/>
      <point x="904.5" y="302.0"/>
      <point x="904.5" y="345.75" type="curve" smooth="yes"/>
      <point x="904.5" y="423.25"/>
      <point x="968.0" y="480.25"/>
      <point x="1043.75" y="480.25" type="curve" smooth="yes"/>
      <point x="1089.25" y="480.25"/>
      <point x="1122.5" y="459.0"/>
      <point x="1122.5" y="413.25" type="curve" smooth="yes"/>
      <point x="1122.5" y="339.75"/>
      <point x="1055.0" y="274.75"/>
    </contour>
    <contour>
      <point x="941.75" y="98.0" type="curve" smooth="yes"/>
      <point x="1159.75" y="98.0"/>
      <point x="1300.25" y="233.25"/>
      <point x="1300.25" y="445.5" type="curve" smooth="yes"/>
      <point x="1300.25" y="573.0"/>
      <point x="1224.25" y="648.5"/>
      <point x="1079.75" y="648.5" type="curve" smooth="yes"/>
      <point x="885.75" y="648.5"/>
      <point x="711.5" y="484.75"/>
      <point x="711.5" y="295.0" type="curve" smooth="yes"/>
      <point x="711.5" y="164.75"/>
      <point x="816.0" y="98.0"/>
    </contour>
    <contour>
      <point x="453.0" y="749.75" type="curve" smooth="yes"/>
      <point x="647.25" y="749.75"/>
      <point x="819.75" y="930.75"/>
      <point x="819.75" y="1121.75" type="curve" smooth="yes"/>
      <point x="819.75" y="1252.75"/>
      <point x="712.5" y="1328.5"/>
      <point x="566.5" y="1328.5" type="curve" smooth="yes"/>
      <point x="377.75" y="1328.5"/>
      <point x="203.25" y="1164.75"/>
      <point x="203.25" y="974.25" type="curve" smooth="yes"/>
      <point x="203.25" y="836.0"/>
      <point x="289.75" y="749.75"/>
    </contour>
    <contour>
      <point x="489.25" y="948.25" type="curve" smooth="yes"/>
      <point x="443.5" y="948.25"/>
      <point x="406.25" y="968.0"/>
      <point x="406.25" y="1013.5" type="curve" smooth="yes"/>
      <point x="406.25" y="1088.75"/>
      <point x="466.5" y="1154.25"/>
      <point x="550.75" y="1154.25" type="curve" smooth="yes"/>
      <point x="601.75" y="1154.25"/>
      <point x="626.25" y="1127.0"/>
      <point x="626.25" y="1085.0" type="curve" smooth="yes"/>
      <point x="626.25" y="1008.25"/>
      <point x="574.5" y="948.25"/>
    </contour>
  </outline>
</glyph>
<glyph name="ampersand" format="2">
  <advance width="1395.0"/>
  <unicode hex="0026"/>
  <outline>
    <contour>
      <point x="444.25" y="-102.5" type="curve" smooth="yes"/>
      <point x="699.0" y="-102.5"/>
      <point x="878.0" y="19.25"/>
      <point x="957.25" y="109.25" type="curve"/>
      <point x="980.75" y="63.0"/>
      <point x="1031.25" y="-20.5"/>
      <point x="1064.0" y="-66.0" type="curve"/>
      <point x="1134.0" y="-30.0"/>
      <point x="1222.75" y="53.0"/>
      <point x="1275.25" y="115.5" type="curve"/>
      <point x="1240.5" y="169.75"/>
      <point x="1199.0" y="234.0"/>
      <point x="1156.25" y="289.0" type="curve"/>
      <point x="1216.5" y="343.25"/>
      <point x="1324.75" y="446.5"/>
      <point x="1346.0" y="490.5" type="curve"/>
      <point x="1312.0" y="540.5"/>
      <point x="1222.0" y="606.25"/>
      <point x="1175.75" y="630.75" type="curve"/>
      <point x="1155.0" y="595.0"/>
      <point x="1074.75" y="496.75"/>
      <point x="1033.5" y="462.5" type="curve"/>
      <point x="965.25" y="562.0"/>
      <point x="858.25" y="718.25"/>
      <point x="808.0" y="785.5" type="curve"/>
      <point x="977.0" y="865.25"/>
      <point x="1115.0" y="994.0"/>
      <point x="1115.0" y="1173.5" type="curve" smooth="yes"/>
      <point x="1115.0" y="1322.5"/>
      <point x="992.75" y="1414.5"/>
      <point x="822.0" y="1414.5" type="curve" smooth="yes"/>
      <point x="599.25" y="1414.5"/>
      <point x="408.25" y="1298.0"/>
      <point x="408.25" y="1087.75" type="curve" smooth="yes"/>
      <point x="408.25" y="999.25"/>
      <point x="456.0" y="907.25"/>
      <point x="507.0" y="844.25" type="curve"/>
      <point x="261.5" y="735.25"/>
      <point x="17.5" y="552.25"/>
      <point x="17.5" y="271.25" type="curve" smooth="yes"/>
      <point x="17.5" y="56.75"/>
      <point x="166.0" y="-102.5"/>
    </contour>
    <contour>
      <point x="490.0" y="131.75" type="curve" smooth="yes"/>
      <point x="368.0" y="131.75"/>
      <point x="306.75" y="199.5"/>
      <point x="306.75" y="300.5" type="curve" smooth="yes"/>
      <point x="306.75" y="480.25"/>
      <point x="467.25" y="582.75"/>
      <point x="619.5" y="673.5" type="curve"/>
      <point x="680.5" y="567.5"/>
      <point x="773.75" y="407.75"/>
      <point x="839.0" y="307.75" type="curve"/>
      <point x="778.25" y="244.0"/>
      <point x="661.25" y="131.75"/>
    </contour>
    <contour>
      <point x="700.25" y="940.5" type="curve"/>
      <point x="678.75" y="971.5"/>
      <point x="658.5" y="1028.75"/>
      <point x="658.5" y="1082.75" type="curve" smooth="yes"/>
      <point x="658.5" y="1166.0"/>
      <point x="712.0" y="1221.5"/>
      <point x="791.25" y="1221.5" type="curve" smooth="yes"/>
      <point x="841.75" y="1221.5"/>
      <point x="869.25" y="1198.25"/>
      <point x="869.25" y="1159.25" type="curve" smooth="yes"/>
      <point x="869.25" y="1074.5"/>
      <point x="776.0" y="984.25"/>
    </contour>
  </outline>
</glyph>
<glyph name="quotesingle" format="2">
  <advance width="462.0"/>
  <unicode hex="0027"/>
  <outline>
    <contour>
      <point x="586.0" y="1380.5" type="curve" smooth="yes"/>
      <point x="593.75" y="1411.25"/>
      <point x="600.75" y="1439.25"/>
      <point x="602.75" y="1453.25" type="curve"/>
      <point x="572.0" y="1457.25"/>
      <point x="539.25" y="1459.0"/>
      <point x="504.0" y="1459.0" type="curve" smooth="yes"/>
      <point x="446.75" y="1459.0"/>
      <point x="385.25" y="1454.0"/>
      <point x="324.25" y="1443.0" type="curve"/>
      <point x="303.25" y="1350.5"/>
      <point x="275.75" y="1082.25"/>
      <point x="269.0" y="991.75" type="curve"/>
      <point x="301.75" y="988.5"/>
      <point x="330.25" y="985.75"/>
      <point x="359.75" y="985.75" type="curve" smooth="yes"/>
      <point x="384.75" y="985.75"/>
      <point x="411.25" y="987.25"/>
      <point x="445.5" y="990.5" type="curve"/>
      <point x="497.5" y="1098.5"/>
      <point x="558.5" y="1272.0"/>
    </contour>
  </outline>
</glyph>
<glyph name="parenleft" format="2">
  <advance width="677.0"/>
  <unicode hex="0028"/>
  <outline>
    <contour>
      <point x="61.75" y="-520.25" type="curve"/>
      <point x="129.75" y="-492.75"/>
      <point x="299.5" y="-401.0"/>
      <point x="362.75" y="-361.25" type="curve"/>
      <point x="312.75" y="-263.75"/>
      <point x="288.0" y="-71.75"/>
      <point x="288.0" y="86.75" type="curve" smooth="yes"/>
      <point x="288.0" y="593.25"/>
      <point x="517.75" y="1042.0"/>
      <point x="849.5" y="1485.75" type="curve"/>
      <point x="790.5" y="1520.5"/>
      <point x="679.75" y="1559.5"/>
      <point x="569.25" y="1575.5" type="curve"/>
      <point x="217.25" y="1178.5"/>
      <point x="-35.75" y="585.25"/>
      <point x="-35.75" y="38.75" type="curve" smooth="yes"/>
      <point x="-35.75" y="-154.75"/>
      <point x="-4.25" y="-404.75"/>
    </contour>
  </outline>
</glyph>
<glyph name="parenright" format="2">
  <advance width="651.0"/>
  <unicode hex="0029"/>
  <outline>
    <contour>
      <point x="371.0" y="1053.25" type="curve" smooth="yes"/>
      <point x="371.0" y="600.25"/>
      <point x="133.75" y="-28.75"/>
      <point x="-178.25" y="-345.0" type="curve"/>
      <point x="-147.0" y="-386.5"/>
      <point x="-1.0" y="-469.5"/>
      <point x="57.75" y="-490.5" type="curve"/>
      <point x="402.25" y="-166.25"/>
      <point x="686.25" y="545.0"/>
      <point x="686.25" y="1042.5" type="curve" smooth="yes"/>
      <point x="686.25" y="1242.25"/>
      <point x="653.0" y="1442.5"/>
      <point x="584.0" y="1572.0" type="curve"/>
      <point x="487.0" y="1552.25"/>
      <point x="385.75" y="1515.25"/>
      <point x="294.75" y="1471.0" type="curve"/>
      <point x="345.5" y="1371.75"/>
      <point x="371.0" y="1214.5"/>
    </contour>
  </outline>
</glyph>
<glyph name="asterisk" format="2">
  <advance width="957.75"/>
  <unicode hex="002A"/>
  <outline>
    <contour>
      <point x="887.75" y="946.5" type="curve"/>
      <point x="917.0" y="975.0"/>
      <point x="1039.25" y="1105.5"/>
      <point x="1062.5" y="1142.5" type="curve"/>
      <point x="980.5" y="1195.5"/>
      <point x="824.25" y="1268.75"/>
      <point x="744.75" y="1300.75" type="curve"/>
      <point x="669.75" y="1363.75"/>
      <point x="489.5" y="1487.5"/>
      <point x="417.25" y="1534.0" type="curve"/>
      <point x="381.75" y="1502.0"/>
      <point x="277.25" y="1382.75"/>
      <point x="249.0" y="1341.75" type="curve"/>
      <point x="335.25" y="1289.5"/>
      <point x="523.75" y="1201.75"/>
      <point x="614.25" y="1163.75" type="curve"/>
      <point x="679.75" y="1099.25"/>
      <point x="814.5" y="991.5"/>
    </contour>
    <contour>
      <point x="565.75" y="848.0" type="curve" smooth="yes"/>
      <point x="617.0" y="848.0"/>
      <point x="668.0" y="852.25"/>
      <point x="687.75" y="855.75" type="curve"/>
      <point x="709.25" y="944.25"/>
      <point x="748.0" y="1148.25"/>
      <point x="766.75" y="1249.5" type="curve"/>
      <point x="799.5" y="1334.25"/>
      <point x="846.5" y="1474.75"/>
      <point x="877.25" y="1590.5" type="curve"/>
      <point x="858.75" y="1594.25"/>
      <point x="812.0" y="1597.0"/>
      <point x="763.75" y="1597.0" type="curve" smooth="yes"/>
      <point x="715.5" y="1597.0"/>
      <point x="665.75" y="1594.25"/>
      <point x="644.5" y="1590.5" type="curve"/>
      <point x="625.75" y="1504.5"/>
      <point x="598.75" y="1360.5"/>
      <point x="581.0" y="1249.5" type="curve"/>
      <point x="533.25" y="1121.0"/>
      <point x="473.5" y="954.0"/>
      <point x="446.0" y="855.75" type="curve"/>
      <point x="464.0" y="852.0"/>
      <point x="515.0" y="848.0"/>
    </contour>
    <contour>
      <point x="277.25" y="920.5" type="curve"/>
      <point x="397.0" y="978.5"/>
      <point x="556.75" y="1063.5"/>
      <point x="672.5" y="1126.75" type="curve"/>
      <point x="782.5" y="1171.0"/>
      <point x="1024.75" y="1281.25"/>
      <point x="1131.25" y="1333.25" type="curve"/>
      <point x="1125.75" y="1374.25"/>
      <point x="1082.5" y="1501.25"/>
      <point x="1065.25" y="1531.75" type="curve"/>
      <point x="966.75" y="1481.75"/>
      <point x="762.5" y="1364.75"/>
      <point x="660.25" y="1301.5" type="curve"/>
      <point x="550.0" y="1261.0"/>
      <point x="320.5" y="1176.75"/>
      <point x="210.5" y="1123.75" type="curve"/>
      <point x="215.25" y="1088.25"/>
      <point x="265.0" y="947.5"/>
    </contour>
  </outline>
</glyph>
<glyph name="plus" format="2">
  <advance width="1050.0"/>
  <unicode hex="002B"/>
  <outline>
    <contour>
      <point x="986.0" y="587.75" type="curve"/>
      <point x="997.0" y="615.25"/>
      <point x="1052.0" y="769.0"/>
      <point x="1079.0" y="873.75" type="curve"/>
      <point x="971.25" y="856.0"/>
      <point x="746.75" y="846.5"/>
      <point x="525.75" y="846.5" type="curve" smooth="yes"/>
      <point x="350.75" y="846.5"/>
      <point x="183.75" y="852.25"/>
      <point x="113.5" y="860.75" type="curve"/>
      <point x="104.0" y="827.5"/>
      <point x="63.0" y="639.75"/>
      <point x="60.0" y="598.5" type="curve"/>
      <point x="189.25" y="579.75"/>
      <point x="433.25" y="565.75"/>
      <point x="633.5" y="565.75" type="curve" smooth="yes"/>
      <point x="786.75" y="565.75"/>
      <point x="912.0" y="573.75"/>
    </contour>
    <contour>
      <point x="816.75" y="1181.75" type="curve"/>
      <point x="790.5" y="1182.0"/>
      <point x="542.5" y="1172.0"/>
      <point x="508.0" y="1169.75" type="curve"/>
      <point x="496.25" y="1041.25"/>
      <point x="446.5" y="733.0"/>
      <point x="380.75" y="491.25" type="curve" smooth="yes"/>
      <point x="359.0" y="410.5"/>
      <point x="336.0" y="334.0"/>
      <point x="312.0" y="271.75" type="curve"/>
      <point x="346.5" y="268.0"/>
      <point x="541.5" y="261.25"/>
      <point x="579.0" y="262.0" type="curve"/>
      <point x="633.0" y="380.5"/>
      <point x="683.5" y="538.25"/>
      <point x="723.25" y="684.5" type="curve" smooth="yes"/>
      <point x="778.5" y="889.0"/>
      <point x="813.75" y="1087.0"/>
    </contour>
  </outline>
</glyph>
<glyph name="comma" format="2">
  <advance width="667.0"/>
  <unicode hex="002C"/>
  <outline>
    <contour>
      <point x="181.0" y="-309.0" type="curve"/>
      <point x="337.0" y="-215.5"/>
      <point x="457.0" y="-13.0"/>
      <point x="457.0" y="149.75" type="curve" smooth="yes"/>
      <point x="457.0" y="284.25"/>
      <point x="361.75" y="343.75"/>
      <point x="256.25" y="343.75" type="curve" smooth="yes"/>
      <point x="105.0" y="343.75"/>
      <point x="-17.0" y="261.0"/>
      <point x="-17.0" y="115.75" type="curve" smooth="yes"/>
      <point x="-17.0" y="41.75"/>
      <point x="19.25" y="-19.0"/>
      <point x="96.25" y="-19.0" type="curve" smooth="yes"/>
      <point x="150.0" y="-19.0"/>
      <point x="184.25" y="-1.5"/>
      <point x="202.5" y="19.0" type="curve"/>
      <point x="202.75" y="16.25"/>
      <point x="202.0" y="11.5"/>
      <point x="201.25" y="8.25" type="curve" smooth="yes"/>
      <point x="193.75" y="-33.25"/>
      <point x="82.25" y="-128.0"/>
      <point x="24.75" y="-155.75" type="curve"/>
      <point x="48.5" y="-236.75"/>
      <point x="158.0" y="-300.0"/>
    </contour>
  </outline>
</glyph>
<glyph name="hyphen" format="2">
  <advance width="915.75"/>
  <unicode hex="002D"/>
  <outline>
    <contour>
      <point x="944.0" y="815.5" type="curve"/>
      <point x="854.5" y="826.5"/>
      <point x="735.25" y="830.25"/>
      <point x="585.0" y="830.25" type="curve" smooth="yes"/>
      <point x="436.5" y="830.25"/>
      <point x="261.0" y="818.25"/>
      <point x="120.75" y="802.5" type="curve"/>
      <point x="101.25" y="761.0"/>
      <point x="44.25" y="595.75"/>
      <point x="25.75" y="521.75" type="curve"/>
      <point x="220.25" y="533.5"/>
      <point x="755.25" y="548.75"/>
      <point x="887.0" y="548.75" type="curve"/>
      <point x="906.5" y="621.5"/>
      <point x="935.5" y="732.75"/>
    </contour>
  </outline>
</glyph>
<glyph name="period" format="2">
  <advance width="632.0"/>
  <unicode hex="002E"/>
  <outline>
    <contour>
      <point x="246.25" y="357.0" type="curve" smooth="yes"/>
      <point x="113.75" y="357.0"/>
      <point x="-6.5" y="265.25"/>
      <point x="-6.5" y="122.25" type="curve" smooth="yes"/>
      <point x="-6.5" y="32.25"/>
      <point x="76.75" y="-38.0"/>
      <point x="175.25" y="-38.0" type="curve" smooth="yes"/>
      <point x="302.75" y="-38.0"/>
      <point x="414.0" y="52.5"/>
      <point x="414.0" y="200.25" type="curve" smooth="yes"/>
      <point x="414.0" y="287.0"/>
      <point x="341.75" y="357.0"/>
    </contour>
  </outline>
</glyph>
<glyph name="zero" format="2">
  <advance width="1087.0"/>
  <unicode hex="0030"/>
  <outline>
    <contour>
      <point x="407.75" y="-32.0" type="curve" smooth="yes"/>
      <point x="783.5" y="-32.0"/>
      <point x="1057.0" y="531.75"/>
      <point x="1057.0" y="974.25" type="curve" smooth="yes"/>
      <point x="1057.0" y="1198.5"/>
      <point x="965.75" y="1338.0"/>
      <point x="738.5" y="1338.0" type="curve" smooth="yes"/>
      <point x="352.5" y="1338.0"/>
      <point x="90.0" y="837.5"/>
      <point x="90.0" y="382.0" type="curve" smooth="yes"/>
      <point x="90.0" y="138.75"/>
      <point x="183.0" y="-32.0"/>
    </contour>
    <contour>
      <point x="470.5" y="269.25" type="curve" smooth="yes"/>
      <point x="411.5" y="269.25"/>
      <point x="374.75" y="317.25"/>
      <point x="374.75" y="437.0" type="curve" smooth="yes"/>
      <point x="374.75" y="642.0"/>
      <point x="518.5" y="1069.5"/>
      <point x="684.25" y="1069.5" type="curve" smooth="yes"/>
      <point x="752.25" y="1069.5"/>
      <point x="778.25" y="997.25"/>
      <point x="778.25" y="889.0" type="curve" smooth="yes"/>
      <point x="778.25" y="688.0"/>
      <point x="633.25" y="269.25"/>
    </contour>
  </outline>
</glyph>
<glyph name="one" format="2">
  <advance width="809.0"/>
  <unicode hex="0031"/>
  <outline>
    <contour>
      <point x="456.75" y="261.25" type="curve"/>
      <point x="503.25" y="392.0"/>
      <point x="549.75" y="536.75"/>
      <point x="582.75" y="662.0" type="curve" smooth="yes"/>
      <point x="671.25" y="995.75"/>
      <point x="729.0" y="1253.5"/>
      <point x="735.5" y="1299.25" type="curve"/>
      <point x="687.75" y="1307.75"/>
      <point x="575.0" y="1312.75"/>
      <point x="519.25" y="1312.75" type="curve"/>
      <point x="411.0" y="1239.0"/>
      <point x="203.5" y="1073.25"/>
      <point x="153.25" y="1032.25" type="curve"/>
      <point x="169.75" y="961.0"/>
      <point x="207.25" y="862.25"/>
      <point x="234.0" y="818.25" type="curve"/>
      <point x="256.0" y="837.75"/>
      <point x="378.25" y="938.25"/>
      <point x="413.75" y="962.75" type="curve"/>
      <point x="381.25" y="842.75"/>
      <point x="244.25" y="360.25"/>
      <point x="213.0" y="250.0" type="curve"/>
      <point x="176.5" y="247.0"/>
      <point x="54.75" y="234.5"/>
      <point x="9.25" y="225.25" type="curve"/>
      <point x="-11.75" y="179.5"/>
      <point x="-51.0" y="40.5"/>
      <point x="-57.0" y="-12.0" type="curve"/>
      <point x="18.0" y="-3.75"/>
      <point x="506.75" y="9.0"/>
      <point x="558.5" y="9.0" type="curve"/>
      <point x="579.5" y="54.5"/>
      <point x="629.0" y="211.25"/>
      <point x="639.0" y="248.5" type="curve"/>
      <point x="605.75" y="255.0"/>
      <point x="521.75" y="261.25"/>
    </contour>
  </outline>
</glyph>
<glyph name="two" format="2">
  <advance width="995.0"/>
  <unicode hex="0032"/>
  <outline>
    <contour>
      <point x="852.75" y="337.0" type="curve"/>
      <point x="768.25" y="332.75"/>
      <point x="502.0" y="307.0"/>
      <point x="423.5" y="297.0" type="curve"/>
      <point x="468.0" y="330.5"/>
      <point x="581.0" y="431.5"/>
      <point x="739.25" y="581.0" type="curve" smooth="yes"/>
      <point x="900.25" y="733.25"/>
      <point x="1053.75" y="955.5"/>
      <point x="1053.75" y="1140.0" type="curve" smooth="yes"/>
      <point x="1053.75" y="1277.75"/>
      <point x="941.75" y="1364.0"/>
      <point x="776.75" y="1364.0" type="curve" smooth="yes"/>
      <point x="564.0" y="1364.0"/>
      <point x="312.75" y="1219.5"/>
      <point x="177.0" y="1026.75" type="curve"/>
      <point x="213.5" y="986.5"/>
      <point x="326.75" y="902.75"/>
      <point x="376.5" y="868.5" type="curve"/>
      <point x="457.75" y="976.75"/>
      <point x="579.5" y="1074.0"/>
      <point x="680.75" y="1074.0" type="curve" smooth="yes"/>
      <point x="717.5" y="1074.0"/>
      <point x="747.5" y="1059.0"/>
      <point x="747.5" y="1023.0" type="curve" smooth="yes"/>
      <point x="747.5" y="922.25"/>
      <point x="531.75" y="713.5"/>
      <point x="401.0" y="592.0" type="curve" smooth="yes"/>
      <point x="232.0" y="435.75"/>
      <point x="96.75" y="325.75"/>
      <point x="13.75" y="263.75" type="curve"/>
      <point x="-4.5" y="170.0"/>
      <point x="-14.5" y="5.0"/>
      <point x="-15.5" y="-17.0" type="curve"/>
      <point x="794.25" y="27.0" type="line"/>
      <point x="805.25" y="64.0"/>
      <point x="851.5" y="241.5"/>
    </contour>
  </outline>
</glyph>
<glyph name="three" format="2">
  <advance width="1032.0"/>
  <unicode hex="0033"/>
  <outline>
    <contour>
      <point x="365.25" y="-3.0" type="curve" smooth="yes"/>
      <point x="689.75" y="-3.0"/>
      <point x="926.75" y="173.25"/>
      <point x="926.75" y="457.75" type="curve" smooth="yes"/>
      <point x="926.75" y="598.25"/>
      <point x="843.0" y="705.0"/>
      <point x="712.0" y="730.75" type="curve"/>
      <point x="873.75" y="772.5"/>
      <point x="1023.0" y="905.5"/>
      <point x="1023.0" y="1077.25" type="curve" smooth="yes"/>
      <point x="1023.0" y="1241.25"/>
      <point x="902.25" y="1335.0"/>
      <point x="725.25" y="1335.0" type="curve" smooth="yes"/>
      <point x="463.0" y="1335.0"/>
      <point x="271.75" y="1195.25"/>
      <point x="208.25" y="1132.75" type="curve"/>
      <point x="215.25" y="1118.75"/>
      <point x="282.25" y="1027.5"/>
      <point x="352.25" y="959.25" type="curve"/>
      <point x="406.75" y="1009.0"/>
      <point x="535.25" y="1082.0"/>
      <point x="632.25" y="1082.0" type="curve" smooth="yes"/>
      <point x="695.0" y="1082.0"/>
      <point x="718.5" y="1050.25"/>
      <point x="718.5" y="1007.0" type="curve" smooth="yes"/>
      <point x="718.5" y="872.25"/>
      <point x="497.0" y="787.0"/>
      <point x="343.75" y="787.0" type="curve"/>
      <point x="320.0" y="698.0"/>
      <point x="311.25" y="618.5"/>
      <point x="311.25" y="573.0" type="curve"/>
      <point x="521.0" y="573.0"/>
      <point x="638.25" y="529.25"/>
      <point x="638.25" y="422.25" type="curve" smooth="yes"/>
      <point x="638.25" y="314.25"/>
      <point x="538.75" y="237.5"/>
      <point x="417.5" y="237.5" type="curve" smooth="yes"/>
      <point x="316.25" y="237.5"/>
      <point x="279.5" y="292.5"/>
      <point x="271.25" y="369.0" type="curve"/>
      <point x="186.5" y="342.75"/>
      <point x="66.0" y="288.75"/>
      <point x="-7.75" y="243.25" type="curve"/>
      <point x="8.75" y="82.25"/>
      <point x="149.0" y="-3.0"/>
    </contour>
  </outline>
</glyph>
<glyph name="four" format="2">
  <advance width="1104.0"/>
  <unicode hex="0034"/>
  <outline>
    <contour>
      <point x="985.0" y="324.75" type="curve"/>
      <point x="1007.25" y="406.75"/>
      <point x="1034.5" y="554.5"/>
      <point x="1035.25" y="573.25" type="curve"/>
      <point x="1016.0" y="574.0"/>
      <point x="921.0" y="573.75"/>
      <point x="862.75" y="572.5" type="curve"/>
      <point x="943.75" y="865.75"/>
      <point x="1076.5" y="1289.25"/>
      <point x="1093.5" y="1341.75" type="curve"/>
      <point x="1025.0" y="1342.0"/>
      <point x="839.0" y="1330.75"/>
      <point x="796.75" y="1324.75" type="curve"/>
      <point x="716.5" y="1252.5"/>
      <point x="255.0" y="718.75"/>
      <point x="100.25" y="516.25" type="curve"/>
      <point x="91.25" y="437.0"/>
      <point x="84.5" y="339.25"/>
      <point x="84.0" y="264.5" type="curve"/>
      <point x="137.75" y="270.75"/>
      <point x="379.0" y="295.5"/>
      <point x="522.0" y="305.0" type="curve"/>
      <point x="478.5" y="181.0"/>
      <point x="439.5" y="63.5"/>
      <point x="419.75" y="-10.5" type="curve"/>
      <point x="470.0" y="-10.25"/>
      <point x="647.5" y="2.25"/>
      <point x="716.25" y="15.25" type="curve"/>
      <point x="728.0" y="69.0"/>
      <point x="753.5" y="171.5"/>
      <point x="793.5" y="321.75" type="curve"/>
      <point x="857.5" y="324.0"/>
      <point x="925.5" y="324.75"/>
    </contour>
    <contour>
      <point x="771.25" y="1000.5" type="curve"/>
      <point x="733.75" y="913.0"/>
      <point x="640.0" y="622.5"/>
      <point x="622.0" y="560.25" type="curve"/>
      <point x="555.75" y="559.25"/>
      <point x="415.5" y="543.0"/>
      <point x="386.75" y="538.75" type="curve"/>
      <point x="430.75" y="600.25"/>
      <point x="661.25" y="877.75"/>
    </contour>
  </outline>
</glyph>
<glyph name="five" format="2">
  <advance width="1137.0"/>
  <unicode hex="0035"/>
  <outline>
    <contour>
      <point x="-12.5" y="227.5" type="curve"/>
      <point x="58.0" y="65.0"/>
      <point x="269.75" y="2.25"/>
      <point x="448.75" y="2.25" type="curve" smooth="yes"/>
      <point x="799.25" y="2.25"/>
      <point x="1091.25" y="273.75"/>
      <point x="1091.25" y="617.5" type="curve" smooth="yes"/>
      <point x="1091.25" y="809.25"/>
      <point x="992.5" y="945.75"/>
      <point x="803.0" y="945.75" type="curve" smooth="yes"/>
      <point x="686.0" y="945.75"/>
      <point x="585.25" y="883.5"/>
      <point x="549.75" y="831.5" type="curve"/>
      <point x="561.0" y="875.5"/>
      <point x="582.0" y="972.25"/>
      <point x="593.75" y="1029.0" type="curve"/>
      <point x="693.25" y="1046.0"/>
      <point x="949.75" y="1073.75"/>
      <point x="1122.5" y="1080.5" type="curve"/>
      <point x="1123.75" y="1145.25"/>
      <point x="1124.75" y="1286.75"/>
      <point x="1121.0" y="1329.75" type="curve"/>
      <point x="937.25" y="1314.75"/>
      <point x="485.0" y="1245.25"/>
      <point x="321.5" y="1210.75" type="curve"/>
      <point x="294.0" y="1013.25"/>
      <point x="251.75" y="798.5"/>
      <point x="191.0" y="571.25" type="curve"/>
      <point x="215.0" y="570.25"/>
      <point x="285.25" y="568.75"/>
      <point x="318.0" y="568.75" type="curve" smooth="yes"/>
      <point x="386.75" y="568.75"/>
      <point x="429.75" y="572.75"/>
      <point x="466.0" y="577.75" type="curve"/>
      <point x="485.75" y="633.25"/>
      <point x="571.75" y="723.75"/>
      <point x="692.0" y="723.75" type="curve" smooth="yes"/>
      <point x="783.5" y="723.75"/>
      <point x="816.0" y="657.75"/>
      <point x="816.0" y="575.75" type="curve" smooth="yes"/>
      <point x="816.0" y="407.25"/>
      <point x="679.5" y="265.0"/>
      <point x="498.5" y="265.0" type="curve" smooth="yes"/>
      <point x="358.5" y="265.0"/>
      <point x="277.5" y="341.25"/>
      <point x="252.5" y="421.0" type="curve"/>
      <point x="204.75" y="397.25"/>
      <point x="48.5" y="294.0"/>
    </contour>
  </outline>
</glyph>
<glyph name="six" format="2">
  <advance width="1154.0"/>
  <unicode hex="0036"/>
  <outline>
    <contour>
      <point x="1071.25" y="1159.25" type="curve"/>
      <point x="1066.75" y="1231.75"/>
      <point x="1014.5" y="1358.75"/>
      <point x="982.0" y="1384.25" type="curve"/>
      <point x="504.75" y="1247.0"/>
      <point x="102.0" y="809.25"/>
      <point x="102.0" y="346.25" type="curve" smooth="yes"/>
      <point x="102.0" y="138.0"/>
      <point x="237.25" y="-9.0"/>
      <point x="475.0" y="-9.0" type="curve" smooth="yes"/>
      <point x="821.25" y="-9.0"/>
      <point x="1077.0" y="227.75"/>
      <point x="1077.0" y="546.75" type="curve" smooth="yes"/>
      <point x="1077.0" y="715.75"/>
      <point x="969.75" y="838.25"/>
      <point x="799.25" y="838.25" type="curve" smooth="yes"/>
      <point x="677.5" y="838.25"/>
      <point x="559.75" y="793.75"/>
      <point x="473.75" y="716.5" type="curve"/>
      <point x="590.5" y="898.5"/>
      <point x="855.25" y="1097.75"/>
    </contour>
    <contour>
      <point x="471.5" y="518.5" type="curve" smooth="yes"/>
      <point x="526.25" y="567.0"/>
      <point x="608.5" y="601.0"/>
      <point x="688.75" y="601.0" type="curve" smooth="yes"/>
      <point x="763.25" y="601.0"/>
      <point x="800.25" y="559.75"/>
      <point x="800.25" y="493.0" type="curve" smooth="yes"/>
      <point x="800.25" y="359.5"/>
      <point x="677.5" y="255.0"/>
      <point x="542.75" y="255.0" type="curve" smooth="yes"/>
      <point x="453.25" y="255.0"/>
      <point x="399.75" y="298.25"/>
      <point x="399.75" y="369.5" type="curve" smooth="yes"/>
      <point x="399.75" y="423.75"/>
      <point x="428.75" y="480.5"/>
    </contour>
  </outline>
</glyph>
<glyph name="seven" format="2">
  <advance width="1012.0"/>
  <unicode hex="0037"/>
  <outline>
    <contour>
      <point x="298.5" y="-39.25" type="curve"/>
      <point x="504.0" y="321.0"/>
      <point x="689.75" y="602.25"/>
      <point x="1156.5" y="1125.0" type="curve"/>
      <point x="1161.0" y="1154.0"/>
      <point x="1181.0" y="1343.5"/>
      <point x="1180.5" y="1374.5" type="curve"/>
      <point x="1007.75" y="1374.5"/>
      <point x="591.75" y="1314.25"/>
      <point x="297.75" y="1251.25" type="curve"/>
      <point x="281.25" y="1189.5"/>
      <point x="248.75" y="998.5"/>
      <point x="247.0" y="951.5" type="curve"/>
      <point x="299.5" y="966.75"/>
      <point x="553.75" y="1026.0"/>
      <point x="779.75" y="1060.0" type="curve"/>
      <point x="491.75" y="797.5"/>
      <point x="188.25" y="392.25"/>
      <point x="-16.75" y="68.25" type="curve"/>
      <point x="-0.75" y="60.75"/>
      <point x="206.75" y="-15.5"/>
    </contour>
  </outline>
</glyph>
<glyph name="eight" format="2">
  <advance width="1243.0"/>
  <unicode hex="0038"/>
  <outline>
    <contour>
      <point x="535.0" y="-10.5" type="curve" smooth="yes"/>
      <point x="840.25" y="-10.5"/>
      <point x="1123.0" y="170.75"/>
      <point x="1123.0" y="431.75" type="curve" smooth="yes"/>
      <point x="1123.0" y="580.0"/>
      <point x="1044.5" y="680.5"/>
      <point x="947.75" y="695.75" type="curve"/>
      <point x="1107.5" y="743.25"/>
      <point x="1231.0" y="909.75"/>
      <point x="1231.0" y="1088.25" type="curve" smooth="yes"/>
      <point x="1231.0" y="1279.75"/>
      <point x="1067.5" y="1374.25"/>
      <point x="844.0" y="1374.25" type="curve" smooth="yes"/>
      <point x="526.5" y="1374.25"/>
      <point x="267.75" y="1221.25"/>
      <point x="267.75" y="945.0" type="curve" smooth="yes"/>
      <point x="267.75" y="841.0"/>
      <point x="348.0" y="753.25"/>
      <point x="406.75" y="735.5" type="curve"/>
      <point x="225.25" y="678.0"/>
      <point x="59.25" y="505.0"/>
      <point x="59.25" y="296.25" type="curve" smooth="yes"/>
      <point x="59.25" y="91.25"/>
      <point x="238.5" y="-10.5"/>
    </contour>
    <contour>
      <point x="557.75" y="248.0" type="curve" smooth="yes"/>
      <point x="460.75" y="248.0"/>
      <point x="377.25" y="281.25"/>
      <point x="377.25" y="373.0" type="curve" smooth="yes"/>
      <point x="377.25" y="504.75"/>
      <point x="512.25" y="564.75"/>
      <point x="649.5" y="564.75" type="curve" smooth="yes"/>
      <point x="751.5" y="564.75"/>
      <point x="827.0" y="532.75"/>
      <point x="827.0" y="449.5" type="curve" smooth="yes"/>
      <point x="827.0" y="317.0"/>
      <point x="702.0" y="248.0"/>
    </contour>
    <contour>
      <point x="716.5" y="840.75" type="curve" smooth="yes"/>
      <point x="616.75" y="840.75"/>
      <point x="562.5" y="878.0"/>
      <point x="562.5" y="963.25" type="curve" smooth="yes"/>
      <point x="562.5" y="1080.75"/>
      <point x="669.5" y="1141.25"/>
      <point x="789.0" y="1141.25" type="curve" smooth="yes"/>
      <point x="883.25" y="1141.25"/>
      <point x="936.5" y="1107.5"/>
      <point x="936.5" y="1027.75" type="curve" smooth="yes"/>
      <point x="936.5" y="917.0"/>
      <point x="829.0" y="840.75"/>
    </contour>
  </outline>
</glyph>
<glyph name="nine" format="2">
  <advance width="1067.0"/>
  <unicode hex="0039"/>
  <outline>
    <contour>
      <point x="742.5" y="23.25" type="curve"/>
      <point x="883.75" y="274.75"/>
      <point x="1106.25" y="763.0"/>
      <point x="1106.25" y="1020.25" type="curve" smooth="yes"/>
      <point x="1106.25" y="1234.5"/>
      <point x="981.25" y="1364.0"/>
      <point x="732.75" y="1364.0" type="curve" smooth="yes"/>
      <point x="404.25" y="1364.0"/>
      <point x="134.75" y="1146.25"/>
      <point x="134.75" y="810.75" type="curve" smooth="yes"/>
      <point x="134.75" y="610.75"/>
      <point x="236.0" y="484.75"/>
      <point x="458.5" y="484.75" type="curve" smooth="yes"/>
      <point x="580.25" y="484.75"/>
      <point x="667.75" y="526.75"/>
      <point x="704.75" y="568.75" type="curve"/>
      <point x="627.5" y="329.75"/>
      <point x="430.75" y="52.25"/>
      <point x="382.75" y="-0.5" type="curve"/>
      <point x="522.0" y="-0.5"/>
      <point x="668.75" y="9.0"/>
    </contour>
    <contour>
      <point x="693.5" y="1134.75" type="curve" smooth="yes"/>
      <point x="776.0" y="1134.75"/>
      <point x="822.75" y="1091.75"/>
      <point x="822.75" y="1019.75" type="curve" smooth="yes"/>
      <point x="822.75" y="873.75"/>
      <point x="714.75" y="749.75"/>
      <point x="560.0" y="749.75" type="curve" smooth="yes"/>
      <point x="476.0" y="749.75"/>
      <point x="431.5" y="803.25"/>
      <point x="431.5" y="880.25" type="curve" smooth="yes"/>
      <point x="431.5" y="1029.75"/>
      <point x="544.0" y="1134.75"/>
    </contour>
  </outline>
</glyph>
<glyph name="colon" format="2">
  <advance width="564.0"/>
  <unicode hex="003A"/>
  <outline>
    <contour>
      <point x="162.75" y="-9.75" type="curve" smooth="yes"/>
      <point x="269.75" y="-9.75"/>
      <point x="357.25" y="65.25"/>
      <point x="357.25" y="173.25" type="curve" smooth="yes"/>
      <point x="357.25" y="287.0"/>
      <point x="277.25" y="377.75"/>
      <point x="160.75" y="377.75" type="curve" smooth="yes"/>
      <point x="49.25" y="377.75"/>
      <point x="-41.0" y="280.0"/>
      <point x="-41.0" y="172.0" type="curve" smooth="yes"/>
      <point x="-41.0" y="72.5"/>
      <point x="50.0" y="-9.75"/>
    </contour>
    <component base="period" xOffset="136.0" yOffset="673.25"/>
  </outline>
</glyph>
<glyph name="semicolon" format="2">
  <advance width="593.0"/>
  <unicode hex="003B"/>
  <outline>
    <contour>
      <point x="402.75" y="1022.5" type="curve" smooth="yes"/>
      <point x="270.25" y="1022.5"/>
      <point x="150.0" y="930.75"/>
      <point x="150.0" y="787.75" type="curve" smooth="yes"/>
      <point x="150.0" y="697.75"/>
      <point x="233.25" y="627.5"/>
      <point x="331.75" y="627.5" type="curve" smooth="yes"/>
      <point x="459.25" y="627.5"/>
      <point x="570.5" y="718.0"/>
      <point x="570.5" y="865.75" type="curve" smooth="yes"/>
      <point x="570.5" y="952.5"/>
      <point x="498.25" y="1022.5"/>
    </contour>
    <contour>
      <point x="118.75" y="-321.75" type="curve"/>
      <point x="266.75" y="-232.5"/>
      <point x="382.0" y="-39.0"/>
      <point x="382.0" y="115.75" type="curve" smooth="yes"/>
      <point x="382.0" y="243.0"/>
      <point x="291.0" y="299.75"/>
      <point x="190.5" y="299.75" type="curve" smooth="yes"/>
      <point x="47.25" y="299.75"/>
      <point x="-68.25" y="220.5"/>
      <point x="-68.25" y="83.25" type="curve" smooth="yes"/>
      <point x="-68.25" y="12.75"/>
      <point x="-34.25" y="-45.0"/>
      <point x="39.25" y="-45.0" type="curve" smooth="yes"/>
      <point x="91.75" y="-45.0"/>
      <point x="124.75" y="-27.5"/>
      <point x="141.5" y="-7.5" type="curve"/>
      <point x="141.75" y="-10.25"/>
      <point x="141.0" y="-14.25"/>
      <point x="140.25" y="-17.5" type="curve" smooth="yes"/>
      <point x="133.5" y="-57.75"/>
      <point x="26.75" y="-150.25"/>
      <point x="-28.75" y="-177.25" type="curve"/>
      <point x="-6.5" y="-253.25"/>
      <point x="96.5" y="-312.75"/>
    </contour>
  </outline>
</glyph>
<glyph name="less" format="2">
  <advance width="807.0"/>
  <unicode hex="003C"/>
  <outline>
    <contour>
      <point x="784.25" y="1134.75" type="curve"/>
      <point x="687.0" y="1087.75"/>
      <point x="332.75" y="825.5"/>
      <point x="100.75" y="640.5" type="curve"/>
      <point x="34.75" y="409.25" type="line"/>
      <point x="235.5" y="341.5"/>
      <point x="424.0" y="255.0"/>
      <point x="599.5" y="169.0" type="curve"/>
      <point x="638.25" y="236.75"/>
      <point x="689.75" y="346.0"/>
      <point x="708.25" y="411.25" type="curve"/>
      <point x="651.75" y="452.25"/>
      <point x="347.75" y="573.75"/>
      <point x="256.0" y="606.25" type="curve"/>
      <point x="291.5" y="527.75" type="line"/>
      <point x="519.25" y="684.75"/>
      <point x="693.75" y="798.5"/>
      <point x="926.0" y="945.5" type="curve"/>
      <point x="921.75" y="1003.5"/>
      <point x="840.75" y="1095.25"/>
    </contour>
  </outline>
</glyph>
<glyph name="equal" format="2">
  <advance width="1050.0"/>
  <unicode hex="003D"/>
  <outline>
    <contour>
      <point x="230.75" y="1077.75" type="curve"/>
      <point x="205.75" y="1046.25"/>
      <point x="152.0" y="886.25"/>
      <point x="137.0" y="832.0" type="curve"/>
      <point x="303.0" y="837.25"/>
      <point x="926.0" y="851.25"/>
      <point x="1108.5" y="853.5" type="curve"/>
      <point x="1117.25" y="888.0"/>
      <point x="1158.0" y="1102.25"/>
      <point x="1162.25" y="1143.0" type="curve"/>
      <point x="927.25" y="1143.0"/>
      <point x="382.5" y="1106.75"/>
    </contour>
    <contour>
      <point x="58.75" y="648.0" type="curve"/>
      <point x="42.75" y="593.0"/>
      <point x="5.75" y="441.5"/>
      <point x="4.5" y="409.75" type="curve"/>
      <point x="198.0" y="408.25"/>
      <point x="843.0" y="402.5"/>
      <point x="992.25" y="402.5" type="curve"/>
      <point x="1002.0" y="437.0"/>
      <point x="1039.75" y="632.75"/>
      <point x="1043.25" y="673.75" type="curve"/>
      <point x="974.25" y="678.0"/>
      <point x="881.25" y="680.5"/>
      <point x="778.75" y="680.5" type="curve" smooth="yes"/>
      <point x="552.25" y="680.5"/>
      <point x="272.5" y="668.25"/>
    </contour>
  </outline>
</glyph>
<glyph name="greater" format="2">
  <advance width="790.0"/>
  <unicode hex="003E"/>
  <outline>
    <contour>
      <point x="185.25" y="966.5" type="curve"/>
      <point x="291.5" y="890.25"/>
      <point x="525.25" y="712.75"/>
      <point x="593.5" y="655.5" type="curve"/>
      <point x="605.0" y="756.25" type="line"/>
      <point x="419.0" y="655.25"/>
      <point x="33.75" y="437.75"/>
      <point x="-0.5" y="418.5" type="curve"/>
      <point x="-0.5" y="368.75"/>
      <point x="41.0" y="241.5"/>
      <point x="56.0" y="200.25" type="curve"/>
      <point x="98.0" y="210.25"/>
      <point x="476.25" y="378.75"/>
      <point x="774.5" y="522.0" type="curve"/>
      <point x="841.75" y="797.0" type="line"/>
      <point x="683.0" y="935.0"/>
      <point x="455.75" y="1120.5"/>
      <point x="406.0" y="1134.5" type="curve"/>
      <point x="344.25" y="1105.75"/>
      <point x="243.5" y="1022.25"/>
    </contour>
  </outline>
</glyph>
<glyph name="question" format="2">
  <advance width="1036.0"/>
  <unicode hex="003F"/>
  <outline>
    <contour>
      <point x="660.5" y="445.25" type="curve"/>
      <point x="703.25" y="599.25"/>
      <point x="805.75" y="708.5"/>
      <point x="906.5" y="778.0" type="curve" smooth="yes"/>
      <point x="1061.5" y="885.0"/>
      <point x="1166.75" y="991.5"/>
      <point x="1166.75" y="1188.75" type="curve" smooth="yes"/>
      <point x="1166.75" y="1382.25"/>
      <point x="1009.25" y="1472.0"/>
      <point x="777.0" y="1472.0" type="curve" smooth="yes"/>
      <point x="532.75" y="1472.0"/>
      <point x="313.75" y="1354.75"/>
      <point x="178.25" y="1122.25" type="curve"/>
      <point x="401.0" y="977.5" type="line"/>
      <point x="498.25" y="1107.75"/>
      <point x="582.0" y="1193.75"/>
      <point x="715.5" y="1193.75" type="curve" smooth="yes"/>
      <point x="786.75" y="1193.75"/>
      <point x="826.5" y="1165.25"/>
      <point x="826.5" y="1110.25" type="curve" smooth="yes"/>
      <point x="826.5" y="1030.25"/>
      <point x="749.75" y="961.75"/>
      <point x="643.0" y="892.25" type="curve" smooth="yes"/>
      <point x="475.0" y="781.5"/>
      <point x="381.5" y="640.0"/>
      <point x="334.25" y="462.0" type="curve"/>
      <point x="443.5" y="450.25"/>
      <point x="524.0" y="445.25"/>
    </contour>
    <contour>
      <point x="402.75" y="-10.0" type="curve" smooth="yes"/>
      <point x="526.75" y="-10.0"/>
      <point x="653.5" y="85.5"/>
      <point x="653.5" y="207.0" type="curve" smooth="yes"/>
      <point x="653.5" y="292.25"/>
      <point x="585.0" y="351.5"/>
      <point x="477.0" y="351.5" type="curve" smooth="yes"/>
      <point x="360.0" y="351.5"/>
      <point x="233.0" y="270.75"/>
      <point x="233.0" y="142.75" type="curve" smooth="yes"/>
      <point x="233.0" y="47.0"/>
      <point x="304.25" y="-10.0"/>
    </contour>
  </outline>
</glyph>
<glyph name="at" format="2">
  <advance width="1920.0"/>
  <unicode hex="0040"/>
  <outline>
    <contour>
      <point x="753.0" y="-41.0" type="curve" smooth="yes"/>
      <point x="1043.5" y="-41.0"/>
      <point x="1275.0" y="43.0"/>
      <point x="1393.5" y="178.0" type="curve"/>
      <point x="1220.25" y="332.5" type="line"/>
      <point x="1140.5" y="254.5"/>
      <point x="1003.25" y="184.0"/>
      <point x="812.25" y="184.0" type="curve" smooth="yes"/>
      <point x="546.25" y="184.0"/>
      <point x="363.75" y="321.5"/>
      <point x="363.75" y="577.25" type="curve" smooth="yes"/>
      <point x="363.75" y="1007.5"/>
      <point x="794.25" y="1264.5"/>
      <point x="1240.0" y="1264.5" type="curve" smooth="yes"/>
      <point x="1527.75" y="1264.5"/>
      <point x="1671.25" y="1139.75"/>
      <point x="1671.25" y="889.75" type="curve" smooth="yes"/>
      <point x="1671.25" y="750.25"/>
      <point x="1617.75" y="572.25"/>
      <point x="1513.0" y="572.25" type="curve" smooth="yes"/>
      <point x="1464.5" y="572.25"/>
      <point x="1444.0" y="593.0"/>
      <point x="1444.0" y="660.5" type="curve" smooth="yes"/>
      <point x="1444.0" y="689.25"/>
      <point x="1459.0" y="931.5"/>
      <point x="1475.0" y="1117.75" type="curve"/>
      <point x="1423.75" y="1115.25"/>
      <point x="1309.5" y="1110.75"/>
      <point x="1268.75" y="1110.0" type="curve"/>
      <point x="1265.25" y="1093.5"/>
      <point x="1259.25" y="1055.0"/>
      <point x="1257.75" y="1032.0" type="curve"/>
      <point x="1225.5" y="1065.0"/>
      <point x="1157.25" y="1089.25"/>
      <point x="1062.0" y="1089.25" type="curve" smooth="yes"/>
      <point x="807.25" y="1089.25"/>
      <point x="573.75" y="878.25"/>
      <point x="573.75" y="618.75" type="curve" smooth="yes"/>
      <point x="573.75" y="455.0"/>
      <point x="677.5" y="351.5"/>
      <point x="872.0" y="351.5" type="curve" smooth="yes"/>
      <point x="1017.5" y="351.5"/>
      <point x="1165.5" y="403.25"/>
      <point x="1242.0" y="504.0" type="curve"/>
      <point x="1250.5" y="406.25"/>
      <point x="1346.25" y="345.0"/>
      <point x="1467.25" y="345.0" type="curve" smooth="yes"/>
      <point x="1756.5" y="345.0"/>
      <point x="1931.25" y="610.5"/>
      <point x="1931.25" y="930.25" type="curve" smooth="yes"/>
      <point x="1931.25" y="1297.0"/>
      <point x="1673.0" y="1497.0"/>
      <point x="1252.0" y="1497.0" type="curve" smooth="yes"/>
      <point x="634.5" y="1497.0"/>
      <point x="75.0" y="1100.75"/>
      <point x="75.0" y="522.25" type="curve" smooth="yes"/>
      <point x="75.0" y="171.75"/>
      <point x="351.25" y="-41.0"/>
    </contour>
    <contour>
      <point x="973.25" y="584.0" type="curve" smooth="yes"/>
      <point x="906.5" y="584.0"/>
      <point x="850.0" y="619.5"/>
      <point x="850.0" y="683.75" type="curve" smooth="yes"/>
      <point x="850.0" y="783.0"/>
      <point x="933.0" y="868.75"/>
      <point x="1085.5" y="868.75" type="curve" smooth="yes"/>
      <point x="1157.25" y="868.75"/>
      <point x="1208.0" y="852.25"/>
      <point x="1235.25" y="833.25" type="curve"/>
      <point x="1227.0" y="703.0" type="line"/>
      <point x="1163.75" y="635.25"/>
      <point x="1076.5" y="584.0"/>
    </contour>
  </outline>
</glyph>
<glyph name="A" format="2">
  <advance width="1156.75"/>
  <unicode hex="0041"/>
  <anchor x="487.5" y="0.0" name="bottom"/>
  <anchor x="837.5" y="3.75" name="ogonek"/>
  <anchor x="877.5" y="1333.5" name="top"/>
  <outline>
    <contour>
      <point x="243.25" y="-15.0" type="curve"/>
      <point x="274.5" y="65.5"/>
      <point x="340.0" y="213.0"/>
      <point x="407.5" y="349.5" type="curve"/>
      <point x="447.5" y="357.5"/>
      <point x="614.5" y="370.0"/>
      <point x="720.75" y="371.5" type="curve"/>
      <point x="691.75" y="260.0"/>
      <point x="650.25" y="80.0"/>
      <point x="632.25" y="-15.0" type="curve"/>
      <point x="734.75" y="-15.0"/>
      <point x="907.75" y="-6.0"/>
      <point x="977.25" y="4.0" type="curve"/>
      <point x="1119.0" y="742.5"/>
      <point x="1157.0" y="1089.0"/>
      <point x="1167.25" y="1323.0" type="curve"/>
      <point x="1100.5" y="1331.5"/>
      <point x="1031.5" y="1335.75"/>
      <point x="961.25" y="1335.75" type="curve" smooth="yes"/>
      <point x="836.25" y="1335.75"/>
      <point x="699.0" y="1323.0"/>
      <point x="559.5" y="1305.5" type="curve"/>
      <point x="366.75" y="954.0"/>
      <point x="13.25" y="244.5"/>
      <point x="-95.75" y="-3.25" type="curve"/>
      <point x="-13.0" y="-8.25"/>
      <point x="177.75" y="-15.0"/>
    </contour>
    <contour>
      <point x="523.5" y="627.75" type="curve"/>
      <point x="579.75" y="754.25"/>
      <point x="682.0" y="976.5"/>
      <point x="719.25" y="1054.0" type="curve"/>
      <point x="743.5" y="1057.0"/>
      <point x="841.0" y="1064.0"/>
      <point x="874.5" y="1064.0" type="curve"/>
      <point x="866.25" y="1006.0"/>
      <point x="799.5" y="705.0"/>
      <point x="787.5" y="647.5" type="curve"/>
      <point x="720.75" y="646.0"/>
      <point x="570.75" y="636.0"/>
    </contour>
  </outline>
</glyph>
<glyph name="B" format="2">
  <advance width="1174.0"/>
  <unicode hex="0042"/>
  <anchor x="444.585" y="0.0" name="bottom"/>
  <anchor x="790.507" y="1291.0" name="top"/>
  <outline>
    <contour>
      <point x="-23.25" y="23.25" type="curve"/>
      <point x="37.25" y="9.0"/>
      <point x="134.5" y="2.5"/>
      <point x="234.25" y="2.5" type="curve" smooth="yes"/>
      <point x="671.75" y="2.5"/>
      <point x="1078.5" y="120.0"/>
      <point x="1078.5" y="473.5" type="curve" smooth="yes"/>
      <point x="1078.5" y="616.5"/>
      <point x="985.5" y="709.25"/>
      <point x="841.75" y="718.25" type="curve" smooth="yes"/>
      <point x="830.75" y="719.0"/>
      <point x="825.25" y="719.0"/>
      <point x="819.0" y="719.0" type="curve"/>
      <point x="981.5" y="747.5"/>
      <point x="1137.0" y="887.0"/>
      <point x="1137.0" y="1062.0" type="curve" smooth="yes"/>
      <point x="1137.0" y="1232.5"/>
      <point x="1003.25" y="1306.0"/>
      <point x="803.75" y="1306.0" type="curve" smooth="yes"/>
      <point x="642.25" y="1306.0"/>
      <point x="444.0" y="1293.25"/>
      <point x="340.25" y="1285.0" type="curve"/>
      <point x="331.25" y="1252.75"/>
      <point x="25.5" y="205.0"/>
    </contour>
    <contour>
      <point x="380.0" y="299.75" type="curve"/>
      <point x="444.25" y="559.75" type="line"/>
      <point x="490.75" y="564.75"/>
      <point x="555.75" y="566.75"/>
      <point x="589.75" y="566.75" type="curve" smooth="yes"/>
      <point x="730.0" y="566.75"/>
      <point x="780.5" y="535.25"/>
      <point x="780.5" y="472.5" type="curve" smooth="yes"/>
      <point x="780.5" y="328.5"/>
      <point x="583.75" y="299.0"/>
      <point x="430.0" y="299.0" type="curve" smooth="yes"/>
      <point x="409.0" y="299.0"/>
      <point x="390.75" y="299.0"/>
    </contour>
    <contour>
      <point x="507.75" y="812.75" type="curve"/>
      <point x="570.0" y="1064.25" type="line"/>
      <point x="613.25" y="1069.75"/>
      <point x="680.0" y="1077.5"/>
      <point x="729.0" y="1077.5" type="curve" smooth="yes"/>
      <point x="801.0" y="1077.5"/>
      <point x="848.25" y="1049.25"/>
      <point x="848.25" y="983.5" type="curve" smooth="yes"/>
      <point x="848.25" y="888.0"/>
      <point x="743.75" y="842.0"/>
      <point x="652.5" y="827.0" type="curve" smooth="yes"/>
      <point x="618.25" y="815.75"/>
      <point x="578.5" y="813.25"/>
    </contour>
  </outline>
</glyph>
<glyph name="C" format="2">
  <advance width="1137.0"/>
  <unicode hex="0043"/>
  <anchor x="419.18874999999997" y="0.0" name="bottom"/>
  <anchor x="765.1302499999999" y="1291.0" name="top"/>
  <outline>
    <contour>
      <point x="1033.0" y="211.0" type="curve"/>
      <point x="1009.0" y="283.25"/>
      <point x="924.75" y="408.5"/>
      <point x="866.5" y="458.75" type="curve"/>
      <point x="777.5" y="379.75"/>
      <point x="670.0" y="310.5"/>
      <point x="561.75" y="310.5" type="curve" smooth="yes"/>
      <point x="452.75" y="310.5"/>
      <point x="408.0" y="404.75"/>
      <point x="408.0" y="543.5" type="curve" smooth="yes"/>
      <point x="408.0" y="774.0"/>
      <point x="548.5" y="1046.75"/>
      <point x="756.25" y="1046.75" type="curve" smooth="yes"/>
      <point x="904.25" y="1046.75"/>
      <point x="941.5" y="913.0"/>
      <point x="944.25" y="885.0" type="curve"/>
      <point x="1020.5" y="926.0"/>
      <point x="1157.75" y="1016.0"/>
      <point x="1228.0" y="1075.75" type="curve"/>
      <point x="1176.75" y="1242.0"/>
      <point x="994.0" y="1326.0"/>
      <point x="796.5" y="1326.0" type="curve" smooth="yes"/>
      <point x="369.5" y="1326.0"/>
      <point x="52.75" y="923.0"/>
      <point x="52.75" y="470.5" type="curve" smooth="yes"/>
      <point x="52.75" y="203.75"/>
      <point x="205.75" y="-12.25"/>
      <point x="505.75" y="-12.25" type="curve" smooth="yes"/>
      <point x="723.0" y="-12.25"/>
      <point x="901.0" y="86.5"/>
    </contour>
  </outline>
</glyph>
<glyph name="D" format="2">
  <advance width="1198.0"/>
  <unicode hex="0044"/>
  <anchor x="456.585" y="0.0" name="bottom"/>
  <anchor x="369.25" y="646.0" name="center"/>
  <anchor x="716.0" y="1291.0" name="top"/>
  <outline>
    <contour>
      <point x="39.75" y="-32.25" type="curve"/>
      <point x="812.75" y="-26.5"/>
      <point x="1173.25" y="202.5"/>
      <point x="1173.25" y="824.75" type="curve" smooth="yes"/>
      <point x="1173.25" y="1115.75"/>
      <point x="1037.25" y="1325.0"/>
      <point x="642.5" y="1325.0" type="curve" smooth="yes"/>
      <point x="513.75" y="1325.0"/>
      <point x="366.75" y="1309.5"/>
      <point x="287.25" y="1299.0" type="curve"/>
      <point x="263.75" y="1181.0"/>
      <point x="72.75" y="188.25"/>
    </contour>
    <contour>
      <point x="427.25" y="299.0" type="curve"/>
      <point x="476.75" y="530.5"/>
      <point x="526.75" y="796.0"/>
      <point x="573.75" y="1045.75" type="curve"/>
      <point x="594.75" y="1047.25"/>
      <point x="634.75" y="1048.25"/>
      <point x="659.5" y="1048.25" type="curve" smooth="yes"/>
      <point x="802.5" y="1048.25"/>
      <point x="845.75" y="943.0"/>
      <point x="845.75" y="801.75" type="curve" smooth="yes"/>
      <point x="845.75" y="533.25"/>
      <point x="728.25" y="309.0"/>
    </contour>
  </outline>
</glyph>
<glyph name="E" format="2">
  <advance width="957.0"/>
  <unicode hex="0045"/>
  <anchor x="336.89625" y="0.0" name="bottom"/>
  <anchor x="594.5" y="0.0" name="ogonek"/>
  <anchor x="683.0" y="1318.5" name="top"/>
  <anchor x="223.87675000000002" y="1291.0" name="topleft"/>
  <outline>
    <contour>
      <point x="687.0" y="-13.5" type="curve"/>
      <point x="706.0" y="18.75"/>
      <point x="778.5" y="210.0"/>
      <point x="808.0" y="316.75" type="curve"/>
      <point x="753.25" y="321.25"/>
      <point x="648.75" y="327.5"/>
      <point x="547.5" y="327.5" type="curve" smooth="yes"/>
      <point x="468.25" y="327.5"/>
      <point x="378.25" y="327.25"/>
      <point x="360.5" y="326.75" type="curve"/>
      <point x="374.75" y="379.75"/>
      <point x="424.25" y="556.5"/>
      <point x="434.75" y="590.25" type="curve"/>
      <point x="482.5" y="591.0"/>
      <point x="692.75" y="580.75"/>
      <point x="738.25" y="578.5" type="curve"/>
      <point x="810.25" y="838.0" type="line"/>
      <point x="722.0" y="836.5"/>
      <point x="584.0" y="831.25"/>
      <point x="506.25" y="830.5" type="curve"/>
      <point x="515.75" y="866.0"/>
      <point x="551.75" y="998.0"/>
      <point x="564.75" y="1032.75" type="curve"/>
      <point x="1001.5" y="1067.75" type="line"/>
      <point x="1034.75" y="1160.0"/>
      <point x="1062.25" y="1240.5"/>
      <point x="1085.5" y="1327.0" type="curve"/>
      <point x="1030.5" y="1327.0"/>
      <point x="705.5" y="1320.75"/>
      <point x="310.0" y="1251.0" type="curve"/>
      <point x="280.5" y="1159.5"/>
      <point x="215.75" y="945.25"/>
      <point x="135.75" y="647.5" type="curve" smooth="yes"/>
      <point x="86.0" y="461.75"/>
      <point x="32.75" y="248.75"/>
      <point x="-19.0" y="23.75" type="curve"/>
      <point x="87.0" y="18.25"/>
      <point x="198.25" y="12.5"/>
      <point x="304.0" y="7.25" type="curve" smooth="yes"/>
      <point x="434.0" y="2.0"/>
      <point x="558.5" y="-5.25"/>
    </contour>
  </outline>
</glyph>
<glyph name="F" format="2">
  <advance width="949.0"/>
  <unicode hex="0046"/>
  <anchor x="317.89625" y="0.0" name="bottom"/>
  <anchor x="663.87675" y="1291.0" name="top"/>
  <outline>
    <contour>
      <point x="350.5" y="-6.5" type="line"/>
      <point x="395.75" y="163.25"/>
      <point x="438.75" y="386.75"/>
      <point x="468.75" y="552.25" type="curve"/>
      <point x="578.25" y="552.25"/>
      <point x="713.75" y="541.5"/>
      <point x="797.5" y="532.0" type="curve"/>
      <point x="830.0" y="618.0"/>
      <point x="857.0" y="711.25"/>
      <point x="874.25" y="789.5" type="curve"/>
      <point x="824.5" y="799.0"/>
      <point x="655.75" y="817.25"/>
      <point x="517.25" y="817.25" type="curve"/>
      <point x="531.25" y="883.75"/>
      <point x="550.5" y="978.0"/>
      <point x="558.25" y="1026.75" type="curve"/>
      <point x="754.5" y="1026.75"/>
      <point x="942.5" y="1012.25"/>
      <point x="1017.0" y="1005.25" type="curve"/>
      <point x="1036.25" y="1076.25"/>
      <point x="1060.5" y="1185.75"/>
      <point x="1078.25" y="1280.0" type="curve"/>
      <point x="994.0" y="1297.25"/>
      <point x="874.5" y="1310.25"/>
      <point x="724.25" y="1311.25" type="curve" smooth="yes"/>
      <point x="602.5" y="1312.0"/>
      <point x="461.75" y="1310.75"/>
      <point x="314.25" y="1302.5" type="curve"/>
      <point x="222.75" y="886.75"/>
      <point x="119.5" y="438.75"/>
      <point x="12.0" y="9.75" type="curve"/>
    </contour>
  </outline>
</glyph>
<glyph name="G" format="2">
  <advance width="1275.0"/>
  <unicode hex="0047"/>
  <anchor x="495.585" y="0.0" name="bottom"/>
  <anchor x="841.507" y="1291.0" name="top"/>
  <outline>
    <contour>
      <point x="599.25" y="-48.0" type="curve" smooth="yes"/>
      <point x="940.5" y="-48.0"/>
      <point x="1134.0" y="196.25"/>
      <point x="1211.75" y="486.75" type="curve" smooth="yes"/>
      <point x="1225.25" y="537.75"/>
      <point x="1236.5" y="605.75"/>
      <point x="1239.0" y="654.5" type="curve"/>
      <point x="1101.0" y="692.75"/>
      <point x="842.75" y="725.25"/>
      <point x="702.75" y="727.75" type="curve"/>
      <point x="681.5" y="674.0"/>
      <point x="645.25" y="553.5"/>
      <point x="631.25" y="498.75" type="curve"/>
      <point x="697.75" y="496.75"/>
      <point x="856.75" y="475.75"/>
      <point x="899.75" y="464.25" type="curve"/>
      <point x="897.5" y="451.0"/>
      <point x="894.5" y="435.25"/>
      <point x="890.25" y="417.5" type="curve" smooth="yes"/>
      <point x="864.25" y="318.75"/>
      <point x="771.5" y="233.25"/>
      <point x="645.0" y="233.25" type="curve" smooth="yes"/>
      <point x="488.5" y="233.25"/>
      <point x="432.5" y="326.75"/>
      <point x="432.5" y="473.25" type="curve" smooth="yes"/>
      <point x="432.5" y="734.25"/>
      <point x="578.0" y="1030.0"/>
      <point x="811.25" y="1030.0" type="curve" smooth="yes"/>
      <point x="933.75" y="1030.0"/>
      <point x="986.0" y="970.5"/>
      <point x="1013.5" y="903.75" type="curve"/>
      <point x="1122.0" y="960.75"/>
      <point x="1265.25" y="1070.75"/>
      <point x="1313.0" y="1113.75" type="curve"/>
      <point x="1255.25" y="1251.0"/>
      <point x="1063.75" y="1338.0"/>
      <point x="862.75" y="1338.0" type="curve" smooth="yes"/>
      <point x="403.0" y="1338.0"/>
      <point x="111.0" y="914.0"/>
      <point x="111.0" y="436.75" type="curve" smooth="yes"/>
      <point x="111.0" y="131.25"/>
      <point x="282.75" y="-48.0"/>
    </contour>
  </outline>
</glyph>
<glyph name="H" format="2">
  <advance width="1094.0"/>
  <unicode hex="0048"/>
  <anchor x="419.68874999999997" y="0.0" name="bottom"/>
  <anchor x="713.5" y="1063.0" name="center"/>
  <anchor x="743.1302499999999" y="1291.0" name="top"/>
  <anchor x="223.507" y="1291.0" name="topleft"/>
  <outline>
    <contour>
      <point x="4.0" y="3.25" type="curve"/>
      <point x="71.75" y="3.25"/>
      <point x="261.0" y="9.5"/>
      <point x="325.75" y="17.5" type="curve"/>
      <point x="332.5" y="46.0"/>
      <point x="397.5" y="332.0"/>
      <point x="438.0" y="511.25" type="curve"/>
      <point x="499.75" y="511.25"/>
      <point x="619.25" y="513.75"/>
      <point x="688.5" y="515.75" type="curve"/>
      <point x="644.0" y="364.75"/>
      <point x="600.25" y="203.0"/>
      <point x="551.0" y="1.0" type="curve"/>
      <point x="663.25" y="1.0"/>
      <point x="798.0" y="5.0"/>
      <point x="844.5" y="9.5" type="curve"/>
      <point x="873.25" y="117.5"/>
      <point x="932.5" y="325.5"/>
      <point x="997.75" y="540.5" type="curve" smooth="yes"/>
      <point x="1090.0" y="849.5"/>
      <point x="1202.0" y="1204.5"/>
      <point x="1241.75" y="1299.0" type="curve"/>
      <point x="1203.75" y="1303.75"/>
      <point x="1115.25" y="1308.0"/>
      <point x="1032.0" y="1308.0" type="curve" smooth="yes"/>
      <point x="990.0" y="1308.0"/>
      <point x="941.75" y="1305.75"/>
      <point x="917.5" y="1304.0" type="curve"/>
      <point x="869.75" y="1144.5"/>
      <point x="808.5" y="939.0"/>
      <point x="765.0" y="795.25" type="curve"/>
      <point x="704.5" y="794.5"/>
      <point x="573.75" y="789.0"/>
      <point x="498.5" y="781.0" type="curve"/>
      <point x="509.0" y="823.5"/>
      <point x="538.25" y="947.25"/>
      <point x="563.0" y="1048.25" type="curve" smooth="yes"/>
      <point x="582.25" y="1127.0"/>
      <point x="607.5" y="1232.0"/>
      <point x="620.25" y="1295.0" type="curve"/>
      <point x="540.5" y="1295.0"/>
      <point x="338.25" y="1285.0"/>
      <point x="311.75" y="1282.0" type="curve"/>
      <point x="294.25" y="1230.75"/>
      <point x="271.5" y="1153.75"/>
      <point x="247.25" y="1061.0" type="curve" smooth="yes"/>
      <point x="155.75" y="711.0"/>
      <point x="25.5" y="147.5"/>
    </contour>
  </outline>
</glyph>
<glyph name="I" format="2">
  <advance width="562.75"/>
  <unicode hex="0049"/>
  <anchor x="135.75" y="0.0" name="bottom"/>
  <anchor x="276.0" y="-18.0" name="ogonek"/>
  <anchor x="481.75" y="1291.0" name="top"/>
  <anchor x="234.5" y="1291.0" name="topleft"/>
  <outline>
    <contour>
      <point x="276.0" y="-18.0" type="curve"/>
      <point x="318.0" y="82.0"/>
      <point x="395.25" y="352.0"/>
      <point x="450.0" y="556.75" type="curve" smooth="yes"/>
      <point x="516.25" y="806.0"/>
      <point x="589.0" y="1106.75"/>
      <point x="636.75" y="1322.25" type="curve"/>
      <point x="557.5" y="1322.25"/>
      <point x="378.5" y="1317.5"/>
      <point x="333.75" y="1315.5" type="curve"/>
      <point x="258.25" y="1055.0"/>
      <point x="189.25" y="809.75"/>
      <point x="132.5" y="597.25" type="curve" smooth="yes"/>
      <point x="76.75" y="388.0"/>
      <point x="10.75" y="124.5"/>
      <point x="-19.75" y="-5.0" type="curve"/>
      <point x="63.5" y="-16.75"/>
      <point x="197.25" y="-18.0"/>
    </contour>
  </outline>
</glyph>
<glyph name="J" format="2">
  <advance width="1178.0"/>
  <unicode hex="004A"/>
  <anchor x="446.585" y="0.0" name="bottom"/>
  <anchor x="1062.75" y="1291.0" name="top"/>
  <outline>
    <contour>
      <point x="465.5" y="-19.0" type="curve" smooth="yes"/>
      <point x="778.25" y="-19.0"/>
      <point x="986.0" y="147.25"/>
      <point x="1101.75" y="606.75" type="curve" smooth="yes"/>
      <point x="1146.25" y="782.5"/>
      <point x="1217.75" y="1112.25"/>
      <point x="1248.75" y="1286.5" type="curve"/>
      <point x="1202.5" y="1292.75"/>
      <point x="1157.0" y="1294.75"/>
      <point x="1097.0" y="1294.75" type="curve" smooth="yes"/>
      <point x="1040.5" y="1294.75"/>
      <point x="968.25" y="1287.5"/>
      <point x="913.5" y="1277.0" type="curve"/>
      <point x="910.75" y="1255.0"/>
      <point x="833.25" y="835.5"/>
      <point x="778.25" y="628.75" type="curve" smooth="yes"/>
      <point x="717.5" y="401.5"/>
      <point x="648.25" y="288.75"/>
      <point x="531.25" y="288.75" type="curve" smooth="yes"/>
      <point x="423.0" y="288.75"/>
      <point x="361.25" y="400.75"/>
      <point x="361.25" y="547.75" type="curve"/>
      <point x="279.75" y="520.0"/>
      <point x="80.75" y="437.0"/>
      <point x="23.0" y="401.25" type="curve"/>
      <point x="25.75" y="140.0"/>
      <point x="188.75" y="-19.0"/>
    </contour>
  </outline>
</glyph>
<glyph name="K" format="2">
  <advance width="1101.5"/>
  <unicode hex="004B"/>
  <anchor x="415.585" y="0.0" name="bottom"/>
  <anchor x="761.507" y="1291.0" name="top"/>
  <outline>
    <contour>
      <point x="-18.25" y="-32.0" type="curve"/>
      <point x="121.0" y="-17.0"/>
      <point x="286.0" y="-0.75"/>
      <point x="324.0" y="1.5" type="curve"/>
      <point x="335.0" y="41.25"/>
      <point x="388.0" y="299.25"/>
      <point x="419.5" y="462.0" type="curve"/>
      <point x="441.25" y="470.5"/>
      <point x="474.0" y="485.25"/>
      <point x="500.0" y="502.25" type="curve"/>
      <point x="570.0" y="372.75"/>
      <point x="642.25" y="81.25"/>
      <point x="654.5" y="-3.25" type="curve"/>
      <point x="752.0" y="25.75"/>
      <point x="913.0" y="98.25"/>
      <point x="973.5" y="133.0" type="curve"/>
      <point x="962.0" y="206.75"/>
      <point x="855.25" y="484.5"/>
      <point x="740.25" y="671.25" type="curve"/>
      <point x="937.75" y="809.5"/>
      <point x="1167.5" y="1069.75"/>
      <point x="1220.25" y="1144.5" type="curve"/>
      <point x="1182.5" y="1167.25"/>
      <point x="1074.5" y="1240.5"/>
      <point x="992.0" y="1312.5" type="curve"/>
      <point x="813.0" y="1084.5"/>
      <point x="606.75" y="877.25"/>
      <point x="485.25" y="786.25" type="curve"/>
      <point x="522.75" y="962.0"/>
      <point x="586.25" y="1229.25"/>
      <point x="602.0" y="1297.0" type="curve"/>
      <point x="572.5" y="1302.75"/>
      <point x="515.0" y="1308.25"/>
      <point x="451.5" y="1308.25" type="curve" smooth="yes"/>
      <point x="399.25" y="1308.25"/>
      <point x="331.75" y="1304.25"/>
      <point x="283.75" y="1296.0" type="curve"/>
      <point x="216.5" y="975.75"/>
      <point x="54.25" y="249.0"/>
    </contour>
  </outline>
</glyph>
<glyph name="L" format="2">
  <advance width="961.0"/>
  <unicode hex="004C"/>
  <anchor x="338.585" y="0.0" name="bottom"/>
  <anchor x="511.68" y="646.0" name="center"/>
  <anchor x="503.0" y="1299.0" name="top"/>
  <anchor x="672.0" y="910.0" name="topright"/>
  <outline>
    <contour>
      <point x="-26.25" y="23.75" type="curve"/>
      <point x="61.75" y="15.5"/>
      <point x="183.25" y="10.75"/>
      <point x="305.25" y="12.0" type="curve" smooth="yes"/>
      <point x="452.25" y="13.25"/>
      <point x="622.5" y="23.0"/>
      <point x="787.75" y="43.75" type="curve"/>
      <point x="814.25" y="137.25"/>
      <point x="853.25" y="304.25"/>
      <point x="858.25" y="355.75" type="curve"/>
      <point x="701.0" y="355.75"/>
      <point x="550.25" y="350.0"/>
      <point x="390.75" y="340.75" type="curve"/>
      <point x="411.5" y="398.5"/>
      <point x="435.25" y="471.0"/>
      <point x="459.25" y="549.5" type="curve" smooth="yes"/>
      <point x="553.25" y="847.75"/>
      <point x="642.25" y="1154.0"/>
      <point x="674.75" y="1292.0" type="curve"/>
      <point x="655.25" y="1296.0"/>
      <point x="585.5" y="1299.0"/>
      <point x="542.25" y="1299.0" type="curve" smooth="yes"/>
      <point x="453.25" y="1299.0"/>
      <point x="358.0" y="1290.5"/>
      <point x="318.75" y="1285.0" type="curve"/>
      <point x="287.25" y="1150.5"/>
      <point x="218.0" y="882.5"/>
      <point x="151.0" y="630.75" type="curve" smooth="yes"/>
      <point x="84.0" y="378.25"/>
      <point x="10.0" y="133.75"/>
    </contour>
  </outline>
</glyph>
<glyph name="M" format="2">
  <advance width="1463.75"/>
  <unicode hex="004D"/>
  <anchor x="578.25" y="0.0" name="bottom"/>
  <anchor x="924.25" y="1291.0" name="top"/>
  <outline>
    <contour>
      <point x="-40.0" y="-0.25" type="curve"/>
      <point x="64.5" y="-0.25"/>
      <point x="202.75" y="2.0"/>
      <point x="275.75" y="4.75" type="curve"/>
      <point x="287.25" y="45.75"/>
      <point x="407.25" y="501.0"/>
      <point x="490.5" y="819.25" type="curve"/>
      <point x="491.75" y="652.5"/>
      <point x="487.25" y="138.75"/>
      <point x="482.75" y="76.75" type="curve"/>
      <point x="514.5" y="67.5"/>
      <point x="615.0" y="58.25"/>
      <point x="685.25" y="61.25" type="curve"/>
      <point x="744.0" y="141.5"/>
      <point x="1035.25" y="585.25"/>
      <point x="1119.0" y="740.75" type="curve"/>
      <point x="1100.5" y="678.5"/>
      <point x="1057.25" y="528.75"/>
      <point x="1017.25" y="395.0" type="curve" smooth="yes"/>
      <point x="974.0" y="250.5"/>
      <point x="928.75" y="103.5"/>
      <point x="898.25" y="16.75" type="curve"/>
      <point x="957.75" y="12.25"/>
      <point x="1093.25" y="4.25"/>
      <point x="1191.5" y="4.25" type="curve"/>
      <point x="1246.75" y="160.75"/>
      <point x="1336.0" y="447.75"/>
      <point x="1404.25" y="703.75" type="curve" smooth="yes"/>
      <point x="1461.25" y="916.25"/>
      <point x="1505.75" y="1117.75"/>
      <point x="1511.75" y="1238.25" type="curve"/>
      <point x="1426.5" y="1253.0"/>
      <point x="1241.0" y="1258.0"/>
      <point x="1156.75" y="1258.0" type="curve"/>
      <point x="1095.25" y="1131.5"/>
      <point x="826.5" y="659.0"/>
      <point x="718.25" y="472.25" type="curve"/>
      <point x="725.75" y="663.5"/>
      <point x="714.75" y="1217.25"/>
      <point x="714.25" y="1262.0" type="curve"/>
      <point x="701.0" y="1262.0"/>
      <point x="452.25" y="1260.25"/>
      <point x="319.75" y="1247.0" type="curve"/>
      <point x="205.25" y="888.5"/>
      <point x="29.0" y="258.5"/>
    </contour>
  </outline>
</glyph>
<glyph name="N" format="2">
  <advance width="1282.0"/>
  <unicode hex="004E"/>
  <anchor x="498.585" y="0.0" name="bottom"/>
  <anchor x="844.507" y="1291.0" name="top"/>
  <outline>
    <contour>
      <point x="343.75" y="-6.5" type="curve"/>
      <point x="378.5" y="123.75"/>
      <point x="505.5" y="657.0"/>
      <point x="523.25" y="767.5" type="curve"/>
      <point x="602.0" y="520.0"/>
      <point x="706.25" y="110.25"/>
      <point x="728.75" y="10.0" type="curve"/>
      <point x="767.5" y="3.0"/>
      <point x="830.0" y="0.75"/>
      <point x="893.0" y="0.75" type="curve" smooth="yes"/>
      <point x="935.75" y="0.75"/>
      <point x="978.25" y="1.5"/>
      <point x="1016.25" y="3.25" type="curve"/>
      <point x="1044.75" y="52.25"/>
      <point x="1135.75" y="335.0"/>
      <point x="1207.0" y="604.0" type="curve" smooth="yes"/>
      <point x="1261.75" y="811.0"/>
      <point x="1326.5" y="1075.25"/>
      <point x="1351.5" y="1216.75" type="curve"/>
      <point x="1301.75" y="1233.5"/>
      <point x="1123.0" y="1248.5"/>
      <point x="1044.0" y="1248.5" type="curve"/>
      <point x="865.75" y="435.25" type="line"/>
      <point x="822.25" y="667.0"/>
      <point x="746.5" y="991.0"/>
      <point x="646.5" y="1243.25" type="curve"/>
      <point x="562.75" y="1257.0"/>
      <point x="388.25" y="1266.5"/>
      <point x="334.5" y="1266.5" type="curve"/>
      <point x="309.75" y="1144.75"/>
      <point x="250.5" y="913.5"/>
      <point x="192.25" y="697.25" type="curve" smooth="yes"/>
      <point x="113.5" y="402.0"/>
      <point x="17.75" y="47.75"/>
      <point x="7.75" y="13.5" type="curve"/>
      <point x="68.75" y="6.0"/>
      <point x="222.5" y="-7.0"/>
    </contour>
  </outline>
</glyph>
<glyph name="O" format="2">
  <advance width="1354.0"/>
  <unicode hex="004F"/>
  <anchor x="534.585" y="0.0" name="bottom"/>
  <anchor x="658.75" y="646.0" name="center"/>
  <anchor x="862.25" y="0.0" name="ogonek"/>
  <anchor x="880.507" y="1291.0" name="top"/>
  <anchor x="223.507" y="1291.0" name="topleft"/>
  <anchor x="1189.75" y="1185.75" name="topright"/>
  <outline>
    <contour>
      <point x="577.75" y="-51.0" type="curve" smooth="yes"/>
      <point x="1081.75" y="-51.0"/>
      <point x="1320.75" y="293.75"/>
      <point x="1320.75" y="810.75" type="curve" smooth="yes"/>
      <point x="1320.75" y="1104.0"/>
      <point x="1194.25" y="1320.0"/>
      <point x="832.5" y="1320.0" type="curve" smooth="yes"/>
      <point x="358.0" y="1320.0"/>
      <point x="84.0" y="962.25"/>
      <point x="84.0" y="441.25" type="curve" smooth="yes"/>
      <point x="84.0" y="156.75"/>
      <point x="238.75" y="-51.0"/>
    </contour>
    <contour>
      <point x="625.5" y="269.25" type="curve" smooth="yes"/>
      <point x="467.25" y="269.25"/>
      <point x="409.5" y="397.5"/>
      <point x="409.5" y="532.0" type="curve" smooth="yes"/>
      <point x="409.5" y="821.25"/>
      <point x="546.5" y="1056.0"/>
      <point x="813.25" y="1056.0" type="curve" smooth="yes"/>
      <point x="979.0" y="1056.0"/>
      <point x="1023.75" y="917.5"/>
      <point x="1023.75" y="780.25" type="curve" smooth="yes"/>
      <point x="1023.75" y="488.75"/>
      <point x="893.5" y="269.25"/>
    </contour>
  </outline>
</glyph>
<glyph name="P" format="2">
  <advance width="1010.0"/>
  <unicode hex="0050"/>
  <anchor x="347.89625" y="0.0" name="bottom"/>
  <anchor x="693.87675" y="1291.0" name="top"/>
  <outline>
    <contour>
      <point x="-54.0" y="-9.5" type="curve"/>
      <point x="15.25" y="-14.25"/>
      <point x="203.25" y="-17.5"/>
      <point x="267.25" y="-17.5" type="curve"/>
      <point x="311.25" y="125.25"/>
      <point x="410.0" y="463.5"/>
      <point x="429.0" y="535.75" type="curve"/>
      <point x="455.25" y="527.0"/>
      <point x="523.25" y="519.75"/>
      <point x="561.0" y="519.75" type="curve" smooth="yes"/>
      <point x="862.5" y="519.75"/>
      <point x="1094.25" y="723.75"/>
      <point x="1094.25" y="1004.0" type="curve" smooth="yes"/>
      <point x="1094.25" y="1195.5"/>
      <point x="952.25" y="1290.0"/>
      <point x="730.75" y="1290.0" type="curve" smooth="yes"/>
      <point x="586.75" y="1290.0"/>
      <point x="453.25" y="1278.5"/>
      <point x="326.5" y="1254.0" type="curve"/>
      <point x="227.5" y="976.25"/>
      <point x="-20.75" y="111.25"/>
    </contour>
    <contour>
      <point x="492.75" y="795.75" type="curve"/>
      <point x="503.25" y="833.75"/>
      <point x="557.5" y="1032.5"/>
      <point x="560.75" y="1050.5" type="curve"/>
      <point x="607.5" y="1056.25"/>
      <point x="652.75" y="1060.0"/>
      <point x="689.5" y="1060.0" type="curve" smooth="yes"/>
      <point x="768.75" y="1060.0"/>
      <point x="817.75" y="1030.5"/>
      <point x="817.75" y="947.5" type="curve" smooth="yes"/>
      <point x="817.75" y="850.75"/>
      <point x="729.0" y="785.5"/>
      <point x="603.75" y="785.5" type="curve" smooth="yes"/>
      <point x="562.0" y="785.5"/>
      <point x="519.0" y="790.0"/>
    </contour>
  </outline>
</glyph>
<glyph name="Q" format="2">
  <advance width="1291.0"/>
  <unicode hex="0051"/>
  <anchor x="503.585" y="0.0" name="bottom"/>
  <anchor x="849.507" y="1291.0" name="top"/>
  <outline>
    <contour>
      <point x="934.0" y="-148.0" type="curve"/>
      <point x="1002.75" y="-104.0"/>
      <point x="1090.25" y="-34.25"/>
      <point x="1145.5" y="26.25" type="curve"/>
      <point x="1080.75" y="58.25"/>
      <point x="1009.25" y="108.5"/>
      <point x="973.75" y="170.5" type="curve"/>
      <point x="1180.0" y="306.0"/>
      <point x="1287.25" y="591.5"/>
      <point x="1287.25" y="858.0" type="curve" smooth="yes"/>
      <point x="1287.25" y="1115.75"/>
      <point x="1158.0" y="1299.0"/>
      <point x="835.0" y="1299.0" type="curve" smooth="yes"/>
      <point x="402.25" y="1299.0"/>
      <point x="84.25" y="890.75"/>
      <point x="84.25" y="441.25" type="curve" smooth="yes"/>
      <point x="84.25" y="180.5"/>
      <point x="219.75" y="-13.75"/>
      <point x="499.75" y="-13.75" type="curve" smooth="yes"/>
      <point x="613.5" y="-13.75"/>
      <point x="713.75" y="27.0"/>
      <point x="751.0" y="50.0" type="curve"/>
      <point x="770.5" y="7.0"/>
      <point x="878.25" y="-121.25"/>
    </contour>
    <contour>
      <point x="658.75" y="288.25" type="curve"/>
      <point x="647.75" y="280.5"/>
      <point x="619.75" y="262.25"/>
      <point x="566.75" y="262.25" type="curve" smooth="yes"/>
      <point x="438.75" y="262.25"/>
      <point x="398.25" y="364.75"/>
      <point x="398.25" y="492.75" type="curve" smooth="yes"/>
      <point x="398.25" y="783.25"/>
      <point x="549.0" y="1046.0"/>
      <point x="812.25" y="1046.0" type="curve" smooth="yes"/>
      <point x="955.25" y="1046.0"/>
      <point x="1006.5" y="963.0"/>
      <point x="1006.5" y="824.5" type="curve" smooth="yes"/>
      <point x="1006.5" y="690.5"/>
      <point x="959.75" y="466.0"/>
      <point x="869.0" y="376.75" type="curve"/>
      <point x="837.75" y="429.25"/>
      <point x="820.5" y="518.5"/>
      <point x="812.5" y="578.0" type="curve"/>
      <point x="748.75" y="545.75"/>
      <point x="641.5" y="486.0"/>
      <point x="598.25" y="456.75" type="curve"/>
      <point x="604.5" y="405.0"/>
      <point x="637.0" y="315.5"/>
    </contour>
  </outline>
</glyph>
<glyph name="R" format="2">
  <advance width="1094.0"/>
  <unicode hex="0052"/>
  <anchor x="404.585" y="0.0" name="bottom"/>
  <anchor x="698.0" y="1328.5" name="top"/>
  <outline>
    <contour>
      <point x="-17.5" y="-25.25" type="curve"/>
      <point x="90.25" y="-25.25"/>
      <point x="236.5" y="-21.75"/>
      <point x="320.25" y="-4.5" type="curve"/>
      <point x="354.5" y="134.75"/>
      <point x="426.5" y="498.25"/>
      <point x="436.75" y="576.25" type="curve"/>
      <point x="468.5" y="577.0"/>
      <point x="519.5" y="582.0"/>
      <point x="569.25" y="593.25" type="curve"/>
      <point x="588.5" y="501.75"/>
      <point x="594.25" y="156.75"/>
      <point x="594.25" y="-19.5" type="curve"/>
      <point x="622.5" y="-17.75"/>
      <point x="809.75" y="21.25"/>
      <point x="922.0" y="72.25" type="curve"/>
      <point x="916.75" y="161.75"/>
      <point x="870.25" y="549.0"/>
      <point x="840.25" y="663.0" type="curve"/>
      <point x="1012.5" y="737.5"/>
      <point x="1125.25" y="849.75"/>
      <point x="1125.25" y="1035.5" type="curve" smooth="yes"/>
      <point x="1125.25" y="1257.25"/>
      <point x="958.5" y="1328.5"/>
      <point x="721.0" y="1328.5" type="curve" smooth="yes"/>
      <point x="579.75" y="1328.5"/>
      <point x="385.5" y="1318.25"/>
      <point x="269.5" y="1303.0" type="curve"/>
      <point x="175.25" y="849.5"/>
      <point x="60.75" y="303.0"/>
    </contour>
    <contour>
      <point x="474.0" y="816.25" type="curve"/>
      <point x="482.25" y="864.25"/>
      <point x="510.5" y="1030.0"/>
      <point x="519.0" y="1087.5" type="curve"/>
      <point x="543.5" y="1090.5"/>
      <point x="629.25" y="1098.5"/>
      <point x="672.25" y="1098.5" type="curve" smooth="yes"/>
      <point x="783.5" y="1098.5"/>
      <point x="838.25" y="1074.25"/>
      <point x="838.25" y="988.25" type="curve" smooth="yes"/>
      <point x="838.25" y="882.75"/>
      <point x="739.75" y="847.75"/>
      <point x="619.25" y="829.0" type="curve" smooth="yes"/>
      <point x="556.25" y="820.0"/>
      <point x="515.25" y="816.25"/>
    </contour>
  </outline>
</glyph>
<glyph name="S" format="2">
  <advance width="1152.0"/>
  <unicode hex="0053"/>
  <anchor x="467.25" y="0.0" name="bottom"/>
  <anchor x="732.0" y="1333.5" name="top"/>
  <outline>
    <contour>
      <point x="467.25" y="-15.75" type="curve" smooth="yes"/>
      <point x="776.75" y="-15.75"/>
      <point x="1060.75" y="153.5"/>
      <point x="1060.75" y="466.75" type="curve" smooth="yes"/>
      <point x="1060.75" y="685.75"/>
      <point x="894.5" y="779.25"/>
      <point x="665.25" y="865.25" type="curve" smooth="yes"/>
      <point x="589.25" y="892.25"/>
      <point x="540.25" y="924.25"/>
      <point x="540.25" y="982.0" type="curve" smooth="yes"/>
      <point x="540.25" y="1070.75"/>
      <point x="630.75" y="1110.75"/>
      <point x="724.5" y="1110.75" type="curve" smooth="yes"/>
      <point x="834.25" y="1110.75"/>
      <point x="929.25" y="1049.0"/>
      <point x="988.0" y="971.75" type="curve"/>
      <point x="1052.25" y="1010.25"/>
      <point x="1144.75" y="1102.25"/>
      <point x="1204.25" y="1178.5" type="curve"/>
      <point x="1113.0" y="1303.5"/>
      <point x="922.0" y="1349.0"/>
      <point x="737.25" y="1349.0" type="curve" smooth="yes"/>
      <point x="461.25" y="1349.0"/>
      <point x="223.5" y="1206.25"/>
      <point x="223.5" y="934.75" type="curve" smooth="yes"/>
      <point x="223.5" y="752.75"/>
      <point x="362.75" y="669.25"/>
      <point x="553.5" y="588.0" type="curve" smooth="yes"/>
      <point x="693.75" y="531.0"/>
      <point x="742.0" y="473.75"/>
      <point x="742.0" y="398.75" type="curve" smooth="yes"/>
      <point x="742.0" y="296.75"/>
      <point x="641.25" y="233.25"/>
      <point x="526.75" y="233.25" type="curve" smooth="yes"/>
      <point x="380.75" y="233.25"/>
      <point x="300.25" y="340.5"/>
      <point x="239.75" y="439.0" type="curve"/>
      <point x="174.75" y="410.25"/>
      <point x="3.25" y="257.0"/>
      <point x="-21.0" y="229.5" type="curve"/>
      <point x="66.0" y="66.5"/>
      <point x="267.5" y="-15.75"/>
    </contour>
  </outline>
</glyph>
<glyph name="T" format="2">
  <advance width="1039.0"/>
  <unicode hex="0054"/>
  <anchor x="396.5" y="0.0" name="bottom"/>
  <anchor x="550.92" y="646.0" name="center"/>
  <anchor x="723.507" y="1291.0" name="top"/>
  <outline>
    <contour>
      <point x="191.25" y="1036.75" type="curve"/>
      <point x="288.75" y="1038.0"/>
      <point x="416.75" y="1042.25"/>
      <point x="510.75" y="1048.0" type="curve"/>
      <point x="498.75" y="1005.5"/>
      <point x="483.5" y="951.5"/>
      <point x="467.0" y="890.0" type="curve" smooth="yes"/>
      <point x="393.0" y="615.0"/>
      <point x="286.5" y="181.5"/>
      <point x="243.75" y="-14.0" type="curve"/>
      <point x="322.5" y="-14.0"/>
      <point x="501.0" y="-4.5"/>
      <point x="585.0" y="8.25" type="curve"/>
      <point x="595.5" y="59.75"/>
      <point x="779.5" y="881.5"/>
      <point x="819.0" y="1053.5" type="curve"/>
      <point x="902.0" y="1051.25"/>
      <point x="1060.25" y="1050.25"/>
      <point x="1110.75" y="1049.5" type="curve"/>
      <point x="1135.0" y="1097.5"/>
      <point x="1171.5" y="1201.75"/>
      <point x="1200.25" y="1312.25" type="curve"/>
      <point x="1088.5" y="1328.25"/>
      <point x="944.75" y="1333.75"/>
      <point x="797.25" y="1333.75" type="curve" smooth="yes"/>
      <point x="601.5" y="1333.75"/>
      <point x="398.25" y="1324.0"/>
      <point x="245.25" y="1313.25" type="curve"/>
      <point x="236.0" y="1278.75"/>
      <point x="195.0" y="1095.25"/>
    </contour>
  </outline>
</glyph>
<glyph name="U" format="2">
  <advance width="1212.0"/>
  <unicode hex="0055"/>
  <anchor x="463.585" y="0.0" name="bottom"/>
  <anchor x="659.5" y="0.0" name="ogonek"/>
  <anchor x="836.75" y="1319.75" name="top"/>
  <anchor x="1247.25" y="1174.0" name="topright"/>
  <outline>
    <contour>
      <point x="485.25" y="-31.0" type="curve" smooth="yes"/>
      <point x="927.75" y="-31.0"/>
      <point x="1090.75" y="390.25"/>
      <point x="1235.75" y="922.25" type="curve" smooth="yes"/>
      <point x="1272.0" y="1055.5"/>
      <point x="1299.0" y="1194.25"/>
      <point x="1311.5" y="1301.0" type="curve"/>
      <point x="1285.5" y="1309.25"/>
      <point x="1090.25" y="1328.5"/>
      <point x="984.25" y="1328.5" type="curve"/>
      <point x="970.0" y="1219.75"/>
      <point x="879.5" y="847.75"/>
      <point x="844.0" y="714.5" type="curve" smooth="yes"/>
      <point x="785.75" y="496.0"/>
      <point x="706.5" y="351.5"/>
      <point x="573.75" y="351.5" type="curve" smooth="yes"/>
      <point x="498.0" y="351.5"/>
      <point x="461.5" y="398.75"/>
      <point x="461.5" y="495.5" type="curve" smooth="yes"/>
      <point x="461.5" y="584.5"/>
      <point x="506.0" y="768.5"/>
      <point x="558.5" y="953.5" type="curve" smooth="yes"/>
      <point x="597.5" y="1093.0"/>
      <point x="644.75" y="1235.25"/>
      <point x="682.25" y="1341.75" type="curve"/>
      <point x="631.0" y="1347.75"/>
      <point x="562.5" y="1352.25"/>
      <point x="495.5" y="1352.25" type="curve" smooth="yes"/>
      <point x="444.5" y="1352.25"/>
      <point x="383.0" y="1348.0"/>
      <point x="327.0" y="1342.25" type="curve"/>
      <point x="285.5" y="1206.5"/>
      <point x="246.75" y="1075.75"/>
      <point x="215.75" y="953.75" type="curve" smooth="yes"/>
      <point x="155.75" y="717.5"/>
      <point x="116.5" y="519.25"/>
      <point x="116.5" y="358.0" type="curve" smooth="yes"/>
      <point x="116.5" y="107.75"/>
      <point x="215.5" y="-31.0"/>
    </contour>
  </outline>
</glyph>
<glyph name="V" format="2">
  <advance width="1178.75"/>
  <unicode hex="0056"/>
  <anchor x="447.64625" y="0.0" name="bottom"/>
  <anchor x="793.62675" y="1291.0" name="top"/>
  <outline>
    <contour>
      <point x="487.0" y="-21.25" type="curve" smooth="yes"/>
      <point x="557.25" y="-21.25"/>
      <point x="624.25" y="-20.25"/>
      <point x="664.25" y="-16.0" type="curve"/>
      <point x="706.25" y="52.75"/>
      <point x="1090.0" y="729.5"/>
      <point x="1357.5" y="1307.25" type="curve"/>
      <point x="1262.75" y="1342.5"/>
      <point x="1116.0" y="1363.0"/>
      <point x="1009.25" y="1364.25" type="curve"/>
      <point x="986.75" y="1299.75"/>
      <point x="741.5" y="699.75"/>
      <point x="567.25" y="336.75" type="curve"/>
      <point x="596.5" y="729.25"/>
      <point x="598.5" y="1225.25"/>
      <point x="598.5" y="1359.5" type="curve"/>
      <point x="513.5" y="1359.5"/>
      <point x="343.25" y="1343.0"/>
      <point x="238.25" y="1312.5" type="curve"/>
      <point x="238.25" y="1006.5"/>
      <point x="256.25" y="235.25"/>
      <point x="293.0" y="-10.0" type="curve"/>
      <point x="332.5" y="-16.0"/>
      <point x="410.5" y="-21.25"/>
    </contour>
  </outline>
</glyph>
<glyph name="W" format="2">
  <advance width="1344.0"/>
  <unicode hex="0057"/>
  <anchor x="529.585" y="0.0" name="bottom"/>
  <anchor x="875.507" y="1291.0" name="top"/>
  <outline>
    <contour>
      <point x="667.5" y="-15.5" type="curve"/>
      <point x="975.0" y="15.25" type="line"/>
      <point x="1026.75" y="114.75"/>
      <point x="1364.25" y="802.25"/>
      <point x="1518.75" y="1381.25" type="curve"/>
      <point x="1195.75" y="1348.5" type="line"/>
      <point x="1134.25" y="1118.75"/>
      <point x="995.5" y="685.0"/>
      <point x="879.5" y="399.25" type="curve"/>
      <point x="887.0" y="555.75"/>
      <point x="902.0" y="863.0"/>
      <point x="908.25" y="939.75" type="curve"/>
      <point x="690.0" y="919.75" type="line"/>
      <point x="643.5" y="849.25"/>
      <point x="470.5" y="606.25"/>
      <point x="393.25" y="471.25" type="curve"/>
      <point x="462.25" y="730.75"/>
      <point x="570.5" y="1096.25"/>
      <point x="636.25" y="1340.0" type="curve"/>
      <point x="291.75" y="1353.0" type="line"/>
      <point x="153.25" y="836.0"/>
      <point x="72.5" y="279.25"/>
      <point x="31.0" y="13.75" type="curve"/>
      <point x="351.5" y="0.25" type="line"/>
      <point x="410.0" y="87.5"/>
      <point x="606.25" y="385.5"/>
      <point x="670.0" y="497.5" type="curve"/>
      <point x="662.75" y="372.0"/>
      <point x="662.5" y="117.5"/>
    </contour>
  </outline>
</glyph>
<glyph name="X" format="2">
  <advance width="1218.0"/>
  <unicode hex="0058"/>
  <anchor x="468.93874999999997" y="0.0" name="bottom"/>
  <anchor x="814.8802499999999" y="1291.0" name="top"/>
  <outline>
    <contour>
      <point x="499.75" y="675.75" type="curve"/>
      <point x="352.0" y="498.25"/>
      <point x="104.25" y="218.0"/>
      <point x="-62.0" y="51.75" type="curve"/>
      <point x="62.25" y="12.25"/>
      <point x="174.25" y="-12.25"/>
      <point x="277.75" y="-23.0" type="curve"/>
      <point x="311.75" y="11.75"/>
      <point x="518.75" y="230.0"/>
      <point x="633.75" y="388.0" type="curve"/>
      <point x="688.5" y="226.75"/>
      <point x="719.75" y="58.75"/>
      <point x="732.5" y="-44.25" type="curve"/>
      <point x="822.0" y="-29.0"/>
      <point x="959.75" y="11.25"/>
      <point x="1055.25" y="63.25" type="curve"/>
      <point x="1035.0" y="171.25"/>
      <point x="922.5" y="511.0"/>
      <point x="846.0" y="664.5" type="curve"/>
      <point x="976.75" y="791.5"/>
      <point x="1244.0" y="1061.75"/>
      <point x="1349.25" y="1212.75" type="curve"/>
      <point x="1310.25" y="1252.0"/>
      <point x="1146.75" y="1310.25"/>
      <point x="1024.25" y="1323.0" type="curve"/>
      <point x="971.5" y="1219.5"/>
      <point x="856.0" y="1036.5"/>
      <point x="741.75" y="899.25" type="curve"/>
      <point x="714.0" y="1010.0"/>
      <point x="655.25" y="1256.75"/>
      <point x="614.75" y="1342.25" type="curve"/>
      <point x="523.5" y="1329.75"/>
      <point x="327.0" y="1269.25"/>
      <point x="237.25" y="1229.5" type="curve"/>
      <point x="270.25" y="1178.5"/>
      <point x="430.25" y="912.75"/>
    </contour>
  </outline>
</glyph>
<glyph name="Y" format="2">
  <advance width="1065.0"/>
  <unicode hex="0059"/>
  <anchor x="411.0" y="0.0" name="bottom"/>
  <anchor x="757.0" y="1291.0" name="top"/>
  <anchor x="244.0" y="1291.0" name="topleft"/>
  <outline>
    <contour>
      <point x="425.75" y="559.5" type="curve"/>
      <point x="387.75" y="471.25"/>
      <point x="320.5" y="236.75"/>
      <point x="259.75" y="15.5" type="curve"/>
      <point x="300.5" y="7.25"/>
      <point x="369.25" y="1.75"/>
      <point x="434.0" y="1.75" type="curve" smooth="yes"/>
      <point x="495.0" y="1.75"/>
      <point x="553.5" y="7.25"/>
      <point x="571.5" y="13.5" type="curve"/>
      <point x="578.25" y="35.0"/>
      <point x="610.25" y="151.5"/>
      <point x="633.25" y="240.5" type="curve" smooth="yes"/>
      <point x="652.75" y="314.75"/>
      <point x="691.75" y="472.0"/>
      <point x="717.75" y="581.75" type="curve"/>
      <point x="922.5" y="847.5"/>
      <point x="1128.0" y="1085.75"/>
      <point x="1248.0" y="1204.25" type="curve"/>
      <point x="1190.0" y="1246.25"/>
      <point x="1060.75" y="1299.0"/>
      <point x="953.25" y="1307.5" type="curve"/>
      <point x="875.25" y="1228.75"/>
      <point x="675.5" y="950.75"/>
      <point x="625.0" y="876.75" type="curve"/>
      <point x="598.0" y="987.5"/>
      <point x="559.0" y="1263.75"/>
      <point x="552.25" y="1323.25" type="curve"/>
      <point x="479.25" y="1322.0"/>
      <point x="367.5" y="1306.75"/>
      <point x="232.0" y="1260.5" type="curve"/>
      <point x="269.5" y="1024.5"/>
      <point x="356.0" y="713.5"/>
    </contour>
  </outline>
</glyph>
<glyph name="Z" format="2">
  <advance width="1044.0"/>
  <unicode hex="005A"/>
  <anchor x="379.585" y="0.0" name="bottom"/>
  <anchor x="552.68" y="646.0" name="center"/>
  <anchor x="725.507" y="1291.0" name="top"/>
  <outline>
    <contour>
      <point x="828.25" y="-14.0" type="curve"/>
      <point x="842.25" y="12.75"/>
      <point x="870.75" y="89.25"/>
      <point x="890.5" y="160.75" type="curve" smooth="yes"/>
      <point x="907.0" y="221.25"/>
      <point x="921.25" y="284.75"/>
      <point x="927.25" y="319.0" type="curve"/>
      <point x="835.0" y="314.75"/>
      <point x="737.25" y="310.75"/>
      <point x="654.5" y="310.75" type="curve" smooth="yes"/>
      <point x="544.25" y="310.75"/>
      <point x="462.25" y="314.0"/>
      <point x="416.5" y="319.25" type="curve"/>
      <point x="543.75" y="433.25"/>
      <point x="996.25" y="890.0"/>
      <point x="1146.75" y="1069.0" type="curve"/>
      <point x="1155.25" y="1086.75"/>
      <point x="1172.75" y="1141.25"/>
      <point x="1188.25" y="1200.5" type="curve" smooth="yes"/>
      <point x="1200.0" y="1246.25"/>
      <point x="1212.0" y="1297.25"/>
      <point x="1214.5" y="1330.0" type="curve"/>
      <point x="1181.5" y="1333.0"/>
      <point x="1075.0" y="1333.75"/>
      <point x="1030.75" y="1333.5" type="curve" smooth="yes"/>
      <point x="826.75" y="1332.0"/>
      <point x="496.0" y="1306.25"/>
      <point x="359.5" y="1294.0" type="curve"/>
      <point x="347.5" y="1263.5"/>
      <point x="332.75" y="1215.75"/>
      <point x="319.0" y="1164.0" type="curve" smooth="yes"/>
      <point x="306.75" y="1118.5"/>
      <point x="295.25" y="1062.5"/>
      <point x="289.5" y="1029.0" type="curve"/>
      <point x="450.0" y="1040.0"/>
      <point x="723.5" y="1057.0"/>
      <point x="788.75" y="1057.25" type="curve"/>
      <point x="695.75" y="948.5"/>
      <point x="244.5" y="490.75"/>
      <point x="42.5" y="315.0" type="curve"/>
      <point x="22.75" y="242.5"/>
      <point x="-15.5" y="84.0"/>
      <point x="-27.5" y="22.0" type="curve"/>
      <point x="308.5" y="-3.5"/>
      <point x="592.25" y="-14.0"/>
    </contour>
  </outline>
</glyph>
<glyph name="bracketleft" format="2">
  <advance width="735.0"/>
  <unicode hex="005B"/>
  <outline>
    <contour>
      <point x="78.75" y="-526.25" type="curve" smooth="yes"/>
      <point x="205.75" y="-526.25"/>
      <point x="310.0" y="-518.75"/>
      <point x="375.25" y="-511.25" type="curve"/>
      <point x="395.25" y="-463.25"/>
      <point x="441.25" y="-326.25"/>
      <point x="461.0" y="-259.25" type="curve"/>
      <point x="423.75" y="-259.75"/>
      <point x="352.5" y="-259.0"/>
      <point x="302.5" y="-257.5" type="curve" smooth="yes"/>
      <point x="241.75" y="-255.25"/>
      <point x="191.5" y="-253.0"/>
      <point x="173.75" y="-248.75" type="curve"/>
      <point x="207.25" y="-79.25"/>
      <point x="265.25" y="163.5"/>
      <point x="332.75" y="415.0" type="curve" smooth="yes"/>
      <point x="422.5" y="749.0"/>
      <point x="531.75" y="1105.5"/>
      <point x="647.5" y="1407.75" type="curve"/>
      <point x="746.0" y="1415.75"/>
      <point x="897.5" y="1425.75"/>
      <point x="940.0" y="1425.75" type="curve"/>
      <point x="948.0" y="1441.5"/>
      <point x="969.0" y="1486.5"/>
      <point x="990.5" y="1540.25" type="curve" smooth="yes"/>
      <point x="1005.5" y="1578.0"/>
      <point x="1019.5" y="1619.25"/>
      <point x="1029.25" y="1657.0" type="curve"/>
      <point x="816.75" y="1655.5"/>
      <point x="564.0" y="1639.5"/>
      <point x="421.25" y="1613.0" type="curve"/>
      <point x="328.0" y="1402.75"/>
      <point x="187.0" y="986.5"/>
      <point x="63.25" y="524.25" type="curve" smooth="yes"/>
      <point x="-29.75" y="178.0"/>
      <point x="-113.5" y="-192.25"/>
      <point x="-161.5" y="-517.5" type="curve"/>
      <point x="-77.5" y="-523.5"/>
      <point x="3.5" y="-526.25"/>
    </contour>
  </outline>
</glyph>
<glyph name="backslash" format="2">
  <advance width="725.0"/>
  <unicode hex="005C"/>
  <outline>
    <contour>
      <point x="601.25" y="12.5" type="curve"/>
      <point x="513.0" y="483.5"/>
      <point x="461.5" y="955.0"/>
      <point x="461.5" y="1474.0" type="curve"/>
      <point x="349.5" y="1466.5"/>
      <point x="226.75" y="1434.75"/>
      <point x="175.25" y="1388.75" type="curve"/>
      <point x="181.25" y="844.75"/>
      <point x="219.5" y="381.75"/>
      <point x="313.0" y="-109.25" type="curve"/>
      <point x="401.25" y="-89.5"/>
      <point x="495.75" y="-49.0"/>
    </contour>
  </outline>
</glyph>
<glyph name="bracketright" format="2">
  <advance width="619.0"/>
  <unicode hex="005D"/>
  <outline>
    <contour>
      <point x="656.25" y="552.75" type="curve" smooth="yes"/>
      <point x="761.25" y="945.0"/>
      <point x="834.25" y="1327.0"/>
      <point x="853.5" y="1627.5" type="curve"/>
      <point x="736.5" y="1649.75"/>
      <point x="618.0" y="1658.5"/>
      <point x="479.5" y="1658.5" type="curve" smooth="yes"/>
      <point x="439.75" y="1658.5"/>
      <point x="384.0" y="1657.75"/>
      <point x="350.0" y="1656.25" type="curve"/>
      <point x="331.0" y="1613.0"/>
      <point x="305.0" y="1530.0"/>
      <point x="285.5" y="1461.75" type="curve"/>
      <point x="283.75" y="1446.0"/>
      <point x="286.25" y="1431.0"/>
      <point x="291.75" y="1417.5" type="curve" smooth="yes"/>
      <point x="361.25" y="1416.0"/>
      <point x="450.25" y="1415.0"/>
      <point x="521.0" y="1411.25" type="curve"/>
      <point x="512.25" y="1268.25"/>
      <point x="442.25" y="931.75"/>
      <point x="348.5" y="581.5" type="curve" smooth="yes"/>
      <point x="269.25" y="286.25"/>
      <point x="172.5" y="-19.25"/>
      <point x="83.75" y="-227.75" type="curve"/>
      <point x="40.5" y="-238.0"/>
      <point x="-96.25" y="-251.75"/>
      <point x="-150.0" y="-251.75" type="curve"/>
      <point x="-166.0" y="-312.75"/>
      <point x="-196.0" y="-430.0"/>
      <point x="-211.0" y="-500.75" type="curve"/>
      <point x="-80.5" y="-500.75"/>
      <point x="142.0" y="-493.5"/>
      <point x="307.25" y="-457.75" type="curve"/>
      <point x="412.0" y="-231.5"/>
      <point x="547.25" y="146.5"/>
    </contour>
  </outline>
</glyph>
<glyph name="asciicircum" format="2">
  <advance width="1032.0"/>
  <unicode hex="005E"/>
  <outline>
    <contour>
      <point x="890.0" y="1325.0" type="curve"/>
      <point x="869.5" y="1332.25"/>
      <point x="825.0" y="1335.5"/>
      <point x="776.75" y="1335.5" type="curve" smooth="yes"/>
      <point x="730.75" y="1335.5"/>
      <point x="682.5" y="1331.5"/>
      <point x="650.0" y="1326.0" type="curve"/>
      <point x="505.0" y="1217.0"/>
      <point x="255.5" y="976.0"/>
      <point x="100.5" y="812.0" type="curve"/>
      <point x="153.5" y="744.5"/>
      <point x="244.0" y="704.25"/>
      <point x="316.5" y="692.5" type="curve"/>
      <point x="410.25" y="808.25"/>
      <point x="632.75" y="1040.25"/>
      <point x="822.5" y="1166.75" type="curve"/>
      <point x="678.25" y="1173.5" type="line"/>
      <point x="756.25" y="1040.25"/>
      <point x="805.5" y="851.0"/>
      <point x="810.5" y="715.75" type="curve"/>
      <point x="932.75" y="737.5"/>
      <point x="1018.75" y="766.25"/>
      <point x="1074.5" y="805.0" type="curve"/>
      <point x="1049.0" y="1010.0"/>
      <point x="959.5" y="1218.0"/>
    </contour>
  </outline>
</glyph>
<glyph name="underscore" format="2">
  <advance width="1549.0"/>
  <unicode hex="005F"/>
  <outline>
    <contour>
      <point x="159.75" y="23.75" type="curve" smooth="yes"/>
      <point x="99.0" y="23.75"/>
      <point x="-7.75" y="23.75"/>
      <point x="-62.0" y="25.75" type="curve"/>
      <point x="-76.0" y="-44.25"/>
      <point x="-103.25" y="-200.5"/>
      <point x="-108.5" y="-240.25" type="curve"/>
      <point x="244.25" y="-248.0"/>
      <point x="598.0" y="-251.25"/>
      <point x="828.5" y="-251.25" type="curve" smooth="yes"/>
      <point x="1048.75" y="-251.25"/>
      <point x="1198.0" y="-248.0"/>
      <point x="1277.75" y="-245.0" type="curve"/>
      <point x="1306.25" y="-177.75"/>
      <point x="1345.25" y="-60.75"/>
      <point x="1376.0" y="53.5" type="curve"/>
      <point x="1163.75" y="44.0"/>
      <point x="621.0" y="23.75"/>
    </contour>
  </outline>
</glyph>
<glyph name="a" format="2">
  <advance width="1295.0"/>
  <unicode hex="0061"/>
  <anchor x="475.25" y="0.0" name="bottom"/>
  <anchor x="1059.5" y="2.5" name="ogonek"/>
  <anchor x="748.5" y="1063.0" name="top"/>
  <outline>
    <contour>
      <point x="389.5" y="-17.25" type="curve" smooth="yes"/>
      <point x="601.5" y="-17.25"/>
      <point x="774.75" y="78.75"/>
      <point x="824.75" y="170.5" type="curve"/>
      <point x="824.75" y="51.25"/>
      <point x="881.75" y="-8.25"/>
      <point x="992.75" y="-8.25" type="curve" smooth="yes"/>
      <point x="1097.25" y="-8.25"/>
      <point x="1178.5" y="38.5"/>
      <point x="1210.5" y="100.25" type="curve"/>
      <point x="1155.5" y="300.75" type="line"/>
      <point x="1134.5" y="266.0"/>
      <point x="1107.25" y="245.75"/>
      <point x="1071.5" y="245.75" type="curve" smooth="yes"/>
      <point x="1046.75" y="245.75"/>
      <point x="1033.75" y="254.5"/>
      <point x="1033.75" y="291.75" type="curve" smooth="yes"/>
      <point x="1033.75" y="351.75"/>
      <point x="1053.25" y="432.25"/>
      <point x="1075.0" y="511.5" type="curve" smooth="yes"/>
      <point x="1096.25" y="590.75"/>
      <point x="1113.0" y="674.75"/>
      <point x="1113.0" y="745.25" type="curve" smooth="yes"/>
      <point x="1113.0" y="981.0"/>
      <point x="954.5" y="1070.75"/>
      <point x="692.75" y="1070.75" type="curve" smooth="yes"/>
      <point x="478.25" y="1070.75"/>
      <point x="269.25" y="983.0"/>
      <point x="145.75" y="857.25" type="curve"/>
      <point x="347.0" y="699.5" type="line"/>
      <point x="402.5" y="764.0"/>
      <point x="526.5" y="825.0"/>
      <point x="640.25" y="825.0" type="curve" smooth="yes"/>
      <point x="745.5" y="825.0"/>
      <point x="810.25" y="791.5"/>
      <point x="829.0" y="724.0" type="curve" smooth="yes"/>
      <point x="840.25" y="694.0"/>
      <point x="840.25" y="647.5"/>
      <point x="837.75" y="624.5" type="curve"/>
      <point x="811.5" y="644.25"/>
      <point x="698.75" y="672.5"/>
      <point x="596.25" y="672.5" type="curve" smooth="yes"/>
      <point x="303.75" y="672.5"/>
      <point x="11.75" y="568.25"/>
      <point x="11.75" y="271.0" type="curve" smooth="yes"/>
      <point x="11.75" y="63.75"/>
      <point x="161.25" y="-17.25"/>
    </contour>
    <contour>
      <point x="501.75" y="217.75" type="curve" smooth="yes"/>
      <point x="383.25" y="217.75"/>
      <point x="333.75" y="248.5"/>
      <point x="333.75" y="323.25" type="curve" smooth="yes"/>
      <point x="333.75" y="420.75"/>
      <point x="480.5" y="463.75"/>
      <point x="600.0" y="463.75" type="curve" smooth="yes"/>
      <point x="689.5" y="463.75"/>
      <point x="777.75" y="446.0"/>
      <point x="804.25" y="434.0" type="curve"/>
      <point x="795.0" y="402.25"/>
      <point x="784.75" y="355.5"/>
      <point x="776.5" y="313.75" type="curve"/>
      <point x="721.25" y="261.75"/>
      <point x="596.75" y="217.75"/>
    </contour>
  </outline>
</glyph>
<glyph name="b" format="2">
  <advance width="1200.0"/>
  <unicode hex="0062"/>
  <anchor x="452.68874999999997" y="0.0" name="bottom"/>
  <anchor x="846.3525" y="1470.0" name="top"/>
  <outline>
    <contour>
      <point x="12.5" y="-7.0" type="curve"/>
      <point x="92.25" y="-16.75"/>
      <point x="229.75" y="-19.25"/>
      <point x="328.0" y="-19.0" type="curve"/>
      <point x="331.0" y="1.5"/>
      <point x="347.5" y="74.75"/>
      <point x="356.75" y="113.75" type="curve"/>
      <point x="378.0" y="73.75"/>
      <point x="478.5" y="1.5"/>
      <point x="622.75" y="1.5" type="curve" smooth="yes"/>
      <point x="942.0" y="1.5"/>
      <point x="1136.25" y="270.25"/>
      <point x="1136.25" y="582.75" type="curve" smooth="yes"/>
      <point x="1136.25" y="809.0"/>
      <point x="1029.75" y="919.25"/>
      <point x="829.75" y="919.25" type="curve" smooth="yes"/>
      <point x="689.75" y="919.25"/>
      <point x="573.0" y="839.25"/>
      <point x="498.5" y="775.5" type="curve"/>
      <point x="551.5" y="1036.75"/>
      <point x="619.75" y="1311.5"/>
      <point x="654.25" y="1438.75" type="curve"/>
      <point x="489.25" y="1414.75"/>
      <point x="362.0" y="1392.5"/>
      <point x="343.0" y="1388.75" type="curve"/>
      <point x="286.0" y="1176.75"/>
      <point x="44.25" y="157.0"/>
    </contour>
    <contour>
      <point x="407.5" y="338.25" type="curve"/>
      <point x="413.5" y="366.75"/>
      <point x="442.5" y="502.5"/>
      <point x="448.25" y="529.75" type="curve"/>
      <point x="496.75" y="579.0"/>
      <point x="591.75" y="663.25"/>
      <point x="718.5" y="663.25" type="curve" smooth="yes"/>
      <point x="816.5" y="663.25"/>
      <point x="846.5" y="609.5"/>
      <point x="846.5" y="521.25" type="curve" smooth="yes"/>
      <point x="846.5" y="377.5"/>
      <point x="753.75" y="278.5"/>
      <point x="599.0" y="278.5" type="curve" smooth="yes"/>
      <point x="511.75" y="278.5"/>
      <point x="433.0" y="316.5"/>
    </contour>
  </outline>
</glyph>
<glyph name="c" format="2">
  <advance width="1026.0"/>
  <unicode hex="0063"/>
  <anchor x="402.0" y="0.0" name="bottom"/>
  <anchor x="652.81125" y="1063.0" name="top"/>
  <outline>
    <contour>
      <point x="913.0" y="212.0" type="curve"/>
      <point x="750.75" y="437.25" type="line"/>
      <point x="731.5" y="413.25"/>
      <point x="628.75" y="313.0"/>
      <point x="500.75" y="313.0" type="curve" smooth="yes"/>
      <point x="391.75" y="313.0"/>
      <point x="355.0" y="382.5"/>
      <point x="355.0" y="476.75" type="curve" smooth="yes"/>
      <point x="355.0" y="673.25"/>
      <point x="465.25" y="845.25"/>
      <point x="659.75" y="845.25" type="curve" smooth="yes"/>
      <point x="785.75" y="845.25"/>
      <point x="806.75" y="760.5"/>
      <point x="809.25" y="738.5" type="curve"/>
      <point x="1059.0" y="861.25" type="line"/>
      <point x="1018.75" y="1003.25"/>
      <point x="875.25" y="1095.5"/>
      <point x="688.25" y="1095.5" type="curve" smooth="yes"/>
      <point x="314.5" y="1095.5"/>
      <point x="46.75" y="799.75"/>
      <point x="46.75" y="413.5" type="curve" smooth="yes"/>
      <point x="46.75" y="169.0"/>
      <point x="162.0" y="-10.0"/>
      <point x="422.5" y="-10.0" type="curve" smooth="yes"/>
      <point x="655.75" y="-10.0"/>
      <point x="839.75" y="107.0"/>
    </contour>
  </outline>
</glyph>
<glyph name="d" format="2">
  <advance width="1195.0"/>
  <unicode hex="0064"/>
  <anchor x="433.39625" y="0.0" name="bottom"/>
  <anchor x="1062.0" y="1188.25" name="center"/>
  <anchor x="826.6175000000001" y="1470.0" name="top"/>
  <anchor x="1262.25" y="1016.75" name="topright"/>
  <outline>
    <contour>
      <point x="669.5" y="3.0" type="curve"/>
      <point x="730.75" y="-3.25"/>
      <point x="887.5" y="-5.75"/>
      <point x="936.25" y="-5.75" type="curve"/>
      <point x="1068.75" y="501.0"/>
      <point x="1193.25" y="953.0"/>
      <point x="1351.0" y="1412.75" type="curve"/>
      <point x="1282.0" y="1431.75"/>
      <point x="1177.0" y="1440.5"/>
      <point x="1100.0" y="1440.5" type="curve"/>
      <point x="1069.5" y="1362.5"/>
      <point x="952.0" y="1031.0"/>
      <point x="902.25" y="847.75" type="curve"/>
      <point x="878.25" y="899.0"/>
      <point x="763.5" y="959.0"/>
      <point x="614.0" y="959.0" type="curve" smooth="yes"/>
      <point x="278.75" y="959.0"/>
      <point x="42.25" y="718.5"/>
      <point x="42.25" y="379.5" type="curve" smooth="yes"/>
      <point x="42.25" y="166.5"/>
      <point x="189.25" y="-0.25"/>
      <point x="378.75" y="-0.25" type="curve" smooth="yes"/>
      <point x="580.75" y="-0.25"/>
      <point x="665.0" y="95.5"/>
      <point x="702.5" y="140.75" type="curve"/>
      <point x="693.0" y="106.5"/>
      <point x="674.5" y="31.25"/>
    </contour>
    <contour>
      <point x="494.5" y="292.0" type="curve" smooth="yes"/>
      <point x="403.5" y="292.0"/>
      <point x="341.25" y="345.0"/>
      <point x="341.25" y="451.5" type="curve" smooth="yes"/>
      <point x="341.25" y="604.0"/>
      <point x="455.75" y="703.25"/>
      <point x="607.25" y="703.25" type="curve" smooth="yes"/>
      <point x="701.75" y="703.25"/>
      <point x="791.75" y="658.75"/>
      <point x="824.5" y="617.75" type="curve"/>
      <point x="812.25" y="576.5"/>
      <point x="781.25" y="468.5"/>
      <point x="766.0" y="414.5" type="curve"/>
      <point x="709.25" y="359.25"/>
      <point x="607.25" y="292.0"/>
    </contour>
  </outline>
</glyph>
<glyph name="e" format="2">
  <advance width="1115.25"/>
  <unicode hex="0065"/>
  <anchor x="408.25" y="10.0" name="bottom"/>
  <anchor x="661.5" y="26.75" name="ogonek"/>
  <anchor x="734.75" y="1063.0" name="top"/>
  <outline>
    <contour>
      <point x="972.5" y="180.5" type="curve"/>
      <point x="950.75" y="260.75"/>
      <point x="838.75" y="401.5"/>
      <point x="824.75" y="414.75" type="curve"/>
      <point x="748.0" y="355.75"/>
      <point x="658.25" y="287.0"/>
      <point x="534.75" y="287.0" type="curve" smooth="yes"/>
      <point x="431.0" y="287.0"/>
      <point x="354.0" y="338.5"/>
      <point x="354.0" y="425.25" type="curve" smooth="yes"/>
      <point x="354.0" y="451.5"/>
      <point x="357.25" y="471.0"/>
      <point x="362.75" y="486.0" type="curve"/>
      <point x="421.5" y="495.5"/>
      <point x="548.75" y="507.25"/>
      <point x="662.0" y="508.5" type="curve" smooth="yes"/>
      <point x="733.75" y="509.75"/>
      <point x="1002.0" y="506.5"/>
      <point x="1038.25" y="505.0" type="curve"/>
      <point x="1073.5" y="575.25"/>
      <point x="1092.75" y="660.25"/>
      <point x="1092.75" y="738.5" type="curve" smooth="yes"/>
      <point x="1092.75" y="944.25"/>
      <point x="959.75" y="1064.75"/>
      <point x="723.75" y="1064.75" type="curve" smooth="yes"/>
      <point x="342.75" y="1064.75"/>
      <point x="43.75" y="793.75"/>
      <point x="43.75" y="377.0" type="curve" smooth="yes"/>
      <point x="43.75" y="128.25"/>
      <point x="209.25" y="-5.25"/>
      <point x="463.5" y="-5.25" type="curve" smooth="yes"/>
      <point x="713.75" y="-5.25"/>
      <point x="874.75" y="89.25"/>
    </contour>
    <contour>
      <point x="421.25" y="672.5" type="curve"/>
      <point x="446.25" y="773.25"/>
      <point x="556.5" y="869.25"/>
      <point x="685.5" y="869.25" type="curve" smooth="yes"/>
      <point x="781.75" y="869.25"/>
      <point x="827.5" y="812.0"/>
      <point x="829.0" y="745.75" type="curve" smooth="yes"/>
      <point x="829.0" y="726.5"/>
      <point x="827.5" y="705.75"/>
      <point x="822.75" y="689.25" type="curve"/>
      <point x="807.25" y="690.0"/>
      <point x="740.75" y="690.75"/>
      <point x="676.0" y="690.0" type="curve" smooth="yes"/>
      <point x="562.75" y="688.75"/>
      <point x="467.25" y="679.75"/>
    </contour>
  </outline>
</glyph>
<glyph name="f" format="2">
  <advance width="896.0"/>
  <unicode hex="0066"/>
  <anchor x="305.585" y="0.0" name="bottom"/>
  <anchor x="699.47" y="1470.0" name="top"/>
  <outline>
    <contour>
      <point x="116.75" y="-10.75" type="curve"/>
      <point x="217.0" y="-10.5"/>
      <point x="380.5" y="-6.0"/>
      <point x="464.75" y="7.75" type="curve"/>
      <point x="467.75" y="70.0"/>
      <point x="496.75" y="418.0"/>
      <point x="506.25" y="502.0" type="curve"/>
      <point x="576.75" y="509.25"/>
      <point x="716.5" y="515.0"/>
      <point x="735.5" y="515.0" type="curve"/>
      <point x="756.75" y="591.75"/>
      <point x="782.25" y="699.75"/>
      <point x="792.25" y="769.75" type="curve"/>
      <point x="746.25" y="774.25"/>
      <point x="606.0" y="774.25"/>
      <point x="543.0" y="771.75" type="curve"/>
      <point x="545.75" y="802.25"/>
      <point x="552.25" y="846.75"/>
      <point x="560.75" y="879.0" type="curve" smooth="yes"/>
      <point x="585.75" y="974.5"/>
      <point x="642.25" y="1052.25"/>
      <point x="738.0" y="1052.25" type="curve" smooth="yes"/>
      <point x="810.75" y="1052.25"/>
      <point x="847.75" y="979.0"/>
      <point x="866.0" y="935.0" type="curve"/>
      <point x="904.0" y="972.5"/>
      <point x="1028.5" y="1109.25"/>
      <point x="1091.5" y="1186.25" type="curve"/>
      <point x="1073.5" y="1240.5"/>
      <point x="999.25" y="1359.75"/>
      <point x="773.75" y="1359.75" type="curve" smooth="yes"/>
      <point x="499.25" y="1359.75"/>
      <point x="319.75" y="1142.25"/>
      <point x="255.5" y="904.25" type="curve" smooth="yes"/>
      <point x="240.25" y="847.25"/>
      <point x="228.75" y="785.0"/>
      <point x="221.0" y="725.5" type="curve"/>
      <point x="193.5" y="720.5"/>
      <point x="103.0" y="698.25"/>
      <point x="75.75" y="689.0" type="curve"/>
      <point x="54.0" y="611.75"/>
      <point x="36.75" y="480.75"/>
      <point x="36.5" y="418.75" type="curve"/>
      <point x="81.5" y="433.75"/>
      <point x="146.0" y="450.25"/>
      <point x="176.0" y="455.5" type="curve"/>
      <point x="157.75" y="326.75"/>
      <point x="118.5" y="7.5"/>
    </contour>
  </outline>
</glyph>
<glyph name="g" format="2">
  <advance width="1231.0"/>
  <unicode hex="0067"/>
  <anchor x="331.572" y="-530.0" name="bottom"/>
  <anchor x="758.415" y="1063.0" name="top"/>
  <outline>
    <contour>
      <point x="606.5" y="256.75" type="curve" smooth="yes"/>
      <point x="919.5" y="256.75"/>
      <point x="1160.75" y="433.0"/>
      <point x="1160.75" y="738.5" type="curve" smooth="yes"/>
      <point x="1160.75" y="780.0"/>
      <point x="1154.25" y="817.25"/>
      <point x="1141.5" y="850.75" type="curve"/>
      <point x="1194.25" y="909.25"/>
      <point x="1273.0" y="959.75"/>
      <point x="1327.5" y="983.75" type="curve"/>
      <point x="1301.25" y="1032.25"/>
      <point x="1252.5" y="1136.0"/>
      <point x="1235.0" y="1177.75" type="curve"/>
      <point x="1161.75" y="1145.75"/>
      <point x="1062.5" y="1071.0"/>
      <point x="1003.75" y="1002.5" type="curve"/>
      <point x="940.0" y="1037.25"/>
      <point x="853.75" y="1056.0"/>
      <point x="745.5" y="1056.0" type="curve" smooth="yes"/>
      <point x="421.75" y="1056.0"/>
      <point x="144.75" y="898.25"/>
      <point x="144.75" y="587.25" type="curve" smooth="yes"/>
      <point x="144.75" y="521.25"/>
      <point x="159.75" y="456.75"/>
      <point x="198.75" y="402.25" type="curve"/>
      <point x="122.75" y="369.25"/>
      <point x="55.0" y="294.5"/>
      <point x="55.0" y="215.75" type="curve" smooth="yes"/>
      <point x="55.0" y="174.0"/>
      <point x="77.25" y="135.75"/>
      <point x="132.75" y="104.75" type="curve"/>
      <point x="-17.75" y="43.75"/>
      <point x="-130.25" y="-65.5"/>
      <point x="-130.25" y="-220.25" type="curve" smooth="yes"/>
      <point x="-130.25" y="-427.5"/>
      <point x="68.0" y="-499.0"/>
      <point x="361.0" y="-499.0" type="curve" smooth="yes"/>
      <point x="698.75" y="-499.0"/>
      <point x="988.75" y="-380.75"/>
      <point x="988.75" y="-66.5" type="curve" smooth="yes"/>
      <point x="988.75" y="93.5"/>
      <point x="876.0" y="173.25"/>
      <point x="687.25" y="173.25" type="curve" smooth="yes"/>
      <point x="557.75" y="173.25"/>
      <point x="490.5" y="170.25"/>
      <point x="406.75" y="165.75" type="curve" smooth="yes"/>
      <point x="340.5" y="165.75"/>
      <point x="308.5" y="195.0"/>
      <point x="308.5" y="227.75" type="curve" smooth="yes"/>
      <point x="308.5" y="253.25"/>
      <point x="329.5" y="278.5"/>
      <point x="366.5" y="296.75" type="curve"/>
      <point x="427.75" y="272.25"/>
      <point x="506.75" y="256.75"/>
    </contour>
    <contour>
      <point x="405.75" y="-305.25" type="curve" smooth="yes"/>
      <point x="273.0" y="-305.25"/>
      <point x="186.25" y="-266.5"/>
      <point x="186.25" y="-192.25" type="curve" smooth="yes"/>
      <point x="186.25" y="-103.5"/>
      <point x="265.25" y="-57.25"/>
      <point x="360.75" y="-57.25" type="curve" smooth="yes"/>
      <point x="545.75" y="-57.25" type="line" smooth="yes"/>
      <point x="615.75" y="-57.25"/>
      <point x="680.0" y="-77.5"/>
      <point x="680.0" y="-142.75" type="curve" smooth="yes"/>
      <point x="680.0" y="-258.0"/>
      <point x="544.25" y="-305.25"/>
    </contour>
    <contour>
      <point x="633.5" y="495.0" type="curve" smooth="yes"/>
      <point x="534.25" y="495.0"/>
      <point x="469.25" y="543.25"/>
      <point x="469.25" y="627.75" type="curve" smooth="yes"/>
      <point x="469.25" y="763.0"/>
      <point x="593.5" y="824.0"/>
      <point x="719.5" y="824.0" type="curve" smooth="yes"/>
      <point x="810.75" y="824.0"/>
      <point x="871.5" y="769.75"/>
      <point x="871.5" y="687.0" type="curve" smooth="yes"/>
      <point x="871.5" y="559.0"/>
      <point x="765.0" y="495.0"/>
    </contour>
  </outline>
</glyph>
<glyph name="h" format="2">
  <advance width="1123.0"/>
  <unicode hex="0068"/>
  <anchor x="409.68874999999997" y="0.0" name="bottom"/>
  <anchor x="520.25" y="1208.0" name="center"/>
  <anchor x="442.0" y="1408.5" name="top"/>
  <outline>
    <contour>
      <point x="248.0" y="-11.0" type="curve"/>
      <point x="292.0" y="87.75"/>
      <point x="364.75" y="308.5"/>
      <point x="421.75" y="515.25" type="curve"/>
      <point x="471.75" y="569.5"/>
      <point x="568.75" y="641.75"/>
      <point x="665.25" y="641.75" type="curve" smooth="yes"/>
      <point x="725.25" y="641.75"/>
      <point x="753.75" y="603.75"/>
      <point x="753.75" y="548.5" type="curve" smooth="yes"/>
      <point x="753.75" y="452.0"/>
      <point x="629.25" y="140.25"/>
      <point x="569.75" y="4.0" type="curve"/>
      <point x="611.25" y="-4.75"/>
      <point x="664.0" y="-9.75"/>
      <point x="718.25" y="-9.75" type="curve" smooth="yes"/>
      <point x="768.0" y="-9.75"/>
      <point x="819.25" y="-6.0"/>
      <point x="867.75" y="1.75" type="curve"/>
      <point x="952.75" y="195.75"/>
      <point x="1078.75" y="538.0"/>
      <point x="1078.75" y="699.0" type="curve" smooth="yes"/>
      <point x="1078.75" y="839.0"/>
      <point x="1007.75" y="912.0"/>
      <point x="845.75" y="912.0" type="curve" smooth="yes"/>
      <point x="722.75" y="912.0"/>
      <point x="579.75" y="855.5"/>
      <point x="496.0" y="780.5" type="curve"/>
      <point x="561.5" y="1051.0"/>
      <point x="605.0" y="1292.0"/>
      <point x="614.25" y="1443.0" type="curve"/>
      <point x="556.25" y="1442.5"/>
      <point x="336.25" y="1411.5"/>
      <point x="314.5" y="1404.5" type="curve"/>
      <point x="270.25" y="1189.0"/>
      <point x="206.75" y="891.0"/>
      <point x="134.0" y="620.5" type="curve" smooth="yes"/>
      <point x="63.5" y="357.25"/>
      <point x="-15.75" y="116.75"/>
      <point x="-62.5" y="-4.25" type="curve"/>
      <point x="-37.25" y="-15.0"/>
      <point x="26.0" y="-19.25"/>
      <point x="95.75" y="-19.25" type="curve" smooth="yes"/>
      <point x="155.0" y="-19.25"/>
      <point x="215.25" y="-16.25"/>
    </contour>
  </outline>
</glyph>
<glyph name="i" format="2">
  <advance width="610.0"/>
  <unicode hex="0069"/>
  <anchor x="163.0" y="0.0" name="bottom"/>
  <outline>
    <contour>
      <point x="291.75" y="1.5" type="curve"/>
      <point x="334.75" y="85.5"/>
      <point x="439.75" y="421.0"/>
      <point x="504.5" y="664.25" type="curve" smooth="yes"/>
      <point x="534.75" y="777.5"/>
      <point x="556.75" y="883.0"/>
      <point x="560.75" y="926.0" type="curve"/>
      <point x="489.75" y="926.0"/>
      <point x="335.75" y="917.75"/>
      <point x="266.0" y="911.25" type="curve"/>
      <point x="205.5" y="704.5"/>
      <point x="9.25" y="90.25"/>
      <point x="-28.75" y="3.25" type="curve"/>
      <point x="20.25" y="-3.25"/>
      <point x="73.0" y="-6.0"/>
      <point x="124.5" y="-6.0" type="curve" smooth="yes"/>
      <point x="194.5" y="-6.0"/>
      <point x="268.25" y="-0.5"/>
    </contour>
    <contour>
      <point x="467.0" y="1046.75" type="curve" smooth="yes"/>
      <point x="593.75" y="1046.75"/>
      <point x="701.0" y="1156.5"/>
      <point x="701.0" y="1281.25" type="curve" smooth="yes"/>
      <point x="701.0" y="1364.0"/>
      <point x="635.5" y="1426.25"/>
      <point x="544.0" y="1426.25" type="curve" smooth="yes"/>
      <point x="410.0" y="1426.25"/>
      <point x="291.5" y="1322.75"/>
      <point x="291.5" y="1186.75" type="curve" smooth="yes"/>
      <point x="291.5" y="1100.75"/>
      <point x="366.25" y="1046.75"/>
    </contour>
  </outline>
</glyph>
<glyph name="j" format="2">
  <advance width="690.25"/>
  <unicode hex="006A"/>
  <outline>
    <contour>
      <point x="504.5" y="214.75" type="curve" smooth="yes"/>
      <point x="567.25" y="463.0"/>
      <point x="596.25" y="775.25"/>
      <point x="600.75" y="897.25" type="curve"/>
      <point x="262.25" y="881.0" type="line"/>
      <point x="254.25" y="688.25"/>
      <point x="206.25" y="395.75"/>
      <point x="149.75" y="182.5" type="curve" smooth="yes"/>
      <point x="102.75" y="6.25"/>
      <point x="30.5" y="-227.0"/>
      <point x="-87.75" y="-227.0" type="curve" smooth="yes"/>
      <point x="-171.5" y="-227.0"/>
      <point x="-208.5" y="-148.5"/>
      <point x="-211.75" y="-66.0" type="curve"/>
      <point x="-296.5" y="-90.5"/>
      <point x="-430.5" y="-146.25"/>
      <point x="-529.0" y="-204.75" type="curve"/>
      <point x="-521.0" y="-382.75"/>
      <point x="-353.75" y="-504.75"/>
      <point x="-136.75" y="-504.75" type="curve" smooth="yes"/>
      <point x="205.75" y="-504.75"/>
      <point x="387.0" y="-253.25"/>
    </contour>
    <contour>
      <point x="497.25" y="1412.75" type="curve" smooth="yes"/>
      <point x="360.5" y="1412.75"/>
      <point x="239.75" y="1300.25"/>
      <point x="239.75" y="1169.5" type="curve" smooth="yes"/>
      <point x="239.75" y="1082.75"/>
      <point x="313.25" y="1012.5"/>
      <point x="420.5" y="1012.5" type="curve" smooth="yes"/>
      <point x="549.75" y="1012.5"/>
      <point x="684.5" y="1119.25"/>
      <point x="684.5" y="1247.0" type="curve" smooth="yes"/>
      <point x="684.5" y="1330.75"/>
      <point x="617.0" y="1412.75"/>
    </contour>
  </outline>
</glyph>
<glyph name="k" format="2">
  <advance width="1156.0"/>
  <unicode hex="006B"/>
  <anchor x="440.68874999999997" y="0.0" name="bottom"/>
  <anchor x="834.3525" y="1470.0" name="top"/>
  <outline>
    <contour>
      <point x="712.5" y="-51.25" type="curve"/>
      <point x="772.0" y="-36.75"/>
      <point x="983.25" y="38.0"/>
      <point x="1029.0" y="62.5" type="curve"/>
      <point x="960.25" y="264.75"/>
      <point x="826.0" y="478.5"/>
      <point x="755.0" y="537.0" type="curve"/>
      <point x="843.0" y="591.75"/>
      <point x="1083.5" y="724.25"/>
      <point x="1207.5" y="791.0" type="curve"/>
      <point x="1188.0" y="849.75"/>
      <point x="1116.5" y="985.75"/>
      <point x="1071.0" y="1024.25" type="curve"/>
      <point x="907.25" y="940.25"/>
      <point x="620.75" y="791.25"/>
      <point x="483.75" y="665.5" type="curve"/>
      <point x="529.75" y="800.5"/>
      <point x="638.25" y="1164.25"/>
      <point x="714.5" y="1432.5" type="curve"/>
      <point x="668.0" y="1447.75"/>
      <point x="609.5" y="1454.0"/>
      <point x="546.25" y="1454.0" type="curve" smooth="yes"/>
      <point x="502.25" y="1454.0"/>
      <point x="456.0" y="1451.0"/>
      <point x="411.25" y="1447.25" type="curve"/>
      <point x="347.25" y="1248.75"/>
      <point x="25.75" y="210.5"/>
      <point x="-45.75" y="-22.0" type="curve"/>
      <point x="-5.25" y="-27.25"/>
      <point x="52.0" y="-32.25"/>
      <point x="117.0" y="-32.25" type="curve" smooth="yes"/>
      <point x="164.75" y="-32.25"/>
      <point x="216.5" y="-29.5"/>
      <point x="267.5" y="-23.75" type="curve"/>
      <point x="287.25" y="33.0"/>
      <point x="335.75" y="180.75"/>
      <point x="369.0" y="296.0" type="curve"/>
      <point x="384.5" y="307.25"/>
      <point x="474.0" y="361.75"/>
      <point x="505.75" y="379.75" type="curve"/>
      <point x="581.5" y="327.25"/>
      <point x="690.75" y="49.25"/>
    </contour>
  </outline>
</glyph>
<glyph name="l" format="2">
  <advance width="645.0"/>
  <unicode hex="006C"/>
  <anchor x="165.585" y="0.0" name="bottom"/>
  <anchor x="362.528" y="735.0" name="center"/>
  <anchor x="559.47" y="1470.0" name="top"/>
  <anchor x="594.75" y="1035.25" name="topright"/>
  <outline>
    <contour>
      <point x="538.75" y="46.75" type="curve"/>
      <point x="534.75" y="71.75"/>
      <point x="502.0" y="263.25"/>
      <point x="493.0" y="295.0" type="curve"/>
      <point x="465.0" y="262.0"/>
      <point x="431.25" y="240.0"/>
      <point x="385.25" y="240.0" type="curve" smooth="yes"/>
      <point x="344.75" y="240.0"/>
      <point x="331.0" y="268.75"/>
      <point x="331.0" y="314.25" type="curve" smooth="yes"/>
      <point x="331.0" y="449.25"/>
      <point x="484.25" y="914.75"/>
      <point x="658.75" y="1426.0" type="curve"/>
      <point x="598.75" y="1431.25"/>
      <point x="551.0" y="1434.0"/>
      <point x="499.75" y="1434.0" type="curve" smooth="yes"/>
      <point x="462.5" y="1434.0"/>
      <point x="414.25" y="1432.25"/>
      <point x="366.5" y="1429.0" type="curve"/>
      <point x="258.0" y="1107.0"/>
      <point x="20.0" y="396.75"/>
      <point x="20.0" y="164.0" type="curve" smooth="yes"/>
      <point x="20.0" y="35.0"/>
      <point x="99.0" y="-40.25"/>
      <point x="258.0" y="-40.25" type="curve" smooth="yes"/>
      <point x="383.0" y="-40.25"/>
      <point x="489.75" y="7.5"/>
    </contour>
  </outline>
</glyph>
<glyph name="m" format="2">
  <advance width="1858.0"/>
  <unicode hex="006D"/>
  <anchor x="786.585" y="0.0" name="bottom"/>
  <anchor x="1071.415" y="1063.0" name="top"/>
  <outline>
    <contour>
      <point x="-5.5" y="-7.75" type="curve"/>
      <point x="31.75" y="-12.5"/>
      <point x="124.75" y="-16.75"/>
      <point x="209.5" y="-16.75" type="curve" smooth="yes"/>
      <point x="244.0" y="-16.75"/>
      <point x="302.25" y="-14.75"/>
      <point x="317.25" y="-13.75" type="curve"/>
      <point x="321.5" y="16.75"/>
      <point x="371.0" y="270.0"/>
      <point x="444.25" y="589.25" type="curve"/>
      <point x="485.0" y="670.5"/>
      <point x="612.0" y="774.0"/>
      <point x="717.75" y="774.0" type="curve" smooth="yes"/>
      <point x="790.75" y="774.0"/>
      <point x="819.0" y="730.75"/>
      <point x="819.0" y="644.5" type="curve" smooth="yes"/>
      <point x="819.0" y="519.0"/>
      <point x="746.5" y="238.5"/>
      <point x="678.0" y="-7.0" type="curve"/>
      <point x="702.25" y="-11.0"/>
      <point x="767.75" y="-13.0"/>
      <point x="830.75" y="-13.0" type="curve" smooth="yes"/>
      <point x="883.5" y="-13.0"/>
      <point x="936.75" y="-11.0"/>
      <point x="964.5" y="-9.0" type="curve"/>
      <point x="987.75" y="74.75"/>
      <point x="1011.0" y="156.5"/>
      <point x="1034.0" y="231.5" type="curve" smooth="yes"/>
      <point x="1123.0" y="528.25"/>
      <point x="1224.25" y="770.25"/>
      <point x="1408.0" y="770.25" type="curve" smooth="yes"/>
      <point x="1470.5" y="770.25"/>
      <point x="1498.25" y="730.75"/>
      <point x="1498.25" y="656.0" type="curve" smooth="yes"/>
      <point x="1498.25" y="508.0"/>
      <point x="1386.0" y="217.75"/>
      <point x="1291.75" y="-9.75" type="curve"/>
      <point x="1343.75" y="-14.75"/>
      <point x="1397.75" y="-16.5"/>
      <point x="1451.0" y="-16.5" type="curve" smooth="yes"/>
      <point x="1501.5" y="-16.5"/>
      <point x="1555.5" y="-14.5"/>
      <point x="1605.0" y="-11.25" type="curve"/>
      <point x="1698.75" y="272.0"/>
      <point x="1794.75" y="574.25"/>
      <point x="1794.75" y="767.0" type="curve" smooth="yes"/>
      <point x="1794.75" y="947.75"/>
      <point x="1705.25" y="1044.75"/>
      <point x="1499.75" y="1044.75" type="curve" smooth="yes"/>
      <point x="1300.0" y="1044.75"/>
      <point x="1136.0" y="898.5"/>
      <point x="1052.75" y="754.25" type="curve"/>
      <point x="1057.0" y="787.25"/>
      <point x="1060.0" y="823.25"/>
      <point x="1056.25" y="856.75" type="curve" smooth="yes"/>
      <point x="1042.75" y="952.0"/>
      <point x="984.0" y="1036.75"/>
      <point x="849.25" y="1036.75" type="curve" smooth="yes"/>
      <point x="657.0" y="1036.75"/>
      <point x="532.0" y="907.75"/>
      <point x="502.25" y="857.25" type="curve"/>
      <point x="509.25" y="886.25"/>
      <point x="532.0" y="982.75"/>
      <point x="543.75" y="1027.0" type="curve"/>
      <point x="477.5" y="1026.75"/>
      <point x="296.25" y="1006.5"/>
      <point x="228.5" y="989.5" type="curve"/>
      <point x="174.0" y="786.0"/>
      <point x="34.0" y="207.25"/>
    </contour>
  </outline>
</glyph>
<glyph name="n" format="2">
  <advance width="1330.0"/>
  <unicode hex="006E"/>
  <anchor x="522.585" y="0.0" name="bottom"/>
  <anchor x="807.415" y="1063.0" name="top"/>
  <outline>
    <contour>
      <point x="303.0" y="-13.5" type="curve"/>
      <point x="347.5" y="97.5"/>
      <point x="430.5" y="326.25"/>
      <point x="518.25" y="642.25" type="curve"/>
      <point x="596.75" y="701.0"/>
      <point x="727.5" y="773.5"/>
      <point x="845.75" y="773.5" type="curve" smooth="yes"/>
      <point x="938.75" y="773.5"/>
      <point x="973.5" y="728.75"/>
      <point x="973.5" y="653.0" type="curve" smooth="yes"/>
      <point x="973.5" y="509.5"/>
      <point x="834.5" y="162.75"/>
      <point x="757.0" y="-3.0" type="curve"/>
      <point x="785.0" y="-6.25"/>
      <point x="852.0" y="-8.25"/>
      <point x="920.25" y="-8.25" type="curve" smooth="yes"/>
      <point x="984.0" y="-8.25"/>
      <point x="1047.25" y="-6.0"/>
      <point x="1076.25" y="-3.0" type="curve"/>
      <point x="1174.25" y="250.75"/>
      <point x="1299.25" y="628.5"/>
      <point x="1299.25" y="815.5" type="curve" smooth="yes"/>
      <point x="1299.25" y="977.75"/>
      <point x="1221.25" y="1060.0"/>
      <point x="1018.0" y="1060.0" type="curve" smooth="yes"/>
      <point x="852.75" y="1060.0"/>
      <point x="656.5" y="956.25"/>
      <point x="587.5" y="880.75" type="curve"/>
      <point x="602.0" y="927.75"/>
      <point x="626.25" y="1017.5"/>
      <point x="630.0" y="1036.25" type="curve"/>
      <point x="596.5" y="1042.0"/>
      <point x="548.5" y="1044.25"/>
      <point x="499.25" y="1044.25" type="curve" smooth="yes"/>
      <point x="428.75" y="1044.25"/>
      <point x="353.25" y="1039.75"/>
      <point x="300.75" y="1033.0" type="curve"/>
      <point x="173.5" y="559.0"/>
      <point x="72.5" y="217.75"/>
      <point x="-11.5" y="-4.75" type="curve"/>
      <point x="13.5" y="-7.5"/>
      <point x="90.25" y="-11.0"/>
      <point x="139.25" y="-12.5" type="curve" smooth="yes"/>
      <point x="199.25" y="-14.0"/>
      <point x="261.75" y="-13.75"/>
    </contour>
  </outline>
</glyph>
<glyph name="o" format="2">
  <advance width="1170.5"/>
  <unicode hex="006F"/>
  <anchor x="433.75" y="0.0" name="bottom"/>
  <anchor x="575.75" y="532.0" name="center"/>
  <anchor x="634.5" y="0.0" name="ogonek"/>
  <anchor x="717.75" y="1063.0" name="top"/>
  <anchor x="979.0" y="941.0" name="topright"/>
  <outline>
    <contour>
      <point x="483.0" y="-22.5" type="curve" smooth="yes"/>
      <point x="873.0" y="-22.5"/>
      <point x="1109.5" y="258.5"/>
      <point x="1109.5" y="658.75" type="curve" smooth="yes"/>
      <point x="1109.5" y="906.0"/>
      <point x="992.75" y="1062.75"/>
      <point x="714.5" y="1062.75" type="curve" smooth="yes"/>
      <point x="316.75" y="1062.75"/>
      <point x="49.25" y="774.0"/>
      <point x="49.25" y="366.25" type="curve" smooth="yes"/>
      <point x="49.25" y="124.25"/>
      <point x="191.5" y="-22.5"/>
    </contour>
    <contour>
      <point x="524.75" y="264.5" type="curve" smooth="yes"/>
      <point x="414.75" y="264.5"/>
      <point x="361.5" y="343.75"/>
      <point x="361.5" y="454.0" type="curve" smooth="yes"/>
      <point x="361.5" y="642.75"/>
      <point x="475.75" y="830.25"/>
      <point x="662.0" y="830.25" type="curve" smooth="yes"/>
      <point x="778.5" y="830.25"/>
      <point x="825.75" y="743.75"/>
      <point x="825.75" y="631.0" type="curve" smooth="yes"/>
      <point x="825.75" y="439.25"/>
      <point x="717.75" y="264.5"/>
    </contour>
  </outline>
</glyph>
<glyph name="p" format="2">
  <advance width="1221.5"/>
  <unicode hex="0070"/>
  <anchor x="457.585" y="0.0" name="bottom"/>
  <anchor x="742.415" y="1063.0" name="top"/>
  <outline>
    <contour>
      <point x="-205.5" y="-448.5" type="curve"/>
      <point x="-142.75" y="-448.5"/>
      <point x="-3.25" y="-442.75"/>
      <point x="109.25" y="-421.5" type="curve"/>
      <point x="154.0" y="-302.75"/>
      <point x="284.75" y="94.25"/>
      <point x="307.5" y="176.0" type="curve"/>
      <point x="331.5" y="130.0"/>
      <point x="461.75" y="65.75"/>
      <point x="589.75" y="65.75" type="curve" smooth="yes"/>
      <point x="954.75" y="65.75"/>
      <point x="1189.5" y="353.25"/>
      <point x="1189.5" y="710.0" type="curve" smooth="yes"/>
      <point x="1189.5" y="925.75"/>
      <point x="1101.25" y="1072.25"/>
      <point x="878.0" y="1072.25" type="curve" smooth="yes"/>
      <point x="693.75" y="1072.25"/>
      <point x="571.5" y="968.25"/>
      <point x="522.25" y="917.75" type="curve"/>
      <point x="535.75" y="965.75"/>
      <point x="550.0" y="1029.5"/>
      <point x="557.25" y="1073.0" type="curve"/>
      <point x="456.5" y="1073.0"/>
      <point x="338.0" y="1062.25"/>
      <point x="248.0" y="1036.25" type="curve"/>
      <point x="194.5" y="836.75"/>
      <point x="-19.25" y="96.5"/>
    </contour>
    <contour>
      <point x="607.75" y="376.25" type="curve" smooth="yes"/>
      <point x="477.25" y="376.25"/>
      <point x="423.0" y="435.25"/>
      <point x="397.5" y="470.0" type="curve"/>
      <point x="408.75" y="503.5"/>
      <point x="455.75" y="664.5"/>
      <point x="465.5" y="700.0" type="curve"/>
      <point x="513.0" y="745.0"/>
      <point x="610.25" y="814.25"/>
      <point x="737.25" y="814.25" type="curve" smooth="yes"/>
      <point x="850.75" y="814.25"/>
      <point x="885.25" y="759.0"/>
      <point x="885.25" y="663.5" type="curve" smooth="yes"/>
      <point x="885.25" y="490.5"/>
      <point x="782.25" y="376.25"/>
    </contour>
  </outline>
</glyph>
<glyph name="q" format="2">
  <advance width="1207.0"/>
  <unicode hex="0071"/>
  <anchor x="461.585" y="0.0" name="bottom"/>
  <anchor x="746.415" y="1063.0" name="top"/>
  <outline>
    <contour>
      <point x="845.25" y="-459.75" type="curve"/>
      <point x="862.75" y="-342.5"/>
      <point x="902.5" y="-104.5"/>
      <point x="964.25" y="126.75" type="curve" smooth="yes"/>
      <point x="1042.0" y="418.5"/>
      <point x="1161.5" y="779.75"/>
      <point x="1270.5" y="1050.25" type="curve"/>
      <point x="1178.75" y="1075.5"/>
      <point x="1089.5" y="1089.0"/>
      <point x="998.75" y="1089.5" type="curve"/>
      <point x="988.75" y="1068.75"/>
      <point x="955.25" y="990.25"/>
      <point x="944.0" y="950.5" type="curve"/>
      <point x="876.25" y="1028.25"/>
      <point x="776.75" y="1084.5"/>
      <point x="623.25" y="1084.5" type="curve" smooth="yes"/>
      <point x="271.25" y="1084.5"/>
      <point x="78.0" y="787.25"/>
      <point x="78.0" y="401.0" type="curve" smooth="yes"/>
      <point x="78.0" y="175.0"/>
      <point x="175.0" y="10.0"/>
      <point x="410.25" y="10.0" type="curve" smooth="yes"/>
      <point x="547.25" y="10.0"/>
      <point x="643.0" y="65.75"/>
      <point x="678.25" y="106.25" type="curve"/>
      <point x="625.75" y="-89.25"/>
      <point x="582.5" y="-277.25"/>
      <point x="556.75" y="-445.25" type="curve"/>
      <point x="624.5" y="-452.25"/>
      <point x="722.5" y="-459.75"/>
    </contour>
    <contour>
      <point x="523.75" y="324.0" type="curve" smooth="yes"/>
      <point x="423.25" y="324.0"/>
      <point x="378.75" y="385.0"/>
      <point x="378.75" y="477.5" type="curve" smooth="yes"/>
      <point x="378.75" y="643.75"/>
      <point x="481.0" y="794.0"/>
      <point x="644.25" y="794.0" type="curve" smooth="yes"/>
      <point x="752.75" y="794.0"/>
      <point x="834.5" y="725.5"/>
      <point x="857.75" y="703.75" type="curve"/>
      <point x="830.75" y="627.75"/>
      <point x="778.5" y="472.5"/>
      <point x="755.75" y="397.25" type="curve"/>
      <point x="715.0" y="370.5"/>
      <point x="618.25" y="324.0"/>
    </contour>
  </outline>
</glyph>
<glyph name="r" format="2">
  <advance width="853.0"/>
  <unicode hex="0072"/>
  <anchor x="292.39625" y="0.0" name="bottom"/>
  <anchor x="576.60375" y="1063.0" name="top"/>
  <outline>
    <contour>
      <point x="448.0" y="895.75" type="curve"/>
      <point x="450.0" y="935.25"/>
      <point x="451.5" y="1022.5"/>
      <point x="451.5" y="1069.0" type="curve"/>
      <point x="424.5" y="1067.25"/>
      <point x="276.25" y="1042.25"/>
      <point x="174.0" y="1015.25" type="curve"/>
      <point x="168.75" y="788.5"/>
      <point x="67.25" y="281.5"/>
      <point x="-6.5" y="-5.5" type="curve"/>
      <point x="106.0" y="-6.25"/>
      <point x="239.0" y="-3.5"/>
      <point x="336.25" y="8.5" type="curve"/>
      <point x="361.75" y="105.5"/>
      <point x="417.0" y="469.5"/>
      <point x="431.5" y="626.75" type="curve"/>
      <point x="507.25" y="703.0"/>
      <point x="606.5" y="754.5"/>
      <point x="700.25" y="754.5" type="curve" smooth="yes"/>
      <point x="760.0" y="754.5"/>
      <point x="802.0" y="736.0"/>
      <point x="828.25" y="724.0" type="curve"/>
      <point x="975.75" y="1042.0" type="line"/>
      <point x="952.5" y="1060.0"/>
      <point x="877.0" y="1075.25"/>
      <point x="813.5" y="1075.25" type="curve" smooth="yes"/>
      <point x="665.75" y="1075.25"/>
      <point x="517.75" y="985.5"/>
    </contour>
  </outline>
</glyph>
<glyph name="s" format="2">
  <advance width="989.75"/>
  <unicode hex="0073"/>
  <anchor x="337.75" y="-67.5" name="bottom"/>
  <anchor x="645.0" y="1117.5" name="top"/>
  <outline>
    <contour>
      <point x="362.5" y="-78.75" type="curve" smooth="yes"/>
      <point x="638.75" y="-78.75"/>
      <point x="895.25" y="69.0"/>
      <point x="895.25" y="334.25" type="curve" smooth="yes"/>
      <point x="895.25" y="502.75"/>
      <point x="762.25" y="607.25"/>
      <point x="632.5" y="663.5" type="curve" smooth="yes"/>
      <point x="531.25" y="709.0"/>
      <point x="479.5" y="743.25"/>
      <point x="479.5" y="792.75" type="curve" smooth="yes"/>
      <point x="479.5" y="867.0"/>
      <point x="576.25" y="890.25"/>
      <point x="648.25" y="890.25" type="curve" smooth="yes"/>
      <point x="730.75" y="890.25"/>
      <point x="812.75" y="837.5"/>
      <point x="854.75" y="790.75" type="curve"/>
      <point x="936.0" y="864.25"/>
      <point x="1023.0" y="974.75"/>
      <point x="1046.0" y="1014.25" type="curve"/>
      <point x="974.75" y="1076.0"/>
      <point x="831.0" y="1123.75"/>
      <point x="670.5" y="1123.75" type="curve" smooth="yes"/>
      <point x="429.25" y="1123.75"/>
      <point x="188.5" y="1009.5"/>
      <point x="188.5" y="767.25" type="curve" smooth="yes"/>
      <point x="188.5" y="618.75"/>
      <point x="282.5" y="529.25"/>
      <point x="416.75" y="466.75" type="curve" smooth="yes"/>
      <point x="516.75" y="421.0"/>
      <point x="593.0" y="374.0"/>
      <point x="593.0" y="307.75" type="curve" smooth="yes"/>
      <point x="593.0" y="224.25"/>
      <point x="510.25" y="186.25"/>
      <point x="426.25" y="186.25" type="curve" smooth="yes"/>
      <point x="322.5" y="186.25"/>
      <point x="215.25" y="272.25"/>
      <point x="142.75" y="356.25" type="curve"/>
      <point x="82.25" y="307.5"/>
      <point x="-54.5" y="134.25"/>
      <point x="-82.75" y="86.25" type="curve"/>
      <point x="-41.25" y="25.0"/>
      <point x="121.75" y="-78.75"/>
    </contour>
  </outline>
</glyph>
<glyph name="t" format="2">
  <advance width="964.0"/>
  <unicode hex="0074"/>
  <anchor x="467.75" y="-48.0" name="bottom"/>
  <anchor x="457.0" y="532.0" name="center"/>
  <anchor x="629.25" y="1424.75" name="top"/>
  <anchor x="818.5" y="1328.5" name="topright"/>
  <outline>
    <contour>
      <point x="806.0" y="108.25" type="curve"/>
      <point x="795.75" y="130.0"/>
      <point x="719.25" y="307.5"/>
      <point x="703.75" y="331.0" type="curve"/>
      <point x="673.5" y="290.0"/>
      <point x="624.5" y="227.0"/>
      <point x="561.25" y="227.0" type="curve" smooth="yes"/>
      <point x="509.75" y="227.0"/>
      <point x="498.5" y="258.75"/>
      <point x="498.5" y="312.25" type="curve" smooth="yes"/>
      <point x="498.5" y="413.0"/>
      <point x="585.75" y="713.0"/>
      <point x="639.75" y="866.25" type="curve"/>
      <point x="685.0" y="869.5"/>
      <point x="747.25" y="874.0"/>
      <point x="795.25" y="877.0" type="curve" smooth="yes"/>
      <point x="866.25" y="881.5"/>
      <point x="957.25" y="883.75"/>
      <point x="970.25" y="883.5" type="curve"/>
      <point x="990.5" y="957.25"/>
      <point x="1016.75" y="1065.25"/>
      <point x="1025.0" y="1129.25" type="curve"/>
      <point x="1010.0" y="1129.5"/>
      <point x="947.25" y="1130.75"/>
      <point x="862.25" y="1127.0" type="curve" smooth="yes"/>
      <point x="826.75" y="1125.5"/>
      <point x="756.75" y="1121.75"/>
      <point x="713.0" y="1119.75" type="curve"/>
      <point x="725.5" y="1172.5"/>
      <point x="738.0" y="1221.5"/>
      <point x="749.0" y="1263.0" type="curve" smooth="yes"/>
      <point x="771.25" y="1345.75"/>
      <point x="789.75" y="1419.0"/>
      <point x="792.75" y="1433.25" type="curve"/>
      <point x="495.25" y="1406.75" type="line"/>
      <point x="489.5" y="1377.0"/>
      <point x="477.0" y="1321.5"/>
      <point x="465.25" y="1271.75" type="curve" smooth="yes"/>
      <point x="452.25" y="1217.0"/>
      <point x="437.5" y="1159.0"/>
      <point x="422.75" y="1105.0" type="curve"/>
      <point x="324.75" y="1100.25"/>
      <point x="234.25" y="1091.0"/>
      <point x="154.0" y="1081.25" type="curve"/>
      <point x="148.25" y="1060.25"/>
      <point x="116.25" y="924.25"/>
      <point x="107.25" y="812.75" type="curve"/>
      <point x="142.75" y="820.25"/>
      <point x="246.75" y="835.5"/>
      <point x="354.5" y="846.0" type="curve"/>
      <point x="298.5" y="690.75"/>
      <point x="208.5" y="347.5"/>
      <point x="208.5" y="219.5" type="curve" smooth="yes"/>
      <point x="208.5" y="69.75"/>
      <point x="282.5" y="-48.0"/>
      <point x="462.25" y="-48.0" type="curve" smooth="yes"/>
      <point x="646.0" y="-48.0"/>
      <point x="749.75" y="34.5"/>
    </contour>
  </outline>
</glyph>
<glyph name="u" format="2">
  <advance width="1178.0"/>
  <unicode hex="0075"/>
  <anchor x="439.39625" y="0.0" name="bottom"/>
  <anchor x="686.5" y="0.0" name="ogonek"/>
  <anchor x="723.60375" y="1063.0" name="top"/>
  <anchor x="1116.25" y="911.5" name="topright"/>
  <outline>
    <contour>
      <point x="865.25" y="978.25" type="curve"/>
      <point x="860.75" y="879.0"/>
      <point x="840.75" y="769.25"/>
      <point x="808.5" y="653.0" type="curve" smooth="yes"/>
      <point x="744.25" y="420.25"/>
      <point x="648.5" y="235.25"/>
      <point x="516.75" y="235.25" type="curve" smooth="yes"/>
      <point x="438.0" y="235.25"/>
      <point x="402.5" y="293.0"/>
      <point x="402.5" y="397.5" type="curve" smooth="yes"/>
      <point x="402.5" y="553.5"/>
      <point x="479.75" y="805.0"/>
      <point x="554.25" y="1007.25" type="curve"/>
      <point x="518.0" y="1018.75"/>
      <point x="445.75" y="1026.25"/>
      <point x="379.25" y="1027.0" type="curve" smooth="yes"/>
      <point x="332.5" y="1027.75"/>
      <point x="268.5" y="1025.25"/>
      <point x="231.75" y="1022.5" type="curve"/>
      <point x="149.5" y="781.0"/>
      <point x="76.0" y="530.0"/>
      <point x="76.0" y="331.5" type="curve" smooth="yes"/>
      <point x="76.0" y="95.75"/>
      <point x="175.25" y="-58.25"/>
      <point x="447.5" y="-58.25" type="curve" smooth="yes"/>
      <point x="826.0" y="-58.25"/>
      <point x="1020.5" y="266.5"/>
      <point x="1125.75" y="660.25" type="curve" smooth="yes"/>
      <point x="1154.0" y="767.0"/>
      <point x="1173.25" y="877.75"/>
      <point x="1185.75" y="985.5" type="curve"/>
      <point x="1149.75" y="991.75"/>
      <point x="1082.75" y="996.25"/>
      <point x="1033.25" y="996.25" type="curve" smooth="yes"/>
      <point x="973.75" y="996.25"/>
      <point x="901.25" y="989.0"/>
    </contour>
  </outline>
</glyph>
<glyph name="v" format="2">
  <advance width="1007.0"/>
  <unicode hex="0076"/>
  <anchor x="361.585" y="0.0" name="bottom"/>
  <anchor x="646.415" y="1063.0" name="top"/>
  <outline>
    <contour>
      <point x="830.0" y="1091.0" type="curve"/>
      <point x="709.75" y="805.5"/>
      <point x="571.75" y="566.75"/>
      <point x="464.5" y="385.0" type="curve"/>
      <point x="446.5" y="519.0"/>
      <point x="426.5" y="884.5"/>
      <point x="426.5" y="1092.0" type="curve"/>
      <point x="352.75" y="1072.0"/>
      <point x="184.5" y="1032.75"/>
      <point x="145.0" y="1026.0" type="curve"/>
      <point x="157.5" y="696.5"/>
      <point x="191.0" y="309.5"/>
      <point x="252.0" y="19.25" type="curve"/>
      <point x="284.25" y="15.0"/>
      <point x="332.75" y="10.25"/>
      <point x="383.0" y="10.25" type="curve" smooth="yes"/>
      <point x="431.25" y="10.25"/>
      <point x="480.25" y="13.5"/>
      <point x="515.75" y="19.25" type="curve"/>
      <point x="717.5" y="307.0"/>
      <point x="976.75" y="752.0"/>
      <point x="1106.25" y="1019.25" type="curve"/>
      <point x="1089.0" y="1025.75"/>
      <point x="964.75" y="1066.25"/>
    </contour>
  </outline>
</glyph>
<glyph name="w" format="2">
  <advance width="1520.0"/>
  <unicode hex="0077"/>
  <anchor x="617.585" y="0.0" name="bottom"/>
  <anchor x="902.415" y="1063.0" name="top"/>
  <outline>
    <contour>
      <point x="324.0" y="7.0" type="curve" smooth="yes"/>
      <point x="481.75" y="7.0"/>
      <point x="601.75" y="110.5"/>
      <point x="670.5" y="223.0" type="curve"/>
      <point x="692.0" y="99.0"/>
      <point x="754.5" y="14.75"/>
      <point x="904.25" y="14.75" type="curve" smooth="yes"/>
      <point x="1209.25" y="14.75"/>
      <point x="1384.5" y="309.75"/>
      <point x="1498.0" y="727.0" type="curve" smooth="yes"/>
      <point x="1518.75" y="803.25"/>
      <point x="1550.75" y="952.5"/>
      <point x="1566.75" y="1034.5" type="curve"/>
      <point x="1534.25" y="1037.25"/>
      <point x="1465.25" y="1041.25"/>
      <point x="1422.5" y="1041.25" type="curve" smooth="yes"/>
      <point x="1378.5" y="1041.25"/>
      <point x="1335.25" y="1041.25"/>
      <point x="1290.75" y="1041.0" type="curve"/>
      <point x="1267.0" y="943.0"/>
      <point x="1241.0" y="838.0"/>
      <point x="1218.75" y="755.25" type="curve" smooth="yes"/>
      <point x="1145.5" y="482.25"/>
      <point x="1051.25" y="268.75"/>
      <point x="939.75" y="268.75" type="curve" smooth="yes"/>
      <point x="890.25" y="268.75"/>
      <point x="870.5" y="307.5"/>
      <point x="870.5" y="377.5" type="curve" smooth="yes"/>
      <point x="870.5" y="477.0"/>
      <point x="902.5" y="600.25"/>
      <point x="1017.0" y="1036.0" type="curve"/>
      <point x="953.0" y="1039.0"/>
      <point x="809.75" y="1040.75"/>
      <point x="751.5" y="1040.75" type="curve"/>
      <point x="728.5" y="942.0"/>
      <point x="700.0" y="829.75"/>
      <point x="675.75" y="739.0" type="curve" smooth="yes"/>
      <point x="609.75" y="494.25"/>
      <point x="516.25" y="302.75"/>
      <point x="417.75" y="302.75" type="curve" smooth="yes"/>
      <point x="372.75" y="302.75"/>
      <point x="353.5" y="338.5"/>
      <point x="353.5" y="400.0" type="curve" smooth="yes"/>
      <point x="353.5" y="528.5"/>
      <point x="451.0" y="822.5"/>
      <point x="530.25" y="1047.0" type="curve"/>
      <point x="444.5" y="1053.5"/>
      <point x="328.5" y="1059.5"/>
      <point x="244.25" y="1059.5" type="curve"/>
      <point x="148.5" y="800.25"/>
      <point x="55.5" y="527.0"/>
      <point x="55.5" y="318.0" type="curve" smooth="yes"/>
      <point x="55.5" y="134.25"/>
      <point x="127.25" y="7.0"/>
    </contour>
  </outline>
</glyph>
<glyph name="x" format="2">
  <advance width="1142.0"/>
  <unicode hex="0078"/>
  <anchor x="428.585" y="0.0" name="bottom"/>
  <anchor x="713.415" y="1063.0" name="top"/>
  <outline>
    <contour>
      <point x="123.0" y="-27.0" type="curve"/>
      <point x="215.5" y="41.25"/>
      <point x="372.75" y="183.75"/>
      <point x="552.0" y="356.75" type="curve"/>
      <point x="614.25" y="251.0"/>
      <point x="668.75" y="103.5"/>
      <point x="706.75" y="-19.5" type="curve"/>
      <point x="789.75" y="16.75"/>
      <point x="911.25" y="76.5"/>
      <point x="985.75" y="130.0" type="curve"/>
      <point x="920.0" y="292.0"/>
      <point x="854.75" y="446.75"/>
      <point x="785.5" y="573.25" type="curve"/>
      <point x="937.75" y="702.0"/>
      <point x="1141.0" y="912.5"/>
      <point x="1237.75" y="1026.25" type="curve"/>
      <point x="1185.25" y="1065.5"/>
      <point x="1068.5" y="1123.75"/>
      <point x="994.5" y="1161.0" type="curve"/>
      <point x="882.5" y="1015.75"/>
      <point x="769.5" y="890.5"/>
      <point x="654.25" y="773.75" type="curve"/>
      <point x="620.75" y="866.25"/>
      <point x="483.75" y="1092.0"/>
      <point x="432.75" y="1162.25" type="curve"/>
      <point x="369.75" y="1132.5"/>
      <point x="193.5" y="1018.75"/>
      <point x="166.5" y="992.0" type="curve"/>
      <point x="223.0" y="915.5"/>
      <point x="325.0" y="777.25"/>
      <point x="443.5" y="580.75" type="curve"/>
      <point x="296.5" y="454.0"/>
      <point x="21.5" y="224.5"/>
      <point x="-44.5" y="173.5" type="curve"/>
      <point x="-13.75" y="115.75"/>
      <point x="83.25" y="12.75"/>
    </contour>
  </outline>
</glyph>
<glyph name="y" format="2">
  <advance width="1079.0"/>
  <unicode hex="0079"/>
  <anchor x="397.585" y="0.0" name="bottom"/>
  <anchor x="682.415" y="1063.0" name="top"/>
  <outline>
    <contour>
      <point x="211.5" y="-526.75" type="curve" smooth="yes"/>
      <point x="547.25" y="-526.75"/>
      <point x="741.5" y="-294.25"/>
      <point x="852.75" y="56.0" type="curve" smooth="yes"/>
      <point x="922.0" y="273.5"/>
      <point x="990.0" y="499.5"/>
      <point x="1039.5" y="683.75" type="curve" smooth="yes"/>
      <point x="1065.0" y="779.5"/>
      <point x="1086.75" y="866.5"/>
      <point x="1103.75" y="941.75" type="curve"/>
      <point x="1045.75" y="955.25"/>
      <point x="988.5" y="961.5"/>
      <point x="926.75" y="961.5" type="curve" smooth="yes"/>
      <point x="896.0" y="961.5"/>
      <point x="864.5" y="959.75"/>
      <point x="832.5" y="957.0" type="curve"/>
      <point x="829.0" y="934.75"/>
      <point x="799.25" y="822.75"/>
      <point x="768.25" y="723.0" type="curve" smooth="yes"/>
      <point x="697.75" y="484.5"/>
      <point x="597.5" y="324.0"/>
      <point x="460.25" y="324.0" type="curve" smooth="yes"/>
      <point x="393.75" y="324.0"/>
      <point x="370.0" y="376.5"/>
      <point x="370.0" y="451.75" type="curve" smooth="yes"/>
      <point x="370.0" y="585.5"/>
      <point x="453.25" y="834.5"/>
      <point x="509.75" y="965.5" type="curve"/>
      <point x="486.0" y="971.25"/>
      <point x="405.75" y="975.75"/>
      <point x="332.5" y="975.75" type="curve" smooth="yes"/>
      <point x="279.5" y="975.75"/>
      <point x="230.0" y="973.25"/>
      <point x="205.25" y="968.25" type="curve"/>
      <point x="130.25" y="734.5"/>
      <point x="63.25" y="512.25"/>
      <point x="63.25" y="338.75" type="curve" smooth="yes"/>
      <point x="63.25" y="156.5"/>
      <point x="137.25" y="37.75"/>
      <point x="340.0" y="37.75" type="curve" smooth="yes"/>
      <point x="471.25" y="37.75"/>
      <point x="585.25" y="100.5"/>
      <point x="635.0" y="183.75" type="curve"/>
      <point x="576.25" y="-20.0"/>
      <point x="456.25" y="-247.0"/>
      <point x="263.5" y="-247.0" type="curve" smooth="yes"/>
      <point x="129.0" y="-247.0"/>
      <point x="3.25" y="-172.25"/>
      <point x="-53.0" y="-126.5" type="curve"/>
      <point x="-101.25" y="-174.25"/>
      <point x="-216.5" y="-318.75"/>
      <point x="-256.25" y="-382.75" type="curve"/>
      <point x="-171.5" y="-451.75"/>
      <point x="8.0" y="-526.75"/>
    </contour>
  </outline>
</glyph>
<glyph name="z" format="2">
  <advance width="1074.0"/>
  <unicode hex="007A"/>
  <anchor x="370.0" y="0.0" name="bottom"/>
  <anchor x="512.0" y="532.0" name="center"/>
  <anchor x="654.0" y="1063.0" name="top"/>
  <outline>
    <contour>
      <point x="851.25" y="3.25" type="curve"/>
      <point x="867.25" y="37.75"/>
      <point x="930.25" y="249.25"/>
      <point x="937.5" y="276.5" type="curve"/>
      <point x="857.0" y="268.0"/>
      <point x="709.5" y="258.5"/>
      <point x="584.5" y="258.5" type="curve" smooth="yes"/>
      <point x="519.5" y="258.5"/>
      <point x="426.75" y="259.75"/>
      <point x="397.5" y="262.75" type="curve"/>
      <point x="493.25" y="355.75"/>
      <point x="885.5" y="698.75"/>
      <point x="1065.25" y="829.75" type="curve"/>
      <point x="1075.0" y="864.5"/>
      <point x="1114.0" y="1024.5"/>
      <point x="1114.0" y="1042.75" type="curve"/>
      <point x="1005.75" y="1044.25"/>
      <point x="845.75" y="1044.75"/>
      <point x="710.0" y="1044.75" type="curve" smooth="yes"/>
      <point x="551.75" y="1044.75"/>
      <point x="326.25" y="1048.5"/>
      <point x="241.25" y="1051.0" type="curve"/>
      <point x="163.75" y="809.0" type="line"/>
      <point x="175.25" y="809.75"/>
      <point x="256.5" y="811.75"/>
      <point x="331.75" y="811.75" type="curve" smooth="yes"/>
      <point x="440.0" y="811.75"/>
      <point x="625.75" y="814.25"/>
      <point x="674.25" y="815.75" type="curve"/>
      <point x="485.0" y="673.25"/>
      <point x="115.25" y="356.0"/>
      <point x="2.5" y="242.0" type="curve"/>
      <point x="-72.25" y="12.0" type="line"/>
      <point x="42.5" y="-3.5"/>
      <point x="222.75" y="-9.0"/>
      <point x="400.75" y="-9.0" type="curve" smooth="yes"/>
      <point x="572.75" y="-9.0"/>
      <point x="744.5" y="-3.25"/>
    </contour>
  </outline>
</glyph>
<glyph name="braceleft" format="2">
  <advance width="665.0"/>
  <unicode hex="007B"/>
  <outline>
    <contour>
      <point x="260.0" y="-437.75" type="curve"/>
      <point x="319.5" y="-371.5"/>
      <point x="374.5" y="-301.75"/>
      <point x="429.5" y="-224.5" type="curve"/>
      <point x="351.5" y="-207.25"/>
      <point x="315.0" y="-148.25"/>
      <point x="315.0" y="-68.75" type="curve" smooth="yes"/>
      <point x="315.0" y="10.75"/>
      <point x="349.0" y="85.75"/>
      <point x="384.75" y="161.0" type="curve" smooth="yes"/>
      <point x="420.0" y="234.5"/>
      <point x="452.25" y="308.75"/>
      <point x="452.25" y="386.0" type="curve" smooth="yes"/>
      <point x="452.25" y="522.0"/>
      <point x="330.75" y="574.5"/>
      <point x="186.75" y="583.75" type="curve"/>
      <point x="180.0" y="562.25" type="line"/>
      <point x="348.0" y="567.25"/>
      <point x="505.25" y="688.0"/>
      <point x="549.75" y="859.25" type="curve" smooth="yes"/>
      <point x="564.75" y="915.0"/>
      <point x="567.25" y="954.25"/>
      <point x="567.25" y="993.0" type="curve" smooth="yes"/>
      <point x="567.25" y="1030.25"/>
      <point x="570.5" y="1067.75"/>
      <point x="583.75" y="1118.5" type="curve" smooth="yes"/>
      <point x="614.75" y="1235.0"/>
      <point x="706.25" y="1341.25"/>
      <point x="836.25" y="1368.0" type="curve"/>
      <point x="836.5" y="1430.75"/>
      <point x="831.25" y="1550.75"/>
      <point x="799.75" y="1588.5" type="curve"/>
      <point x="535.25" y="1568.25"/>
      <point x="357.75" y="1391.25"/>
      <point x="306.75" y="1184.5" type="curve" smooth="yes"/>
      <point x="296.25" y="1141.5"/>
      <point x="291.75" y="1109.5"/>
      <point x="290.25" y="1071.75" type="curve" smooth="yes"/>
      <point x="288.75" y="1036.75"/>
      <point x="287.75" y="997.75"/>
      <point x="284.25" y="941.75" type="curve" smooth="yes"/>
      <point x="275.75" y="800.25"/>
      <point x="215.5" y="703.25"/>
      <point x="74.25" y="683.25" type="curve"/>
      <point x="61.75" y="656.75"/>
      <point x="46.0" y="608.5"/>
      <point x="35.5" y="568.0" type="curve" smooth="yes"/>
      <point x="24.25" y="525.0"/>
      <point x="14.0" y="474.25"/>
      <point x="14.0" y="448.75" type="curve"/>
      <point x="110.0" y="429.25"/>
      <point x="164.75" y="380.25"/>
      <point x="164.75" y="310.5" type="curve" smooth="yes"/>
      <point x="164.75" y="221.5"/>
      <point x="131.0" y="155.0"/>
      <point x="96.75" y="87.5" type="curve" smooth="yes"/>
      <point x="62.0" y="18.5"/>
      <point x="26.5" y="-53.0"/>
      <point x="26.5" y="-152.75" type="curve" smooth="yes"/>
      <point x="26.5" y="-305.0"/>
      <point x="103.0" y="-416.0"/>
    </contour>
  </outline>
</glyph>
<glyph name="bar" format="2">
  <advance width="487.0"/>
  <unicode hex="007C"/>
  <outline>
    <contour>
      <point x="91.5" y="-555.5" type="curve"/>
      <point x="160.25" y="-401.25"/>
      <point x="250.75" y="-100.25"/>
      <point x="341.5" y="236.5" type="curve" smooth="yes"/>
      <point x="460.5" y="678.5"/>
      <point x="587.25" y="1211.0"/>
      <point x="654.75" y="1537.5" type="curve"/>
      <point x="575.5" y="1537.5"/>
      <point x="423.0" y="1530.5"/>
      <point x="376.75" y="1527.5" type="curve"/>
      <point x="241.0" y="1071.75"/>
      <point x="126.75" y="663.25"/>
      <point x="34.75" y="321.0" type="curve" smooth="yes"/>
      <point x="-64.0" y="-45.75"/>
      <point x="-136.0" y="-338.5"/>
      <point x="-183.0" y="-536.25" type="curve"/>
      <point x="-101.25" y="-553.25"/>
      <point x="12.75" y="-555.5"/>
    </contour>
  </outline>
</glyph>
<glyph name="braceright" format="2">
  <advance width="614.0"/>
  <unicode hex="007D"/>
  <outline>
    <contour>
      <point x="-87.5" y="-449.5" type="curve"/>
      <point x="142.25" y="-414.25"/>
      <point x="359.0" y="-223.25"/>
      <point x="371.25" y="3.5" type="curve" smooth="yes"/>
      <point x="375.5" y="31.75"/>
      <point x="376.25" y="67.5"/>
      <point x="374.75" y="103.75" type="curve" smooth="yes"/>
      <point x="373.25" y="140.5"/>
      <point x="374.25" y="176.75"/>
      <point x="378.0" y="204.25" type="curve" smooth="yes"/>
      <point x="387.25" y="355.0"/>
      <point x="444.5" y="454.75"/>
      <point x="582.5" y="476.25" type="curve"/>
      <point x="603.25" y="501.25"/>
      <point x="621.5" y="552.0"/>
      <point x="632.25" y="591.25" type="curve" smooth="yes"/>
      <point x="641.75" y="625.0"/>
      <point x="644.0" y="668.75"/>
      <point x="644.0" y="713.25" type="curve"/>
      <point x="566.75" y="718.25"/>
      <point x="498.0" y="748.25"/>
      <point x="498.0" y="832.25" type="curve" smooth="yes"/>
      <point x="498.0" y="910.75"/>
      <point x="531.25" y="977.25"/>
      <point x="567.75" y="1047.25" type="curve" smooth="yes"/>
      <point x="608.25" y="1125.25"/>
      <point x="650.0" y="1206.5"/>
      <point x="650.0" y="1312.75" type="curve" smooth="yes"/>
      <point x="650.0" y="1455.75"/>
      <point x="574.75" y="1584.75"/>
      <point x="435.25" y="1615.25" type="curve"/>
      <point x="374.75" y="1561.5"/>
      <point x="285.75" y="1472.5"/>
      <point x="231.0" y="1404.75" type="curve"/>
      <point x="321.25" y="1381.25"/>
      <point x="357.25" y="1320.5"/>
      <point x="357.25" y="1238.75" type="curve" smooth="yes"/>
      <point x="357.25" y="1153.75"/>
      <point x="323.25" y="1082.25"/>
      <point x="289.0" y="1012.0" type="curve" smooth="yes"/>
      <point x="255.5" y="942.5"/>
      <point x="222.75" y="874.25"/>
      <point x="222.75" y="795.0" type="curve" smooth="yes"/>
      <point x="222.75" y="645.25"/>
      <point x="356.75" y="566.25"/>
      <point x="484.5" y="563.25" type="curve"/>
      <point x="497.5" y="600.0" type="line"/>
      <point x="313.75" y="598.75"/>
      <point x="126.75" y="442.25"/>
      <point x="115.0" y="241.0" type="curve" smooth="yes"/>
      <point x="111.0" y="204.0"/>
      <point x="112.5" y="172.5"/>
      <point x="114.75" y="141.0" type="curve" smooth="yes"/>
      <point x="117.0" y="108.75"/>
      <point x="118.0" y="77.25"/>
      <point x="114.25" y="41.75" type="curve" smooth="yes"/>
      <point x="103.5" y="-100.5"/>
      <point x="29.0" y="-172.75"/>
      <point x="-126.75" y="-228.75" type="curve"/>
      <point x="-126.75" y="-326.0"/>
      <point x="-106.5" y="-415.25"/>
    </contour>
  </outline>
</glyph>
<glyph name="asciitilde" format="2">
  <advance width="1115.0"/>
  <unicode hex="007E"/>
  <outline>
    <contour>
      <point x="211.25" y="750.5" type="curve"/>
      <point x="360.75" y="625.75" type="line"/>
      <point x="379.0" y="667.25"/>
      <point x="424.0" y="746.5"/>
      <point x="502.25" y="746.5" type="curve" smooth="yes"/>
      <point x="541.25" y="746.5"/>
      <point x="579.5" y="717.0"/>
      <point x="620.0" y="682.75" type="curve" smooth="yes"/>
      <point x="669.0" y="641.0"/>
      <point x="725.75" y="595.25"/>
      <point x="797.25" y="595.25" type="curve" smooth="yes"/>
      <point x="953.0" y="595.25"/>
      <point x="1040.25" y="745.0"/>
      <point x="1053.5" y="807.75" type="curve"/>
      <point x="898.5" y="903.5" type="line"/>
      <point x="880.5" y="847.75"/>
      <point x="841.75" y="792.75"/>
      <point x="782.75" y="792.75" type="curve" smooth="yes"/>
      <point x="734.5" y="792.75"/>
      <point x="697.75" y="823.75"/>
      <point x="659.75" y="858.25" type="curve" smooth="yes"/>
      <point x="615.0" y="898.25"/>
      <point x="564.0" y="939.5"/>
      <point x="487.0" y="939.5" type="curve" smooth="yes"/>
      <point x="355.5" y="939.5"/>
      <point x="243.5" y="842.0"/>
    </contour>
  </outline>
</glyph>
<glyph name="exclamdown" format="2">
  <advance width="708.0"/>
  <unicode hex="00A1"/>
  <outline>
    <contour>
      <point x="274.25" y="629.0" type="curve"/>
      <point x="198.0" y="378.0"/>
      <point x="-18.5" y="-255.75"/>
      <point x="-71.25" y="-391.25" type="curve"/>
      <point x="292.5" y="-406.75" type="line"/>
      <point x="378.25" y="-109.5"/>
      <point x="476.5" y="299.5"/>
      <point x="540.75" y="615.25" type="curve"/>
      <point x="477.75" y="623.25"/>
      <point x="333.5" y="629.0"/>
    </contour>
    <contour>
      <point x="502.25" y="1093.0" type="curve" smooth="yes"/>
      <point x="375.25" y="1093.0"/>
      <point x="253.5" y="997.0"/>
      <point x="253.5" y="873.0" type="curve" smooth="yes"/>
      <point x="253.5" y="781.0"/>
      <point x="326.0" y="709.0"/>
      <point x="430.0" y="709.0" type="curve" smooth="yes"/>
      <point x="565.5" y="709.0"/>
      <point x="682.25" y="806.25"/>
      <point x="682.25" y="938.25" type="curve" smooth="yes"/>
      <point x="682.25" y="1026.0"/>
      <point x="613.0" y="1093.0"/>
    </contour>
  </outline>
</glyph>
<glyph name="cent" format="2">
  <advance width="1026.0"/>
  <unicode hex="00A2"/>
  <anchor x="397.75" y="108.25" name="bottom"/>
  <anchor x="648.56125" y="1171.25" name="top"/>
  <outline>
    <contour>
      <point x="754.5" y="1312.0" type="curve"/>
      <point x="632.5" y="987.75"/>
      <point x="356.25" y="371.25"/>
      <point x="168.5" y="23.75" type="curve"/>
      <point x="207.75" y="1.25"/>
      <point x="268.0" y="-12.25"/>
      <point x="329.25" y="-14.0" type="curve"/>
      <point x="459.25" y="211.75"/>
      <point x="729.75" y="815.0"/>
      <point x="894.5" y="1291.75" type="curve"/>
      <point x="877.5" y="1302.0"/>
      <point x="802.0" y="1312.0"/>
    </contour>
    <component base="c" xOffset="-4.25" yOffset="108.25"/>
  </outline>
</glyph>
<glyph name="sterling" format="2">
  <advance width="1140.0"/>
  <unicode hex="00A3"/>
  <outline>
    <contour>
      <point x="194.0" y="518.75" type="curve" smooth="yes"/>
      <point x="373.5" y="518.75"/>
      <point x="720.75" y="536.25"/>
      <point x="815.0" y="562.25" type="curve"/>
      <point x="825.5" y="601.0"/>
      <point x="858.75" y="744.0"/>
      <point x="863.25" y="775.0" type="curve"/>
      <point x="771.0" y="756.5"/>
      <point x="448.75" y="742.0"/>
      <point x="267.0" y="742.0" type="curve" smooth="yes"/>
      <point x="211.75" y="742.0"/>
      <point x="165.25" y="743.0"/>
      <point x="133.0" y="745.75" type="curve"/>
      <point x="66.25" y="524.75" type="line"/>
      <point x="89.0" y="520.75"/>
      <point x="135.5" y="518.75"/>
    </contour>
    <component base="sterlira"/>
  </outline>
</glyph>
<glyph name="currency" format="2">
  <advance width="974.0"/>
  <unicode hex="00A4"/>
  <outline>
    <contour>
      <point x="54.25" y="50.5" type="curve"/>
      <point x="122.5" y="107.75"/>
      <point x="313.75" y="289.0"/>
      <point x="366.75" y="333.75" type="curve"/>
      <point x="223.75" y="449.25" type="line"/>
      <point x="134.75" y="382.25"/>
      <point x="3.75" y="279.25"/>
      <point x="-79.5" y="210.75" type="curve"/>
      <point x="-64.25" y="187.75"/>
      <point x="40.25" y="72.0"/>
    </contour>
    <contour>
      <point x="672.75" y="68.25" type="curve"/>
      <point x="715.0" y="97.25"/>
      <point x="841.75" y="205.5"/>
      <point x="874.25" y="235.0" type="curve"/>
      <point x="835.0" y="279.25"/>
      <point x="766.75" y="379.5"/>
      <point x="715.5" y="439.75" type="curve"/>
      <point x="524.0" y="309.0" type="line"/>
      <point x="554.25" y="277.75"/>
      <point x="625.25" y="135.75"/>
    </contour>
    <contour>
      <point x="265.0" y="653.0" type="curve"/>
      <point x="448.0" y="805.0" type="line"/>
      <point x="414.25" y="877.5"/>
      <point x="344.5" y="987.75"/>
      <point x="300.0" y="1038.25" type="curve"/>
      <point x="257.75" y="1012.25"/>
      <point x="119.0" y="905.75"/>
      <point x="94.0" y="878.5" type="curve"/>
      <point x="140.25" y="812.25"/>
      <point x="209.0" y="717.0"/>
    </contour>
    <contour>
      <point x="766.25" y="655.25" type="line"/>
      <point x="857.75" y="721.25"/>
      <point x="947.25" y="803.25"/>
      <point x="1040.5" y="877.0" type="curve"/>
      <point x="1027.75" y="899.25"/>
      <point x="943.75" y="1019.25"/>
      <point x="928.5" y="1039.25" type="curve"/>
      <point x="835.25" y="962.0"/>
      <point x="725.0" y="868.75"/>
      <point x="649.5" y="802.25" type="curve"/>
    </contour>
    <component base="degree" xOffset="-126.0" yOffset="-656.0"/>
  </outline>
</glyph>
<glyph name="yen" format="2">
  <advance width="1065.0"/>
  <unicode hex="00A5"/>
  <anchor x="407.5" y="0.0" name="bottom"/>
  <anchor x="753.5" y="1291.0" name="top"/>
  <anchor x="240.5" y="1291.0" name="topleft"/>
  <outline>
    <contour>
      <point x="124.75" y="500.0" type="curve"/>
      <point x="222.0" y="502.25"/>
      <point x="875.75" y="511.25"/>
      <point x="969.75" y="511.25" type="curve"/>
      <point x="984.25" y="566.0"/>
      <point x="995.25" y="644.25"/>
      <point x="1002.75" y="710.75" type="curve"/>
      <point x="919.25" y="720.75"/>
      <point x="792.5" y="725.5"/>
      <point x="651.25" y="725.5" type="curve" smooth="yes"/>
      <point x="492.75" y="725.5"/>
      <point x="346.75" y="720.5"/>
      <point x="203.0" y="709.75" type="curve"/>
      <point x="188.5" y="678.5"/>
      <point x="145.0" y="575.5"/>
    </contour>
    <contour>
      <point x="895.0" y="216.0" type="curve"/>
      <point x="914.5" y="285.0"/>
      <point x="926.0" y="376.5"/>
      <point x="928.0" y="409.5" type="curve"/>
      <point x="835.25" y="416.75"/>
      <point x="699.5" y="421.5"/>
      <point x="561.75" y="421.5" type="curve" smooth="yes"/>
      <point x="383.25" y="421.5"/>
      <point x="223.75" y="415.75"/>
      <point x="107.25" y="407.25" type="curve"/>
      <point x="80.25" y="347.25"/>
      <point x="56.25" y="290.75"/>
      <point x="38.75" y="225.5" type="curve"/>
      <point x="133.0" y="226.0"/>
      <point x="783.5" y="218.25"/>
    </contour>
    <component base="Y" xOffset="-3.5"/>
  </outline>
</glyph>
<glyph name="brokenbar" format="2">
  <advance width="432.0"/>
  <unicode hex="00A6"/>
  <outline>
    <contour>
      <point x="6.25" y="279.25" type="curve"/>
      <point x="-34.0" y="130.5"/>
      <point x="-123.75" y="-295.75"/>
      <point x="-147.25" y="-437.75" type="curve"/>
      <point x="-80.5" y="-437.75"/>
      <point x="61.0" y="-431.0"/>
      <point x="105.75" y="-414.75" type="curve"/>
      <point x="132.0" y="-290.25"/>
      <point x="258.5" y="198.0"/>
      <point x="282.5" y="289.0" type="curve"/>
      <point x="203.25" y="289.0"/>
      <point x="87.75" y="286.75"/>
    </contour>
    <contour>
      <point x="149.25" y="780.25" type="curve"/>
      <point x="171.25" y="777.25"/>
      <point x="305.0" y="769.0"/>
      <point x="420.75" y="769.75" type="curve"/>
      <point x="451.5" y="894.0"/>
      <point x="570.0" y="1332.0"/>
      <point x="610.75" y="1475.5" type="curve"/>
      <point x="571.5" y="1498.25"/>
      <point x="439.0" y="1502.0"/>
      <point x="368.5" y="1502.0" type="curve"/>
      <point x="329.75" y="1386.0"/>
      <point x="215.25" y="1027.0"/>
    </contour>
  </outline>
</glyph>
<glyph name="section" format="2">
  <advance width="1000.0"/>
  <unicode hex="00A7"/>
  <outline>
    <contour>
      <point x="573.25" y="681.25" type="curve"/>
      <point x="390.25" y="809.5" type="line"/>
      <point x="223.75" y="754.0"/>
      <point x="95.75" y="663.75"/>
      <point x="95.75" y="487.0" type="curve" smooth="yes"/>
      <point x="95.75" y="342.5"/>
      <point x="203.0" y="255.75"/>
      <point x="333.25" y="200.5" type="curve" smooth="yes"/>
      <point x="464.25" y="144.5"/>
      <point x="543.5" y="92.75"/>
      <point x="543.5" y="25.75" type="curve" smooth="yes"/>
      <point x="543.5" y="-59.0"/>
      <point x="451.75" y="-98.0"/>
      <point x="351.0" y="-98.0" type="curve" smooth="yes"/>
      <point x="243.5" y="-98.0"/>
      <point x="119.0" y="-29.5"/>
      <point x="32.5" y="47.0" type="curve"/>
      <point x="-22.0" y="6.5"/>
      <point x="-143.75" y="-135.75"/>
      <point x="-180.75" y="-185.5" type="curve"/>
      <point x="-133.25" y="-249.25"/>
      <point x="56.25" y="-355.5"/>
      <point x="304.0" y="-355.5" type="curve" smooth="yes"/>
      <point x="570.75" y="-355.5"/>
      <point x="820.5" y="-202.0"/>
      <point x="820.5" y="56.0" type="curve" smooth="yes"/>
      <point x="820.5" y="224.0"/>
      <point x="704.0" y="327.25"/>
      <point x="567.25" y="381.75" type="curve" smooth="yes"/>
      <point x="461.25" y="426.25"/>
      <point x="384.75" y="475.75"/>
      <point x="384.75" y="535.0" type="curve" smooth="yes"/>
      <point x="384.75" y="614.5"/>
      <point x="494.0" y="671.25"/>
    </contour>
    <contour>
      <point x="526.25" y="377.75" type="curve"/>
      <point x="627.0" y="196.25" type="line"/>
      <point x="815.0" y="260.25"/>
      <point x="974.5" y="376.25"/>
      <point x="974.5" y="572.75" type="curve" smooth="yes"/>
      <point x="974.5" y="737.25"/>
      <point x="843.0" y="839.0"/>
      <point x="707.75" y="895.0" type="curve" smooth="yes"/>
      <point x="602.25" y="940.75"/>
      <point x="530.75" y="980.5"/>
      <point x="530.75" y="1032.5" type="curve" smooth="yes"/>
      <point x="530.75" y="1103.25"/>
      <point x="626.0" y="1129.25"/>
      <point x="707.0" y="1129.25" type="curve" smooth="yes"/>
      <point x="792.5" y="1129.25"/>
      <point x="896.25" y="1084.0"/>
      <point x="940.5" y="1037.25" type="curve"/>
      <point x="1025.5" y="1111.5"/>
      <point x="1109.75" y="1232.0"/>
      <point x="1121.5" y="1250.5" type="curve"/>
      <point x="1036.75" y="1319.75"/>
      <point x="875.75" y="1362.75"/>
      <point x="732.5" y="1362.75" type="curve" smooth="yes"/>
      <point x="473.75" y="1362.75"/>
      <point x="259.25" y="1238.5"/>
      <point x="259.25" y="979.5" type="curve" smooth="yes"/>
      <point x="259.25" y="841.5"/>
      <point x="337.5" y="767.5"/>
      <point x="467.75" y="713.75" type="curve" smooth="yes"/>
      <point x="594.5" y="661.75"/>
      <point x="697.25" y="610.5"/>
      <point x="697.25" y="547.25" type="curve" smooth="yes"/>
      <point x="697.25" y="472.25"/>
      <point x="609.5" y="392.0"/>
    </contour>
  </outline>
</glyph>
<glyph name="copyright" format="2">
  <advance width="1745.0"/>
  <unicode hex="00A9"/>
  <outline>
    <contour>
      <point x="738.75" y="-68.0" type="curve" smooth="yes"/>
      <point x="1288.75" y="-68.0"/>
      <point x="1705.5" y="262.5"/>
      <point x="1705.5" y="801.75" type="curve" smooth="yes"/>
      <point x="1705.5" y="1160.0"/>
      <point x="1476.0" y="1350.0"/>
      <point x="1078.75" y="1350.0" type="curve" smooth="yes"/>
      <point x="505.0" y="1350.0"/>
      <point x="53.25" y="1000.75"/>
      <point x="53.25" y="452.25" type="curve" smooth="yes"/>
      <point x="53.25" y="125.25"/>
      <point x="321.5" y="-68.0"/>
    </contour>
    <contour>
      <point x="768.75" y="170.25" type="curve" smooth="yes"/>
      <point x="524.25" y="170.25"/>
      <point x="383.25" y="301.25"/>
      <point x="383.25" y="515.5" type="curve" smooth="yes"/>
      <point x="383.25" y="871.5"/>
      <point x="672.5" y="1119.0"/>
      <point x="1031.0" y="1119.0" type="curve" smooth="yes"/>
      <point x="1291.5" y="1119.0"/>
      <point x="1413.0" y="994.75"/>
      <point x="1413.0" y="785.0" type="curve" smooth="yes"/>
      <point x="1413.0" y="397.0"/>
      <point x="1155.0" y="170.25"/>
    </contour>
    <contour>
      <point x="819.5" y="287.5" type="curve" smooth="yes"/>
      <point x="972.5" y="287.5"/>
      <point x="1125.0" y="361.5"/>
      <point x="1227.5" y="498.5" type="curve"/>
      <point x="1184.75" y="543.75"/>
      <point x="1127.75" y="592.25"/>
      <point x="1078.25" y="620.0" type="curve"/>
      <point x="1013.25" y="550.0"/>
      <point x="941.5" y="513.25"/>
      <point x="875.5" y="513.25" type="curve" smooth="yes"/>
      <point x="813.75" y="513.25"/>
      <point x="761.75" y="536.75"/>
      <point x="761.75" y="604.0" type="curve" smooth="yes"/>
      <point x="761.75" y="702.25"/>
      <point x="854.0" y="787.5"/>
      <point x="958.75" y="787.5" type="curve" smooth="yes"/>
      <point x="1017.25" y="787.5"/>
      <point x="1072.0" y="764.25"/>
      <point x="1085.0" y="737.5" type="curve"/>
      <point x="1129.25" y="768.25"/>
      <point x="1204.0" y="834.25"/>
      <point x="1273.25" y="904.5" type="curve"/>
      <point x="1237.25" y="963.5"/>
      <point x="1136.5" y="992.5"/>
      <point x="1024.25" y="992.5" type="curve" smooth="yes"/>
      <point x="759.25" y="992.5"/>
      <point x="534.25" y="800.25"/>
      <point x="534.25" y="539.5" type="curve" smooth="yes"/>
      <point x="534.25" y="381.5"/>
      <point x="635.0" y="287.5"/>
    </contour>
  </outline>
</glyph>
<glyph name="ordfeminine" format="2">
  <advance width="750.0"/>
  <unicode hex="00AA"/>
  <outline>
    <contour>
      <point x="551.25" y="725.5" type="curve"/>
      <point x="579.5" y="720.5"/>
      <point x="641.25" y="718.5"/>
      <point x="684.25" y="718.5" type="curve" smooth="yes"/>
      <point x="700.5" y="718.5"/>
      <point x="735.75" y="718.75"/>
      <point x="741.75" y="719.75" type="curve"/>
      <point x="798.5" y="851.25"/>
      <point x="868.75" y="1055.5"/>
      <point x="868.75" y="1189.25" type="curve" smooth="yes"/>
      <point x="868.75" y="1341.75"/>
      <point x="788.5" y="1428.75"/>
      <point x="590.5" y="1428.75" type="curve" smooth="yes"/>
      <point x="454.5" y="1428.75"/>
      <point x="342.5" y="1389.25"/>
      <point x="255.0" y="1331.5" type="curve"/>
      <point x="345.5" y="1188.25" type="line"/>
      <point x="385.25" y="1215.25"/>
      <point x="470.0" y="1242.25"/>
      <point x="543.75" y="1242.25" type="curve" smooth="yes"/>
      <point x="622.5" y="1242.25"/>
      <point x="675.75" y="1217.0"/>
      <point x="675.75" y="1152.75" type="curve" smooth="yes"/>
      <point x="675.75" y="1145.25"/>
      <point x="674.75" y="1137.5"/>
      <point x="673.25" y="1129.5" type="curve"/>
      <point x="662.25" y="1144.25"/>
      <point x="574.0" y="1158.25"/>
      <point x="522.5" y="1158.25" type="curve" smooth="yes"/>
      <point x="355.0" y="1158.25"/>
      <point x="155.0" y="1090.5"/>
      <point x="155.0" y="917.5" type="curve" smooth="yes"/>
      <point x="155.0" y="786.25"/>
      <point x="232.0" y="725.75"/>
      <point x="383.5" y="725.75" type="curve" smooth="yes"/>
      <point x="459.0" y="725.75"/>
      <point x="534.75" y="755.25"/>
      <point x="577.0" y="787.75" type="curve"/>
      <point x="569.75" y="767.75"/>
      <point x="555.25" y="733.5"/>
    </contour>
    <contour>
      <point x="480.25" y="893.25" type="curve" smooth="yes"/>
      <point x="420.25" y="893.25"/>
      <point x="387.0" y="905.0"/>
      <point x="387.0" y="938.0" type="curve" smooth="yes"/>
      <point x="387.0" y="996.0"/>
      <point x="462.0" y="1018.25"/>
      <point x="526.75" y="1018.25" type="curve" smooth="yes"/>
      <point x="571.5" y="1018.25"/>
      <point x="625.0" y="1010.25"/>
      <point x="639.0" y="1004.0" type="curve"/>
      <point x="638.0" y="995.0"/>
      <point x="634.75" y="977.5"/>
      <point x="632.0" y="969.25" type="curve" smooth="yes"/>
      <point x="629.5" y="960.75"/>
      <point x="625.75" y="949.0"/>
      <point x="621.75" y="936.0" type="curve"/>
      <point x="587.75" y="912.75"/>
      <point x="535.0" y="893.25"/>
    </contour>
  </outline>
</glyph>
<glyph name="guillemetleft" format="2">
  <advance width="1214.0"/>
  <unicode hex="00AB"/>
  <outline>
    <contour>
      <point x="1255.5" y="1135.0" type="curve"/>
      <point x="1035.75" y="977.5"/>
      <point x="798.25" y="783.5"/>
      <point x="555.5" y="570.0" type="curve"/>
      <point x="983.25" y="135.25" type="line"/>
      <point x="989.5" y="138.0"/>
      <point x="1104.5" y="356.5"/>
      <point x="1112.25" y="418.5" type="curve"/>
      <point x="1073.0" y="459.5"/>
      <point x="948.25" y="545.75"/>
      <point x="865.75" y="599.25" type="curve"/>
      <point x="1326.75" y="945.25" type="line"/>
      <point x="1324.5" y="970.0"/>
      <point x="1314.75" y="1085.25"/>
    </contour>
    <contour>
      <point x="761.5" y="1120.75" type="curve"/>
      <point x="520.5" y="923.75"/>
      <point x="294.75" y="723.75"/>
      <point x="88.75" y="530.25" type="curve"/>
      <point x="218.25" y="333.75"/>
      <point x="384.5" y="154.5"/>
      <point x="558.0" y="0.0" type="curve"/>
      <point x="562.25" y="4.25"/>
      <point x="665.5" y="160.0"/>
      <point x="702.25" y="222.75" type="curve"/>
      <point x="678.75" y="236.25"/>
      <point x="513.75" y="418.25"/>
      <point x="395.0" y="551.5" type="curve"/>
      <point x="865.25" y="971.5" type="line"/>
      <point x="858.5" y="993.0"/>
      <point x="814.5" y="1069.5"/>
    </contour>
  </outline>
</glyph>
<glyph name="logicalnot" format="2">
  <advance width="1000.0"/>
  <unicode hex="00AC"/>
  <outline>
    <contour>
      <point x="1026.75" y="864.75" type="curve"/>
      <point x="863.0" y="864.75"/>
      <point x="271.25" y="843.5"/>
      <point x="122.75" y="830.5" type="curve"/>
      <point x="103.0" y="762.25"/>
      <point x="71.25" y="643.25"/>
      <point x="55.75" y="579.0" type="curve"/>
      <point x="164.5" y="582.0"/>
      <point x="540.75" y="599.25"/>
      <point x="707.75" y="611.0" type="curve"/>
      <point x="685.5" y="545.0"/>
      <point x="622.75" y="351.25"/>
      <point x="598.5" y="263.0" type="curve"/>
      <point x="636.25" y="260.0"/>
      <point x="792.75" y="260.25"/>
      <point x="838.25" y="261.5" type="curve"/>
      <point x="876.5" y="385.5"/>
      <point x="1004.5" y="794.0"/>
    </contour>
  </outline>
</glyph>
<glyph name="softhyphen" format="2">
  <advance width="780.25"/>
  <unicode hex="00AD"/>
  <outline>
    <contour>
      <point x="807.0" y="815.5" type="curve"/>
      <point x="732.25" y="826.5"/>
      <point x="633.0" y="830.25"/>
      <point x="508.0" y="830.25" type="curve" smooth="yes"/>
      <point x="386.75" y="830.25"/>
      <point x="240.25" y="818.25"/>
      <point x="122.25" y="802.5" type="curve"/>
      <point x="104.25" y="761.0"/>
      <point x="48.5" y="595.75"/>
      <point x="30.0" y="521.75" type="curve"/>
      <point x="192.25" y="533.5"/>
      <point x="644.0" y="548.75"/>
      <point x="748.75" y="548.75" type="curve"/>
      <point x="768.0" y="621.5"/>
      <point x="797.25" y="732.75"/>
    </contour>
  </outline>
</glyph>
<glyph name="registered" format="2">
  <advance width="1400.0"/>
  <unicode hex="00AE"/>
  <outline>
    <contour>
      <point x="663.5" y="266.0" type="curve" smooth="yes"/>
      <point x="1089.75" y="266.0"/>
      <point x="1409.75" y="502.25"/>
      <point x="1409.75" y="912.0" type="curve" smooth="yes"/>
      <point x="1409.75" y="1179.75"/>
      <point x="1210.5" y="1321.0"/>
      <point x="887.5" y="1321.0" type="curve" smooth="yes"/>
      <point x="471.0" y="1321.0"/>
      <point x="107.0" y="1073.75"/>
      <point x="107.0" y="665.5" type="curve" smooth="yes"/>
      <point x="107.0" y="367.5"/>
      <point x="370.75" y="266.0"/>
    </contour>
    <contour>
      <point x="678.0" y="449.5" type="curve" smooth="yes"/>
      <point x="520.0" y="449.5"/>
      <point x="354.75" y="484.0"/>
      <point x="354.75" y="677.25" type="curve" smooth="yes"/>
      <point x="354.75" y="949.25"/>
      <point x="579.75" y="1142.25"/>
      <point x="859.5" y="1142.25" type="curve" smooth="yes"/>
      <point x="1040.75" y="1142.25"/>
      <point x="1160.0" y="1072.25"/>
      <point x="1160.0" y="909.0" type="curve" smooth="yes"/>
      <point x="1160.0" y="633.25"/>
      <point x="962.75" y="449.5"/>
    </contour>
    <contour>
      <point x="674.5" y="542.75" type="curve"/>
      <point x="684.75" y="578.5"/>
      <point x="718.0" y="702.25"/>
      <point x="723.5" y="732.0" type="curve"/>
      <point x="728.75" y="732.5"/>
      <point x="739.25" y="733.25"/>
      <point x="745.75" y="733.25" type="curve"/>
      <point x="753.25" y="676.25"/>
      <point x="753.75" y="593.5"/>
      <point x="756.5" y="542.75" type="curve"/>
      <point x="825.0" y="542.75"/>
      <point x="891.5" y="551.5"/>
      <point x="932.25" y="571.0" type="curve"/>
      <point x="927.25" y="610.25"/>
      <point x="909.0" y="739.75"/>
      <point x="890.5" y="781.75" type="curve"/>
      <point x="959.75" y="802.5"/>
      <point x="1030.5" y="871.75"/>
      <point x="1030.5" y="941.25" type="curve" smooth="yes"/>
      <point x="1030.5" y="1024.5"/>
      <point x="929.25" y="1052.5"/>
      <point x="826.0" y="1052.5" type="curve" smooth="yes"/>
      <point x="751.75" y="1052.5"/>
      <point x="687.75" y="1040.25"/>
      <point x="629.5" y="1010.75" type="curve"/>
      <point x="598.5" y="927.0"/>
      <point x="527.0" y="681.5"/>
      <point x="497.25" y="569.75" type="curve"/>
      <point x="538.75" y="555.5"/>
      <point x="611.5" y="542.75"/>
    </contour>
    <contour>
      <point x="746.75" y="854.75" type="curve"/>
      <point x="751.0" y="870.5"/>
      <point x="761.25" y="920.25"/>
      <point x="762.75" y="932.0" type="curve"/>
      <point x="776.75" y="934.25"/>
      <point x="794.25" y="935.75"/>
      <point x="810.0" y="935.75" type="curve" smooth="yes"/>
      <point x="834.25" y="935.75"/>
      <point x="854.25" y="931.5"/>
      <point x="854.25" y="913.25" type="curve" smooth="yes"/>
      <point x="854.25" y="869.25"/>
      <point x="799.75" y="854.75"/>
    </contour>
  </outline>
</glyph>
<glyph name="degree" format="2">
  <advance width="814.0"/>
  <unicode hex="00B0"/>
  <outline>
    <contour>
      <point x="511.5" y="873.75" type="curve" smooth="yes"/>
      <point x="739.5" y="873.75"/>
      <point x="955.0" y="1060.75"/>
      <point x="955.0" y="1280.25" type="curve" smooth="yes"/>
      <point x="955.0" y="1427.5"/>
      <point x="828.0" y="1526.25"/>
      <point x="646.5" y="1526.25" type="curve" smooth="yes"/>
      <point x="421.5" y="1526.25"/>
      <point x="219.25" y="1359.0"/>
      <point x="219.25" y="1139.75" type="curve" smooth="yes"/>
      <point x="219.25" y="987.5"/>
      <point x="340.5" y="873.75"/>
    </contour>
    <contour>
      <point x="551.25" y="1093.25" type="curve" smooth="yes"/>
      <point x="497.0" y="1093.25"/>
      <point x="467.5" y="1124.25"/>
      <point x="467.5" y="1173.0" type="curve" smooth="yes"/>
      <point x="467.5" y="1250.0"/>
      <point x="533.75" y="1306.75"/>
      <point x="606.25" y="1306.75" type="curve" smooth="yes"/>
      <point x="673.25" y="1306.75"/>
      <point x="702.0" y="1275.0"/>
      <point x="702.0" y="1230.0" type="curve" smooth="yes"/>
      <point x="702.0" y="1154.75"/>
      <point x="626.75" y="1093.25"/>
    </contour>
  </outline>
</glyph>
<glyph name="twosuperior" format="2">
  <advance width="731.25"/>
  <unicode hex="00B2"/>
  <outline>
    <contour>
      <point x="714.0" y="737.0" type="curve"/>
      <point x="624.75" y="731.0"/>
      <point x="504.75" y="720.0"/>
      <point x="447.25" y="712.25" type="curve"/>
      <point x="493.5" y="739.0"/>
      <point x="562.75" y="790.75"/>
      <point x="631.5" y="853.75" type="curve" smooth="yes"/>
      <point x="734.0" y="947.0"/>
      <point x="812.75" y="1065.75"/>
      <point x="812.75" y="1164.0" type="curve" smooth="yes"/>
      <point x="812.75" y="1264.75"/>
      <point x="726.0" y="1325.25"/>
      <point x="599.5" y="1325.25" type="curve" smooth="yes"/>
      <point x="455.0" y="1325.25"/>
      <point x="304.5" y="1239.0"/>
      <point x="203.25" y="1124.25" type="curve"/>
      <point x="227.75" y="1091.0"/>
      <point x="296.75" y="1023.75"/>
      <point x="343.0" y="998.0" type="curve"/>
      <point x="378.0" y="1035.0"/>
      <point x="455.75" y="1086.5"/>
      <point x="516.5" y="1086.5" type="curve" smooth="yes"/>
      <point x="549.0" y="1086.5"/>
      <point x="568.0" y="1074.75"/>
      <point x="568.0" y="1051.75" type="curve" smooth="yes"/>
      <point x="568.0" y="997.5"/>
      <point x="454.25" y="920.0"/>
      <point x="349.25" y="849.5" type="curve" smooth="yes"/>
      <point x="238.5" y="780.5"/>
      <point x="158.25" y="729.5"/>
      <point x="106.75" y="697.0" type="curve"/>
      <point x="91.75" y="632.75"/>
      <point x="89.5" y="506.0"/>
      <point x="89.5" y="490.0" type="curve"/>
      <point x="662.75" y="516.0" type="line"/>
      <point x="671.0" y="542.5"/>
      <point x="711.75" y="696.75"/>
    </contour>
  </outline>
</glyph>
<glyph name="threesuperior" format="2">
  <advance width="782.75"/>
  <unicode hex="00B3"/>
  <outline>
    <contour>
      <point x="376.25" y="498.0" type="curve" smooth="yes"/>
      <point x="575.0" y="498.0"/>
      <point x="766.75" y="569.75"/>
      <point x="766.75" y="759.5" type="curve" smooth="yes"/>
      <point x="766.75" y="854.0"/>
      <point x="703.75" y="911.75"/>
      <point x="611.0" y="917.75" type="curve"/>
      <point x="719.0" y="946.25"/>
      <point x="817.0" y="1016.75"/>
      <point x="817.0" y="1127.25" type="curve" smooth="yes"/>
      <point x="817.0" y="1235.5"/>
      <point x="711.5" y="1296.25"/>
      <point x="580.75" y="1296.25" type="curve" smooth="yes"/>
      <point x="394.5" y="1296.25"/>
      <point x="258.5" y="1207.75"/>
      <point x="220.5" y="1178.75" type="curve"/>
      <point x="235.0" y="1153.25"/>
      <point x="300.0" y="1081.0"/>
      <point x="340.0" y="1042.0" type="curve"/>
      <point x="372.5" y="1064.25"/>
      <point x="466.75" y="1101.5"/>
      <point x="525.75" y="1101.5" type="curve" smooth="yes"/>
      <point x="568.5" y="1101.5"/>
      <point x="586.5" y="1085.5"/>
      <point x="586.5" y="1061.5" type="curve" smooth="yes"/>
      <point x="586.5" y="990.5"/>
      <point x="424.75" y="963.75"/>
      <point x="335.75" y="963.75" type="curve"/>
      <point x="322.0" y="911.25"/>
      <point x="314.75" y="852.75"/>
      <point x="314.75" y="816.5" type="curve"/>
      <point x="491.25" y="816.5"/>
      <point x="539.75" y="798.5"/>
      <point x="539.75" y="747.75" type="curve" smooth="yes"/>
      <point x="539.75" y="698.0"/>
      <point x="478.25" y="673.5"/>
      <point x="418.25" y="673.5" type="curve" smooth="yes"/>
      <point x="346.0" y="673.5"/>
      <point x="303.75" y="705.75"/>
      <point x="293.75" y="738.5" type="curve"/>
      <point x="240.5" y="719.5"/>
      <point x="144.75" y="671.75"/>
      <point x="92.0" y="641.25" type="curve"/>
      <point x="124.5" y="564.75"/>
      <point x="215.5" y="498.0"/>
    </contour>
  </outline>
</glyph>
<glyph name="micro" format="2">
  <advance width="1178.0"/>
  <unicode hex="00B5"/>
  <anchor x="439.39625" y="0.0" name="bottom"/>
  <anchor x="686.5" y="0.0" name="ogonek"/>
  <anchor x="723.60375" y="1063.0" name="top"/>
  <anchor x="1116.25" y="911.5" name="topright"/>
  <outline>
    <contour>
      <point x="-114.25" y="-415.5" type="curve"/>
      <point x="-22.75" y="-415.5"/>
      <point x="97.25" y="-408.25"/>
      <point x="167.75" y="-398.25" type="curve"/>
      <point x="190.75" y="-276.25"/>
      <point x="224.0" y="-120.0"/>
      <point x="260.25" y="21.0" type="curve" smooth="yes"/>
      <point x="319.5" y="253.25"/>
      <point x="376.25" y="460.0"/>
      <point x="449.5" y="702.75" type="curve"/>
      <point x="142.75" y="719.0" type="line"/>
      <point x="73.5" y="459.75"/>
      <point x="-67.75" y="-125.75"/>
    </contour>
    <component base="u"/>
  </outline>
</glyph>
<glyph name="paragraph" format="2">
  <advance width="1210.0"/>
  <unicode hex="00B6"/>
  <outline>
    <contour>
      <point x="827.5" y="-363.5" type="curve"/>
      <point x="938.25" y="-84.25"/>
      <point x="1088.25" y="378.75"/>
      <point x="1179.25" y="716.75" type="curve" smooth="yes"/>
      <point x="1229.75" y="904.25"/>
      <point x="1266.0" y="1069.25"/>
      <point x="1279.0" y="1173.5" type="curve"/>
      <point x="1176.5" y="1253.25"/>
      <point x="901.5" y="1314.0"/>
      <point x="719.75" y="1314.0" type="curve" smooth="yes"/>
      <point x="376.25" y="1314.0"/>
      <point x="125.5" y="1077.0"/>
      <point x="125.5" y="741.75" type="curve" smooth="yes"/>
      <point x="125.5" y="578.0"/>
      <point x="217.0" y="458.75"/>
      <point x="391.25" y="458.75" type="curve" smooth="yes"/>
      <point x="417.0" y="458.75"/>
      <point x="444.5" y="463.75"/>
      <point x="471.25" y="472.75" type="curve"/>
      <point x="446.75" y="399.5"/>
      <point x="282.5" y="-113.25"/>
      <point x="224.0" y="-304.5" type="curve"/>
      <point x="251.0" y="-306.0"/>
      <point x="427.25" y="-311.75"/>
      <point x="490.75" y="-311.25" type="curve"/>
      <point x="497.5" y="-289.0"/>
      <point x="743.0" y="514.5"/>
      <point x="904.0" y="1029.0" type="curve"/>
      <point x="943.25" y="1023.75"/>
      <point x="988.5" y="1011.0"/>
      <point x="1008.0" y="1002.75" type="curve"/>
      <point x="993.5" y="926.0"/>
      <point x="974.0" y="841.25"/>
      <point x="950.0" y="753.25" type="curve" smooth="yes"/>
      <point x="861.75" y="434.25"/>
      <point x="684.0" y="-119.5"/>
      <point x="596.5" y="-336.75" type="curve"/>
      <point x="626.25" y="-341.75"/>
      <point x="767.75" y="-363.5"/>
    </contour>
  </outline>
</glyph>
<glyph name="periodcentered" format="2">
  <advance width="450.0"/>
  <unicode hex="00B7"/>
  <outline>
    <contour>
      <point x="291.25" y="675.0" type="curve" smooth="yes"/>
      <point x="393.25" y="675.0"/>
      <point x="495.0" y="755.75"/>
      <point x="495.0" y="865.25" type="curve" smooth="yes"/>
      <point x="495.0" y="943.5"/>
      <point x="449.5" y="1009.0"/>
      <point x="358.75" y="1009.0" type="curve" smooth="yes"/>
      <point x="245.75" y="1009.0"/>
      <point x="147.25" y="928.75"/>
      <point x="147.25" y="811.75" type="curve" smooth="yes"/>
      <point x="147.25" y="739.25"/>
      <point x="188.0" y="675.0"/>
    </contour>
  </outline>
</glyph>
<glyph name="onesuperior" format="2">
  <advance width="565.0"/>
  <unicode hex="00B9"/>
  <outline>
    <contour>
      <point x="420.0" y="704.5" type="curve"/>
      <point x="454.0" y="802.25"/>
      <point x="483.5" y="904.75"/>
      <point x="505.25" y="984.25" type="curve" smooth="yes"/>
      <point x="544.0" y="1127.0"/>
      <point x="566.75" y="1227.75"/>
      <point x="571.0" y="1263.25" type="curve"/>
      <point x="532.25" y="1270.75"/>
      <point x="439.0" y="1274.75"/>
      <point x="397.0" y="1274.75" type="curve"/>
      <point x="341.25" y="1238.75"/>
      <point x="215.0" y="1147.5"/>
      <point x="175.5" y="1113.5" type="curve"/>
      <point x="181.75" y="1072.25"/>
      <point x="197.25" y="1015.75"/>
      <point x="213.75" y="972.75" type="curve"/>
      <point x="230.25" y="984.25"/>
      <point x="295.75" y="1027.0"/>
      <point x="318.5" y="1038.5" type="curve"/>
      <point x="299.5" y="967.25"/>
      <point x="244.5" y="765.75"/>
      <point x="225.25" y="695.25" type="curve"/>
      <point x="202.0" y="692.75"/>
      <point x="142.75" y="685.25"/>
      <point x="113.75" y="679.25" type="curve"/>
      <point x="95.5" y="639.75"/>
      <point x="67.5" y="543.0"/>
      <point x="55.0" y="493.0" type="curve"/>
      <point x="103.25" y="498.25"/>
      <point x="388.25" y="505.0"/>
      <point x="452.0" y="505.0" type="curve"/>
      <point x="465.75" y="538.25"/>
      <point x="507.25" y="666.5"/>
      <point x="515.25" y="696.0" type="curve"/>
      <point x="492.5" y="701.0"/>
      <point x="445.0" y="704.5"/>
    </contour>
  </outline>
</glyph>
